<?xml version="1.0" encoding="UTF-8"?>
<svg version="1.1" xmlns="http://www.w3.org/2000/svg" width="227" height="227">
<path d="M0 0 C16.83 0 33.66 0 51 0 C51 2.64 51 5.28 51 8 C51.99 8.33 52.98 8.66 54 9 C54.103125 10.093125 54.20625 11.18625 54.3125 12.3125 C55.03823695 16.2050891 55.37366323 16.48309393 58 19 C58.90989402 22.21962499 59.15177365 24.36255066 58.375 27.625 C56.58688714 30.71355858 55.09251553 32.18482784 52 34 C47.78823447 34.84405827 44.83898137 34.41949068 41 32.5 C38.0742694 28.84283675 38.55392411 26.60945082 39 22 C39.33 21.34 39.66 20.68 40 20 C38.72320272 20.57016125 37.45375712 21.15679847 36.1875 21.75 C35.12595703 22.23726562 35.12595703 22.23726562 34.04296875 22.734375 C31.71219754 24.17829445 30.50905729 25.73403385 29 28 C42.37455049 37.05657036 42.37455049 37.05657036 58 39 C61.22590345 37.46036426 63.60753646 35.64430181 66 33 C65.49231681 37.4422279 63.84178232 39.6253835 61 43 C60.67 43.99 60.34 44.98 60 46 C53.59557659 49.99568009 47.32510974 49.97875273 40 49 C35.70384583 47.43148447 31.89295266 45.38450602 28 43 C27.06285156 42.43925781 26.12570313 41.87851563 25.16015625 41.30078125 C24.44730469 40.87152344 23.73445313 40.44226563 23 40 C23.39832031 40.44730469 23.79664063 40.89460938 24.20703125 41.35546875 C32.56486227 50.89275037 32.56486227 50.89275037 33 58 C32.09203825 61.85883744 31.14406831 64.51094593 28 67 C25.13391871 68.43304064 23.18699217 68.30644155 20 68 C16.93528698 66.34976991 14.69221093 64.943924 12.625 62.125 C11.75275954 59.15938245 11.55989364 57.08074453 12 54 C14.5786578 50.58707056 16.13529354 49.21209781 20.3125 48.1875 C21.199375 48.125625 22.08625 48.06375 23 48 C17.81880398 42.79838216 17.81880398 42.79838216 11 41 C10.23816406 41.32355469 9.47632812 41.64710937 8.69140625 41.98046875 C3.08811634 44.10305027 -2.97638792 43.71003933 -8.5625 41.75 C-12.24433249 39.10663308 -12.24433249 39.10663308 -13 36 C-12.92467245 31.32969211 -12.58729952 28.27674939 -9.6875 24.5625 C-7 22 -7 22 -3 21 C-3 17.04 -3 13.08 -3 9 C12.345 8.505 12.345 8.505 28 8 C28 6.35 28 4.7 28 3 C26.35 3 24.7 3 23 3 C23 4.65 23 6.3 23 8 C15.41 8 7.82 8 0 8 C0 5.36 0 2.72 0 0 Z M40 8 C40 8.33 40 8.66 40 9 C42.31 9 44.62 9 47 9 C47 8.67 47 8.34 47 8 C44.69 8 42.38 8 40 8 Z M21 12 C21 15.96 21 19.92 21 24 C22.98 24.66 24.96 25.32 27 26 C28.6068338 24.85489241 28.6068338 24.85489241 30 23 C30.36270484 20.25756437 30.36270484 20.25756437 30.1875 17.3125 C30.16042969 16.31863281 30.13335937 15.32476562 30.10546875 14.30078125 C30.07066406 13.54152344 30.03585938 12.78226563 30 12 C27.03 12 24.06 12 21 12 Z M45 18 C45.474375 18.37125 45.94875 18.7425 46.4375 19.125 C48.52205802 21.62646962 48.64621491 23.81593418 49 27 C48.54625 26.505 48.0925 26.01 47.625 25.5 C46.12364481 23.77390663 46.12364481 23.77390663 44 24 C43.58219121 26.37305578 43.58219121 26.37305578 44 29 C46.40858714 30.8624438 46.40858714 30.8624438 49 32 C52.36999389 30.4446182 53.74819353 29.64350542 55.125 26.125 C55.28601137 22.82380488 55.28601137 22.82380488 52.875 20.125 C49.8195146 17.86659775 48.68201581 17.47399774 45 18 Z M3 23 C3.66 23.66 4.32 24.32 5 25 C5.33 24.34 5.66 23.68 6 23 C5.01 23 4.02 23 3 23 Z M-5 24 C-5.33 24.66 -5.66 25.32 -6 26 C-4.68 25.34 -3.36 24.68 -2 24 C-2.99 24 -3.98 24 -5 24 Z M8 24 C8.66 24.66 9.32 25.32 10 26 C10 25.34 10 24.68 10 24 C9.34 24 8.68 24 8 24 Z M-9 29 C-8.67 29.99 -8.34 30.98 -8 32 C-4.04 31.34 -0.08 30.68 4 30 C4 29.67 4 29.34 4 29 C-0.29 29 -4.58 29 -9 29 Z M6 30 C6.33 30.66 6.66 31.32 7 32 C7.99 31.67 8.98 31.34 10 31 C8.68 30.67 7.36 30.34 6 30 Z M-8 34 C-7.67 34.99 -7.34 35.98 -7 37 C-2.25669862 39.19811528 1.87931258 39.34137916 7 39 C7.66 38.34 8.32 37.68 9 37 C3.10261508 34.70657253 -1.66606918 33.65451286 -8 34 Z M42 43 C45.23914229 45.15942819 46.24859733 45.27232978 50 45.25 C51.299375 45.25773437 51.299375 45.25773437 52.625 45.265625 C55.265795 45.15414552 55.265795 45.15414552 58 43 C52.72 43 47.44 43 42 43 Z M25 50 C25.061875 51.423125 25.061875 51.423125 25.125 52.875 C25 56 25 56 23 58 C20.875 58.625 20.875 58.625 19 59 C19 58.34 19 57.68 19 57 C19.66 57 20.32 57 21 57 C21 56.01 21 55.02 21 54 C19.04105639 54.11306697 19.04105639 54.11306697 17 55 C15.70339566 57.49034386 15.70339566 57.49034386 15 60 C17.16588845 62.666508 17.16588845 62.666508 20 65 C23.2060553 65.07633465 24.43918357 64.50280094 26.8125 62.375 C28.46411978 59.07176044 28.39726948 56.64163694 28 53 C26.64570159 51.05630262 26.64570159 51.05630262 25 50 Z " fill="#B68E53" transform="translate(87,67)"/>
<path d="M0 0 C2.62144728 2.30804885 3.78384259 4.427267 5.04296875 7.66796875 C5.56987305 9.00698242 5.56987305 9.00698242 6.10742188 10.37304688 C6.46384766 11.30181641 6.82027344 12.23058594 7.1875 13.1875 C7.55552734 14.12787109 7.92355469 15.06824219 8.30273438 16.03710938 C9.2088805 18.35543127 10.10765118 20.67634016 11 23 C12.59293856 16.93355899 13.62888461 10.9812631 14.4375 4.7578125 C15 2 15 2 17 0 C18.51012131 2.76543196 20.00630148 5.53816807 21.5 8.3125 C21.92925781 9.09818359 22.35851562 9.88386719 22.80078125 10.69335938 C23.20683594 11.45068359 23.61289063 12.20800781 24.03125 12.98828125 C24.40830078 13.68477783 24.78535156 14.38127441 25.17382812 15.09887695 C26 17 26 17 26 20 C26.66 20 27.32 20 28 20 C28.14115234 18.98679688 28.14115234 18.98679688 28.28515625 17.953125 C29.17348893 14.28329163 30.7345078 11.09355292 32.4375 7.75 C32.75009766 7.11320313 33.06269531 6.47640625 33.38476562 5.8203125 C35.74653518 1.12673241 35.74653518 1.12673241 38 0 C39.51486613 6.99416915 40.60203267 13.99892606 41.53515625 21.09375 C41.83948784 23.92925559 41.83948784 23.92925559 43 26 C43.99 26.66 44.98 27.32 46 28 C42.7 28 39.4 28 36 28 C35.93941406 27.24074219 35.87882812 26.48148438 35.81640625 25.69921875 C35.73261719 24.70535156 35.64882812 23.71148437 35.5625 22.6875 C35.48128906 21.70136719 35.40007812 20.71523437 35.31640625 19.69921875 C35.08187441 16.90624401 35.08187441 16.90624401 34 14 C30.535 20.93 30.535 20.93 27 28 C24 27 24 27 22.39453125 24.27734375 C21.87246094 23.17519531 21.35039062 22.07304687 20.8125 20.9375 C20.28269531 19.83277344 19.75289063 18.72804687 19.20703125 17.58984375 C18.80871094 16.73519531 18.41039062 15.88054687 18 15 C16.78306124 17.43387753 16.68040104 19.41838846 16.4375 22.125 C16.31181641 23.49011719 16.31181641 23.49011719 16.18359375 24.8828125 C16.12300781 25.58148438 16.06242187 26.28015625 16 27 C16.66 27.33 17.32 27.66 18 28 C14.04 28 10.08 28 6 28 C5.01 25.36 4.02 22.72 3 20 C0.69 20 -1.62 20 -4 20 C-4.33 22.64 -4.66 25.28 -5 28 C-14.38952911 29.2225065 -14.38952911 29.2225065 -18.25390625 26.2890625 C-20.51988381 23.66828678 -22.44935727 21.10128546 -24 18 C-24.99 17.67 -25.98 17.34 -27 17 C-27 20.3 -27 23.6 -27 27 C-26.01 27.33 -25.02 27.66 -24 28 C-27.63 28 -31.26 28 -35 28 C-34.34 27.67 -33.68 27.34 -33 27 C-33 19.41 -33 11.82 -33 4 C-34.32 4 -35.64 4 -37 4 C-37.04898438 5.25296875 -37.09796875 6.5059375 -37.1484375 7.796875 C-37.22348583 9.44793821 -37.29903277 11.09897881 -37.375 12.75 C-37.4059375 13.575 -37.436875 14.4 -37.46875 15.25 C-37.50742188 16.04921875 -37.54609375 16.8484375 -37.5859375 17.671875 C-37.6173584 18.4050293 -37.6487793 19.13818359 -37.68115234 19.89355469 C-38.04579801 22.30256142 -38.72476563 23.9282245 -40 26 C-44.38436159 29.10113381 -47.81007743 29.36400342 -52.9453125 28.5859375 C-55.83135842 27.7629206 -57.25443518 26.40015163 -59 24 C-60.11823815 21.76352369 -60.19396061 20.35108471 -60.31640625 17.8671875 C-60.35830078 17.06152344 -60.40019531 16.25585938 -60.44335938 15.42578125 C-60.48267578 14.58402344 -60.52199219 13.74226562 -60.5625 12.875 C-60.60568359 12.02550781 -60.64886719 11.17601562 -60.69335938 10.30078125 C-60.79954236 8.20071777 -60.90028497 6.10038052 -61 4 C-61.66 3.67 -62.32 3.34 -63 3 C-63 2.34 -63 1.68 -63 1 C-59.37 1 -55.74 1 -52 1 C-52 1.66 -52 2.32 -52 3 C-52.99 3.495 -52.99 3.495 -54 4 C-54.05425226 6.39614126 -54.09379027 8.79103853 -54.125 11.1875 C-54.14175781 11.86103516 -54.15851563 12.53457031 -54.17578125 13.22851562 C-54.21535232 17.28455004 -53.84514755 20.37120981 -52 24 C-50.88741409 25.32745166 -50.88741409 25.32745166 -48.0625 25.25 C-47.051875 25.1675 -46.04125 25.085 -45 25 C-42.94872156 21.92308234 -42.72739128 21.06355001 -42.5859375 17.55078125 C-42.54726562 16.70322266 -42.50859375 15.85566406 -42.46875 14.98242188 C-42.4378125 14.10134766 -42.406875 13.22027344 -42.375 12.3125 C-42.33632812 11.41982422 -42.29765625 10.52714844 -42.2578125 9.60742188 C-42.16359782 7.4051538 -42.07798412 5.20289278 -42 3 C-42.99 3 -43.98 3 -45 3 C-45 2.34 -45 1.68 -45 1 C-41.10430865 0.91267274 -37.20887018 0.85949815 -33.3125 0.8125 C-32.20970703 0.78736328 -31.10691406 0.76222656 -29.97070312 0.73632812 C-28.90400391 0.72666016 -27.83730469 0.71699219 -26.73828125 0.70703125 C-25.75899658 0.6913208 -24.77971191 0.67561035 -23.77075195 0.65942383 C-20.47165254 1.06494358 -18.61450279 1.96310284 -16 4 C-15.25993017 8.99547135 -16.05002573 11.94378538 -19 16 C-17.87970983 17.48273699 -16.75361382 18.96108886 -15.625 20.4375 C-14.99851563 21.26121094 -14.37203125 22.08492187 -13.7265625 22.93359375 C-12.16246096 25.08528092 -12.16246096 25.08528092 -10 26 C-9.85304687 25.45214844 -9.70609375 24.90429688 -9.5546875 24.33984375 C-7.96962454 18.73746606 -6.03447419 13.33876703 -3.875 7.9375 C-3.60929199 7.27032959 -3.34358398 6.60315918 -3.06982422 5.91577148 C-1.13128939 1.13128939 -1.13128939 1.13128939 0 0 Z M-27 4 C-27 7.63 -27 11.26 -27 15 C-22.36980013 14.5547002 -22.36980013 14.5547002 -21 13 C-20.74996036 9.54178598 -20.74996036 9.54178598 -21 6 C-21.66 5.34 -22.32 4.68 -23 4 C-24.32 4 -25.64 4 -27 4 Z M-1 11 C-1.66 12.98 -2.32 14.96 -3 17 C-1.35 17 0.3 17 2 17 C1.42655063 14.13275314 1.1385485 13.1385485 -1 11 Z " fill="#CFAE6E" transform="translate(163,147)"/>
<path d="M0 0 C10.23 0 20.46 0 31 0 C31 0.99 31 1.98 31 3 C28.69 3 26.38 3 24 3 C24.495 11.415 24.495 11.415 25 20 C24.01 20.495 24.01 20.495 23 21 C23.66 22.65 24.32 24.3 25 26 C23.68 26.99 22.36 27.98 21 29 C21.556875 29.061875 22.11375 29.12375 22.6875 29.1875 C26.00617521 30.35352102 27.65110694 32.41621763 30 35 C30.721875 35.7425 31.44375 36.485 32.1875 37.25 C35.32563205 42.01130381 36.45403637 46.77109417 35.3125 52.375 C33.67498526 55.65002949 32.26194831 57.36902585 29 59 C25.0920352 59.44408691 23.25451854 59.13704844 19.75 57.25 C16.08803218 54.25384451 15.24970156 52.67656763 14.5625 48.0625 C15.16254524 43.86218333 16.66275832 42.53920563 20 40 C23.3125 39.1875 23.3125 39.1875 26 39 C20.81880398 33.79838216 20.81880398 33.79838216 14 32 C13.23816406 32.32355469 12.47632812 32.64710937 11.69140625 32.98046875 C6.08811634 35.10305027 0.02361208 34.71003933 -5.5625 32.75 C-9.24433249 30.10663308 -9.24433249 30.10663308 -10 27 C-9.92467245 22.32969211 -9.58729952 19.27674939 -6.6875 15.5625 C-4 13 -4 13 0 12 C0 8.04 0 4.08 0 0 Z M6 14 C6.66 14.66 7.32 15.32 8 16 C8.33 15.34 8.66 14.68 9 14 C8.01 14 7.02 14 6 14 Z M-2 15 C-2.33 15.66 -2.66 16.32 -3 17 C-1.68 16.34 -0.36 15.68 1 15 C0.01 15 -0.98 15 -2 15 Z M11 15 C11.66 15.66 12.32 16.32 13 17 C13 16.34 13 15.68 13 15 C12.34 15 11.68 15 11 15 Z M-6 20 C-5.67 20.99 -5.34 21.98 -5 23 C-1.04 22.34 2.92 21.68 7 21 C7 20.67 7 20.34 7 20 C2.71 20 -1.58 20 -6 20 Z M9 21 C9.33 21.66 9.66 22.32 10 23 C10.99 22.67 11.98 22.34 13 22 C11.68 21.67 10.36 21.34 9 21 Z M-5 25 C-4.67 25.99 -4.34 26.98 -4 28 C0.74330138 30.19811528 4.87931258 30.34137916 10 30 C10.66 29.34 11.32 28.68 12 28 C6.10261508 25.70657253 1.33393082 24.65451286 -5 25 Z M28 41 C28.061875 42.423125 28.061875 42.423125 28.125 43.875 C28 47 28 47 26 49 C23.875 49.625 23.875 49.625 22 50 C22 49.34 22 48.68 22 48 C22.66 48 23.32 48 24 48 C24 47.01 24 46.02 24 45 C22.04105639 45.11306697 22.04105639 45.11306697 20 46 C18.70339566 48.49034386 18.70339566 48.49034386 18 51 C20.16588845 53.666508 20.16588845 53.666508 23 56 C26.2060553 56.07633465 27.43918357 55.50280094 29.8125 53.375 C31.46411978 50.07176044 31.39726948 47.64163694 31 44 C29.64570159 42.05630262 29.64570159 42.05630262 28 41 Z " fill="#E9D283" transform="translate(84,76)"/>
<path d="M0 0 C1.32 0.66 2.64 1.32 4 2 C3.01 3.32 2.02 4.64 1 6 C3.97 6.33 6.94 6.66 10 7 C10.66 5.68 11.32 4.36 12 3 C12.66 3 13.32 3 14 3 C14.33 4.32 14.66 5.64 15 7 C16.4800841 6.88637738 17.95910074 6.75877092 19.4375 6.625 C20.26121094 6.55539063 21.08492187 6.48578125 21.93359375 6.4140625 C22.61550781 6.27742188 23.29742187 6.14078125 24 6 C24.33 5.34 24.66 4.68 25 4 C24.01 4 23.02 4 22 4 C22.33 2.68 22.66 1.36 23 0 C27.875 1.75 27.875 1.75 29 4 C29.06996014 5.70702735 29.08440154 7.41668003 29.0625 9.125 C29.05347656 10.03507812 29.04445312 10.94515625 29.03515625 11.8828125 C29.02355469 12.58148438 29.01195312 13.28015625 29 14 C29.66 14 30.32 14 31 14 C31.12375 15.134375 31.2475 16.26875 31.375 17.4375 C31.58125 18.613125 31.7875 19.78875 32 21 C32.66 21.33 33.32 21.66 34 22 C34 24.97 34 27.94 34 31 C27.73 31 21.46 31 15 31 C15 29.35 15 27.7 15 26 C14.71125 26.639375 14.4225 27.27875 14.125 27.9375 C13 30 13 30 11 31 C9.47851674 31.08372659 7.95344222 31.10730027 6.4296875 31.09765625 C5.53378906 31.09443359 4.63789062 31.09121094 3.71484375 31.08789062 C2.77769531 31.07951172 1.84054688 31.07113281 0.875 31.0625 C-0.06988281 31.05798828 -1.01476562 31.05347656 -1.98828125 31.04882812 C-4.32558387 31.03702357 -6.66276061 31.02055759 -9 31 C-10.53445094 27.93109813 -9.54984289 25.29905734 -9 22 C-8.34 22 -7.68 22 -7 22 C-6.87625 20.700625 -6.7525 19.40125 -6.625 18.0625 C-6.4140625 15.84765625 -6.4140625 15.84765625 -6 14 C-5.34 13.67 -4.68 13.34 -4 13 C-4.12375 11.1746875 -4.12375 11.1746875 -4.25 9.3125 C-4.27471684 5.83360474 -4.04111557 5.06167336 -2 2 C-1.34 1.34 -0.68 0.68 0 0 Z M11 17 C11 18.65 11 20.3 11 22 C11.66 22 12.32 22 13 22 C13 20.35 13 18.7 13 17 C12.34 17 11.68 17 11 17 Z M6 22 C10 23 10 23 10 23 Z M26 22 C26 22.33 26 22.66 26 23 C27.65 23 29.3 23 31 23 C31 22.67 31 22.34 31 22 C29.35 22 27.7 22 26 22 Z " fill="#C7A25E" transform="translate(100,35)"/>
<path d="M0 0 C3.96 0 7.92 0 12 0 C11.01 0.495 11.01 0.495 10 1 C9.43941523 2.73433657 9.43941523 2.73433657 9 5 C8.4740625 6.7634375 8.4740625 6.7634375 7.9375 8.5625 C6.8684413 11.88854054 6.8684413 11.88854054 7 15 C7.495 15.474375 7.99 15.94875 8.5 16.4375 C10 18 10 18 10 22 C10.61998741 24.01495907 11.27954236 26.0187415 12 28 C11.43152344 27.855625 10.86304687 27.71125 10.27734375 27.5625 C5.37737795 26.38454495 1.0354688 25.78572473 -4 26 C-1.57869669 28.42130331 -0.19888623 28.52840504 3.125 29.125 C4.03507812 29.29257813 4.94515625 29.46015625 5.8828125 29.6328125 C6.58148438 29.75398438 7.28015625 29.87515625 8 30 C7.67 31.32 7.34 32.64 7 34 C1.26288519 34.34422689 -3.06983069 34.36694489 -8 31 C-10.28725514 28.31496136 -9.99541941 26.71600338 -9.9375 23.125 C-9.21159013 18.50164545 -7.36216216 16.20578252 -4 13 C-2.68 12.67 -1.36 12.34 0 12 C0 8.04 0 4.08 0 0 Z M-2 15 C-2.33 15.66 -2.66 16.32 -3 17 C-1.68 16.34 -0.36 15.68 1 15 C0.01 15 -0.98 15 -2 15 Z M-6 20 C-5.67 20.99 -5.34 21.98 -5 23 C-1.04 22.34 2.92 21.68 7 21 C7 20.67 7 20.34 7 20 C2.71 20 -1.58 20 -6 20 Z " fill="#CFAE66" transform="translate(84,76)"/>
<path d="M0 0 C3.59224158 2.69418118 5.1379178 5.35551133 5.78125 9.83203125 C6.05245703 15.74208453 4.40691627 19.73694237 0.4375 24.1875 C-3.80423364 26.6242406 -7.63462529 27.17816165 -12.5 26.875 C-16.97707848 25.66151576 -19.72960858 23.91021347 -22.5 20.1875 C-24.23079071 14.45425577 -24.52599684 9.92699368 -21.8125 4.5 C-15.80707151 -2.31697288 -8.45746426 -2.71847066 0 0 Z M-15.375 2.875 C-17.93504818 6.48918567 -18.5 8.45001116 -18.5 12.875 C-17.6219749 16.75115957 -16.3774709 19.87217612 -13.75 22.875 C-10.42464079 24.35293743 -8.09084215 24.38797745 -4.5 23.875 C-1.53391625 21.66945054 -0.67097903 19.9363604 -0.0859375 16.3046875 C0.14698075 11.80568769 0.16937306 7.9859721 -2.5625 4.25 C-7.06991218 0.60570931 -10.42258945 -0.57015516 -15.375 2.875 Z " fill="#CFAE70" transform="translate(72.5,149.125)"/>
<path d="M0 0 C0.69351563 -0.00386719 1.38703125 -0.00773438 2.1015625 -0.01171875 C7.24833354 -0.00166646 7.24833354 -0.00166646 8.375 1.125 C8.41592937 3.45797433 8.41741723 5.79205225 8.375 8.125 C7.715 8.125 7.055 8.125 6.375 8.125 C6.045 7.135 5.715 6.145 5.375 5.125 C2.13186518 2.84279402 -0.7437942 2.80156618 -4.625 3.125 C-7.49187127 4.00098844 -8.35786836 4.69250115 -9.9375 7.25 C-10.88824411 11.22583899 -10.33006412 14.08690549 -9.625 18.125 C-9.5425 18.90875 -9.46 19.6925 -9.375 20.5 C-8.71537013 22.34786193 -8.71537013 22.34786193 -6.5 23.3125 C-3.22315309 24.23856543 -0.00405283 24.72746437 3.375 25.125 C3.26137738 23.6449159 3.13377092 22.16589926 3 20.6875 C2.93039063 19.86378906 2.86078125 19.04007813 2.7890625 18.19140625 C2.65242188 17.50949219 2.51578125 16.82757813 2.375 16.125 C1.715 15.795 1.055 15.465 0.375 15.125 C0.375 14.465 0.375 13.805 0.375 13.125 C3.345 13.125 6.315 13.125 9.375 13.125 C9.375 15.90496107 9.16202071 18.54992567 8.875 21.3125 C8.73578125 22.66408203 8.73578125 22.66408203 8.59375 24.04296875 C8.5215625 24.73003906 8.449375 25.41710937 8.375 26.125 C2.91506473 28.77224134 -2.01674519 28.82470821 -7.75 27 C-12.03724771 25.24347715 -14.05097707 22.94703405 -16.625 19.125 C-18.20890292 14.58633081 -17.24119134 10.54784557 -15.625 6.125 C-10.93987717 0.35869498 -7.07652044 -0.03990519 0 0 Z " fill="#EAD08B" transform="translate(35.625,147.875)"/>
<path d="M0 0 C3.96 0 7.92 0 12 0 C12 2.64 12 5.28 12 8 C12.99 8.33 13.98 8.66 15 9 C15.103125 10.093125 15.20625 11.18625 15.3125 12.3125 C16.03823695 16.2050891 16.37366323 16.48309393 19 19 C19.90989402 22.21962499 20.15177365 24.36255066 19.375 27.625 C17.63230267 30.63511357 15.9768733 32.2000301 13 34 C10.22712751 33.80654378 8.46914446 33.23457223 6 32 C6.33 31.34 6.66 30.68 7 30 C7.99 30.33 8.98 30.66 10 31 C12.21491214 30.5596445 12.21491214 30.5596445 14 29 C15.17110449 26.1403994 15.17110449 26.1403994 15 23 C13.08292383 20.27185314 11.79934108 19.20495925 8.5625 18.375 C7.716875 18.25125 6.87125 18.1275 6 18 C4.3207762 17.36562656 2.64991582 16.70710678 1 16 C1.99 13.69 2.98 11.38 4 9 C3.34 8.443125 2.68 7.88625 2 7.3125 C0 5 0 5 0 0 Z " fill="#C3995A" transform="translate(126,67)"/>
<path d="M0 0 C3.63 0 7.26 0 11 0 C11 0.66 11 1.32 11 2 C10.01 2.495 10.01 2.495 9 3 C8.94574774 5.39614126 8.90620973 7.79103853 8.875 10.1875 C8.85824219 10.86103516 8.84148437 11.53457031 8.82421875 12.22851562 C8.78464768 16.28455004 9.15485245 19.37120981 11 23 C12.11258591 24.32745166 12.11258591 24.32745166 14.9375 24.25 C15.948125 24.1675 16.95875 24.085 18 24 C19.9756562 21.03651571 20.26376859 20.31979627 20.4140625 16.98828125 C20.45273438 16.23095703 20.49140625 15.47363281 20.53125 14.69335938 C20.57765625 13.51483398 20.57765625 13.51483398 20.625 12.3125 C20.66367188 11.51521484 20.70234375 10.71792969 20.7421875 9.89648438 C20.83632494 7.93136525 20.91924632 5.9657146 21 4 C21.33 4.66 21.66 5.32 22 6 C22.99 6 23.98 6 25 6 C25.05411124 8.41696872 25.09372278 10.83271787 25.125 13.25 C25.15013672 14.27287109 25.15013672 14.27287109 25.17578125 15.31640625 C25.21194691 19.04146909 25.18963121 21.90482639 23 25 C18.61563841 28.10113381 15.18992257 28.36400342 10.0546875 27.5859375 C7.16864158 26.7629206 5.74556482 25.40015163 4 23 C2.88176185 20.76352369 2.80603939 19.35108471 2.68359375 16.8671875 C2.64169922 16.06152344 2.59980469 15.25585938 2.55664062 14.42578125 C2.51732422 13.58402344 2.47800781 12.74226562 2.4375 11.875 C2.39431641 11.02550781 2.35113281 10.17601562 2.30664062 9.30078125 C2.20045764 7.20071777 2.09971503 5.10038052 2 3 C1.34 2.67 0.68 2.34 0 2 C0 1.34 0 0.68 0 0 Z " fill="#CEA96E" transform="translate(100,148)"/>
<path d="M0 0 C2.24973447 -0.054138 4.49984383 -0.09285491 6.75 -0.125 C8.00296875 -0.14820313 9.2559375 -0.17140625 10.546875 -0.1953125 C13.73960816 -0.01472805 15.41031936 0.20230907 18 2 C19.42662219 4.85324437 19.31033868 6.83454549 19 10 C17.375 12.8125 17.375 12.8125 15 15 C11.75 15.8125 11.75 15.8125 9 16 C9 15.34 9 14.68 9 14 C10.32 13.67 11.64 13.34 13 13 C13.1546875 11.1128125 13.1546875 11.1128125 13.3125 9.1875 C13.37050781 8.47980469 13.42851563 7.77210938 13.48828125 7.04296875 C13.16779499 4.70225419 13.16779499 4.70225419 10.48046875 3.23828125 C9.66191406 2.82964844 8.84335938 2.42101562 8 2 C8.08058849 5.79255672 8.19345317 9.58347092 8.3125 13.375 C8.33505859 14.45523438 8.35761719 15.53546875 8.38085938 16.6484375 C8.41630859 17.6796875 8.45175781 18.7109375 8.48828125 19.7734375 C8.51446533 20.72653809 8.54064941 21.67963867 8.56762695 22.66162109 C8.78165161 23.81911865 8.78165161 23.81911865 9 25 C9.99 25.66 10.98 26.32 12 27 C8.37 27.33 4.74 27.66 1 28 C0.67 27.34 0.34 26.68 0 26 C0.66 26 1.32 26 2 26 C2 18.41 2 10.82 2 3 C1.34 2.67 0.68 2.34 0 2 C0 1.34 0 0.68 0 0 Z " fill="#C1A069" transform="translate(79,148)"/>
<path d="M0 0 C1.32 0.66 2.64 1.32 4 2 C3.484375 2.515625 2.96875 3.03125 2.4375 3.5625 C0.41304999 6.99526306 1.40863409 9.07831029 2 13 C2.12296695 16.1470683 2.09548577 19.2886272 2.0625 22.4375 C2.05798828 23.26443359 2.05347656 24.09136719 2.04882812 24.94335938 C2.03715811 26.96227146 2.01922718 28.98114574 2 31 C-1.63 31 -5.26 31 -9 31 C-10.53445094 27.93109813 -9.54984289 25.29905734 -9 22 C-8.34 22 -7.68 22 -7 22 C-6.87625 20.700625 -6.7525 19.40125 -6.625 18.0625 C-6.4140625 15.84765625 -6.4140625 15.84765625 -6 14 C-5.34 13.67 -4.68 13.34 -4 13 C-4.12375 11.1746875 -4.12375 11.1746875 -4.25 9.3125 C-4.27471684 5.83360474 -4.04111557 5.06167336 -2 2 C-1.34 1.34 -0.68 0.68 0 0 Z " fill="#C7A567" transform="translate(100,35)"/>
<path d="M0 0 C4.875 1.75 4.875 1.75 6 4 C6.06996014 5.70702735 6.08440154 7.41668003 6.0625 9.125 C6.05347656 10.03507812 6.04445312 10.94515625 6.03515625 11.8828125 C6.02355469 12.58148438 6.01195312 13.28015625 6 14 C6.66 14 7.32 14 8 14 C8.12375 15.134375 8.2475 16.26875 8.375 17.4375 C8.58125 18.613125 8.7875 19.78875 9 21 C9.66 21.33 10.32 21.66 11 22 C11 24.97 11 27.94 11 31 C5.25 31.125 5.25 31.125 3 30 C3 27.36 3 24.72 3 22 C2.01 21.67 1.02 21.34 0 21 C-0.05398987 18.72942623 -0.09278742 16.45848712 -0.125 14.1875 C-0.14820312 12.92292969 -0.17140625 11.65835938 -0.1953125 10.35546875 C0 7 0 7 2 4 C1.01 4 0.02 4 -1 4 C-0.67 2.68 -0.34 1.36 0 0 Z " fill="#E0C076" transform="translate(123,35)"/>
<path d="M0 0 C8.91 0 17.82 0 27 0 C26.67 0.99 26.34 1.98 26 3 C25.01 3 24.02 3 23 3 C23 4.65 23 6.3 23 8 C15.41 8 7.82 8 0 8 C0 5.36 0 2.72 0 0 Z " fill="#B28B56" transform="translate(87,67)"/>
<path d="M0 0 C0.66 0.33 1.32 0.66 2 1 C1.67 1.99 1.34 2.98 1 4 C3.31 4 5.62 4 8 4 C7.67 5.32 7.34 6.64 7 8 C5.54263913 8.19491452 4.08405407 8.38069358 2.625 8.5625 C1.81289062 8.66691406 1.00078125 8.77132812 0.1640625 8.87890625 C-2 9 -2 9 -4 8 C-2.15811388 10.05270463 -2.15811388 10.05270463 0 11 C0.33 11.66 0.66 12.32 1 13 C0.01 13.66 -0.98 14.32 -2 15 C3.94 16.485 3.94 16.485 10 18 C9.67 19.32 9.34 20.64 9 22 C3.26288519 22.34422689 -1.06983069 22.36694489 -6 19 C-8.28725514 16.31496136 -7.99541941 14.71600338 -7.9375 11.125 C-7.23370069 6.53313866 -5.24553757 4.24553757 -2 1 C-1.34 0.67 -0.68 0.34 0 0 Z " fill="#AF8E5D" transform="translate(82,88)"/>
<path d="M0 0 C2.68125418 2.38246339 4.11423459 4.8545504 5.6875 8.0625 C6.34298828 9.37927734 6.34298828 9.37927734 7.01171875 10.72265625 C8 13 8 13 8 15 C6.68 14.67 5.36 14.34 4 14 C3.67 14.99 3.34 15.98 3 17 C2.67 16.34 2.34 15.68 2 15 C0.78306124 17.43387753 0.68040104 19.41838846 0.4375 22.125 C0.35371094 23.03507812 0.26992187 23.94515625 0.18359375 24.8828125 C0.12300781 25.58148438 0.06242188 26.28015625 0 27 C0.66 27.33 1.32 27.66 2 28 C-1.96 28 -5.92 28 -10 28 C-10.33 26.68 -10.66 25.36 -11 24 C-9.02 23.67 -7.04 23.34 -5 23 C-3.34309321 16.96412527 -2.33484948 10.95570458 -1.46484375 4.7578125 C-1 2 -1 2 0 0 Z " fill="#D9BE7C" transform="translate(179,147)"/>
<path d="M0 0 C0.85078125 0.00322266 1.7015625 0.00644531 2.578125 0.00976562 C3.46757813 0.01814453 4.35703125 0.02652344 5.2734375 0.03515625 C6.170625 0.03966797 7.0678125 0.04417969 7.9921875 0.04882812 C10.21100398 0.06063034 12.42968768 0.0770947 14.6484375 0.09765625 C14.6484375 1.08765625 14.6484375 2.07765625 14.6484375 3.09765625 C11.3484375 3.09765625 8.0484375 3.09765625 4.6484375 3.09765625 C4.6484375 2.43765625 4.6484375 1.77765625 4.6484375 1.09765625 C2.21923885 0.96324847 2.21923885 0.96324847 -0.3515625 2.09765625 C-1.76068237 4.64205893 -2.5493374 7.31155016 -3.3515625 10.09765625 C-3.6815625 11.08765625 -4.0115625 12.07765625 -4.3515625 13.09765625 C-3.994086 15.02891591 -3.994086 15.02891591 -3.3515625 17.09765625 C-3.01095439 18.76285144 -2.67597854 20.42923091 -2.3515625 22.09765625 C-5.21880936 21.52420688 -6.213014 21.23620475 -8.3515625 19.09765625 C-8.3515625 18.10765625 -8.3515625 17.11765625 -8.3515625 16.09765625 C-8.9084375 15.23140625 -8.9084375 15.23140625 -9.4765625 14.34765625 C-11.05664968 10.28457494 -8.96759185 6.56072597 -7.3515625 2.72265625 C-5.49215399 -0.29888258 -3.26853344 -0.02179022 0 0 Z M-2.3515625 15.09765625 C-0.8665625 16.08765625 -0.8665625 16.08765625 0.6484375 17.09765625 C-0.3415625 17.42765625 -1.3315625 17.75765625 -2.3515625 18.09765625 C-2.3515625 17.10765625 -2.3515625 16.11765625 -2.3515625 15.09765625 Z " fill="#DEC177" transform="translate(100.3515625,75.90234375)"/>
<path d="M0 0 C2.97 0 5.94 0 9 0 C9 2.77996107 8.78702071 5.42492567 8.5 8.1875 C8.36078125 9.53908203 8.36078125 9.53908203 8.21875 10.91796875 C8.1465625 11.60503906 8.074375 12.29210937 8 13 C2.4994105 15.66695248 -2.42997651 15.69600211 -8.1875 13.8125 C-11.87187108 12.32444333 -13.81655599 10.36614285 -16 7 C-13.525 7.495 -13.525 7.495 -11 8 C-10.67 7.01 -10.34 6.02 -10 5 C-9.938125 5.61875 -9.87625 6.2375 -9.8125 6.875 C-9.18609988 9.19399088 -9.18609988 9.19399088 -6.875 10.1875 C-3.59815309 11.11356543 -0.37905283 11.60246437 3 12 C2.88637738 10.5199159 2.75877092 9.04089926 2.625 7.5625 C2.55539063 6.73878906 2.48578125 5.91507813 2.4140625 5.06640625 C2.27742188 4.38449219 2.14078125 3.70257813 2 3 C1.34 2.67 0.68 2.34 0 2 C0 1.34 0 0.68 0 0 Z " fill="#EEDA93" transform="translate(36,161)"/>
<path d="M0 0 C2 3 2 3 1.75 5.5625 C1 8 1 8 -1 10 C-2.32 10 -3.64 10 -5 10 C-5 9.34 -5 8.68 -5 8 C-4.34 8 -3.68 8 -3 8 C-3 7.01 -3 6.02 -3 5 C-5.47359354 5.95752008 -6.73064878 6.49496645 -8 8.875 C-8.22024993 11.17490435 -8.22024993 11.17490435 -6.3125 13.125 C-4.25041104 14.79696402 -2.42830755 15.95929677 0 17 C-1.98 17.99 -1.98 17.99 -4 19 C-10.87850467 14.81308411 -10.87850467 14.81308411 -12 11 C-12.60478752 6.93928377 -12.35805411 5.49910573 -9.9375 2.125 C-6.30776494 -0.50076579 -4.38803311 -0.66234462 0 0 Z " fill="#E9D78F" transform="translate(111,116)"/>
<path d="M0 0 C1.3921875 0.2784375 1.3921875 0.2784375 2.8125 0.5625 C6.01343771 1.24123881 6.01343771 1.24123881 9 0 C8.79375 0.61875 8.5875 1.2375 8.375 1.875 C8.25125 2.57625 8.1275 3.2775 8 4 C8.66 4.66 9.32 5.32 10 6 C8.515 8.475 8.515 8.475 7 11 C7.66 11.66 8.32 12.32 9 13 C8.67 13.66 8.34 14.32 8 15 C9.39092892 17.62387135 9.39092892 17.62387135 11 20 C8.22215463 18.93788265 5.58957226 17.79059809 2.9375 16.4375 C0.55344342 15.27083402 -1.41745801 14.49664269 -4 14 C-3 12 -3 12 0 10 C-0.2784375 8.9171875 -0.2784375 8.9171875 -0.5625 7.8125 C-1.01995307 4.87173027 -0.73516357 2.85896942 0 0 Z " fill="#DDBE73" transform="translate(108,91)"/>
<path d="M0 0 C1.2065625 0.0309375 1.2065625 0.0309375 2.4375 0.0625 C3.6875128 2.5625256 3.80142833 4.65522193 4.0625 7.4375 C4.15789062 8.39398438 4.25328125 9.35046875 4.3515625 10.3359375 C4.43071385 12.84719396 4.19227651 14.68551725 3.4375 17.0625 C-1.3125 16.1875 -1.3125 16.1875 -3.5625 15.0625 C-4.2225 15.7225 -4.8825 16.3825 -5.5625 17.0625 C-6.6875 14.25 -6.6875 14.25 -7.5625 11.0625 C-6.9025 10.0725 -6.2425 9.0825 -5.5625 8.0625 C-4.87994011 5.73376625 -4.21199225 3.40067209 -3.5625 1.0625 C-2.5625 0.0625 -2.5625 0.0625 0 0 Z " fill="#F8E08A" transform="translate(102.5625,76.9375)"/>
<path d="M0 0 C4.68950265 1.3398579 7.56325525 3.84164211 10 8 C11.64378999 12.33433304 12.24214508 15.81128779 11.3125 20.375 C9.27027027 24.45945946 9.27027027 24.45945946 7 26 C3.8125 26.6875 3.8125 26.6875 1 27 C1.41106221 24.1225645 1.8290522 23.15022686 4.0625 21.1875 C6.2822106 19.05800851 6.2822106 19.05800851 6.625 15.6875 C5.87620758 11.26962475 4.35012655 9.77900484 1.3359375 6.64453125 C0 5 0 5 -0.375 2.0625 C-0.25125 1.381875 -0.1275 0.70125 0 0 Z " fill="#C8A867" transform="translate(108,108)"/>
<path d="M0 0 C3.96 0 7.92 0 12 0 C12.12375 1.134375 12.2475 2.26875 12.375 3.4375 C12.58125 4.613125 12.7875 5.78875 13 7 C13.66 7.33 14.32 7.66 15 8 C14.01 8.66 13.02 9.32 12 10 C11.74984127 13.58357241 11.74984127 13.58357241 12 17 C10.02 17.99 10.02 17.99 8 19 C8.33 18.01 8.66 17.02 9 16 C8.61989404 13.40260925 8.17504225 11.35008451 7 9 C3.97065509 8.34227572 3.97065509 8.34227572 1 8 C1 6.35 1 4.7 1 3 C0.34 3 -0.32 3 -1 3 C-0.67 2.01 -0.34 1.02 0 0 Z " fill="#A9824E" transform="translate(114,67)"/>
<path d="M0 0 C3.63 0 7.26 0 11 0 C11 0.66 11 1.32 11 2 C10.01 2.495 10.01 2.495 9 3 C8.67 9.6 8.34 16.2 8 23 C6.68 23 5.36 23 4 23 C2.88176185 20.76352369 2.80603939 19.35108471 2.68359375 16.8671875 C2.64169922 16.06152344 2.59980469 15.25585938 2.55664062 14.42578125 C2.51732422 13.58402344 2.47800781 12.74226562 2.4375 11.875 C2.39431641 11.02550781 2.35113281 10.17601562 2.30664062 9.30078125 C2.20045764 7.20071777 2.09971503 5.10038052 2 3 C1.34 2.67 0.68 2.34 0 2 C0 1.34 0 0.68 0 0 Z " fill="#C1A062" transform="translate(100,148)"/>
<path d="M0 0 C1.65 0 3.3 0 5 0 C5.01458252 0.56509277 5.02916504 1.13018555 5.04418945 1.71240234 C5.11856058 4.26730019 5.21525242 6.82087498 5.3125 9.375 C5.33505859 10.26445312 5.35761719 11.15390625 5.38085938 12.0703125 C5.41630859 12.92109375 5.45175781 13.771875 5.48828125 14.6484375 C5.51446533 15.43395996 5.54064941 16.21948242 5.56762695 17.02880859 C5.84889597 19.40040156 5.84889597 19.40040156 9 21 C5.37 21.33 1.74 21.66 -2 22 C-2.33 21.34 -2.66 20.68 -3 20 C-2.34 20 -1.68 20 -1 20 C-0.67 13.4 -0.34 6.8 0 0 Z " fill="#D0AD6F" transform="translate(82,154)"/>
<path d="M0 0 C1.65 0.33 3.3 0.66 5 1 C4.67 5.29 4.34 9.58 4 14 C4.99 14 5.98 14 7 14 C8.125 20.75 8.125 20.75 7 23 C7.66 23.33 8.32 23.66 9 24 C4.71 24 0.42 24 -4 24 C-4 22.35 -4 20.7 -4 19 C-4.33 19.66 -4.66 20.32 -5 21 C-5.66 21 -6.32 21 -7 21 C-6.67 19.02 -6.34 17.04 -6 15 C-5.01 15.33 -4.02 15.66 -3 16 C-2.67 18.31 -2.34 20.62 -2 23 C-1.34 23 -0.68 23 0 23 C2.17015168 16.08264152 2.69673389 9.23373712 2 2 C1.34 1.34 0.68 0.68 0 0 Z " fill="#C7A35E" transform="translate(119,42)"/>
<path d="M0 0 C2.9777759 2.49996659 3.94548483 5.04711071 5.1875 8.6875 C5.53167969 9.68136719 5.87585938 10.67523438 6.23046875 11.69921875 C6.48441406 12.45847656 6.73835937 13.21773437 7 14 C1.25 14.125 1.25 14.125 -1 13 C-2.65 14.65 -4.3 16.3 -6 18 C-6.33 17.34 -6.66 16.68 -7 16 C-6.11588959 13.42085672 -5.1740129 10.94813753 -4.125 8.4375 C-3.84269531 7.73947266 -3.56039062 7.04144531 -3.26953125 6.32226562 C-1.1541718 1.1541718 -1.1541718 1.1541718 0 0 Z " fill="#E0C689" transform="translate(163,147)"/>
<path d="M0 0 C2.64 0 5.28 0 8 0 C9.20568053 4.67201205 9.09382426 9.21496292 9 14 C6.69 14 4.38 14 2 14 C1.93941406 13.40832031 1.87882812 12.81664062 1.81640625 12.20703125 C1.37987629 8.09021792 0.91328654 4.04455467 0 0 Z " fill="#E0C477" transform="translate(101,42)"/>
<path d="M0 0 C0.103125 1.093125 0.20625 2.18625 0.3125 3.3125 C1.03823695 7.2050891 1.37366323 7.48309393 4 10 C4.90989402 13.21962499 5.15177365 15.36255066 4.375 18.625 C2.63230267 21.63511357 0.9768733 23.2000301 -2 25 C-4.77287249 24.80654378 -6.53085554 24.23457223 -9 23 C-8.67 22.34 -8.34 21.68 -8 21 C-7.01 21.33 -6.02 21.66 -5 22 C-2.78508786 21.5596445 -2.78508786 21.5596445 -1 20 C0 17.08333333 0 17.08333333 0 14 C-0.66 13.01 -1.32 12.02 -2 11 C-2.4140625 8.51953125 -2.4140625 8.51953125 -2.625 5.8125 C-2.69976562 4.91144531 -2.77453125 4.01039062 -2.8515625 3.08203125 C-2.92503906 2.05142578 -2.92503906 2.05142578 -3 1 C-1 0 -1 0 0 0 Z " fill="#E0C58B" transform="translate(141,76)"/>
<path d="M0 0 C2.475 0.495 2.475 0.495 5 1 C5.33 2.65 5.66 4.3 6 6 C6.66 6 7.32 6 8 6 C8.33 4.35 8.66 2.7 9 1 C9.99 0.67 10.98 0.34 12 0 C12.28883414 4.06534057 11.57875609 6.33058355 9.5 9.8125 C9.0359375 10.60269531 8.571875 11.39289063 8.09375 12.20703125 C7.7328125 12.79871094 7.371875 13.39039063 7 14 C4 13 4 13 2.83203125 11.328125 C-0.55343511 4.42748092 -0.55343511 4.42748092 0 0 Z " fill="#DDBD81" transform="translate(183,161)"/>
<path d="M0 0 C4.95 0 9.9 0 15 0 C14.67 0.99 14.34 1.98 14 3 C13.01 3 12.02 3 11 3 C11 4.65 11 6.3 11 8 C7.7 8 4.4 8 1 8 C0.67 5.36 0.34 2.72 0 0 Z " fill="#E1CB8A" transform="translate(99,67)"/>
<path d="M0 0 C0.99 0.33 1.98 0.66 3 1 C3.33 2.65 3.66 4.3 4 6 C4.66 6 5.32 6 6 6 C6.33 4.35 6.66 2.7 7 1 C7.99 0.67 8.98 0.34 10 0 C10.13277344 0.62648437 10.26554688 1.25296875 10.40234375 1.8984375 C10.57894531 2.71570313 10.75554687 3.53296875 10.9375 4.375 C11.11152344 5.18710938 11.28554687 5.99921875 11.46484375 6.8359375 C11.92330693 9.029463 11.92330693 9.029463 13 11 C10.13275314 10.42655063 9.1385485 10.1385485 7 8 C6.01 8.99 5.02 9.98 4 11 C3.34 9.68 2.68 8.36 2 7 C2 8.32 2 9.64 2 11 C0.68 11 -0.64 11 -2 11 C-1.34 7.37 -0.68 3.74 0 0 Z " fill="#CFB882" transform="translate(121,181)"/>
<path d="M0 0 C0.8125 1.625 0.8125 1.625 1 4 C-0.5954349 6.05727132 -2.26526288 8.05874656 -4 10 C-4.33 10.99 -4.66 11.98 -5 13 C-8.5625 14.6875 -8.5625 14.6875 -12 16 C-12.66 15.01 -13.32 14.02 -14 13 C-13.01 12.34 -12.02 11.68 -11 11 C-13.97 10.505 -13.97 10.505 -17 10 C-16.34 9.67 -15.68 9.34 -15 9 C-15.33 8.01 -15.66 7.02 -16 6 C-15.11248047 6.05220703 -15.11248047 6.05220703 -14.20703125 6.10546875 C-9.27876563 6.27430004 -5.98345584 6.25919114 -2 3 C-1.34 2.01 -0.68 1.02 0 0 Z " fill="#E3CE99" transform="translate(152,100)"/>
<path d="M0 0 C3.93748458 -0.02898816 7.87494179 -0.04679464 11.8125 -0.0625 C12.93205078 -0.07087891 14.05160156 -0.07925781 15.20507812 -0.08789062 C16.81479492 -0.09272461 16.81479492 -0.09272461 18.45703125 -0.09765625 C19.9416687 -0.10551147 19.9416687 -0.10551147 21.45629883 -0.11352539 C24 0 24 0 27 1 C27 2.32 27 3.64 27 5 C26.46375 4.67 25.9275 4.34 25.375 4 C21.40328905 2.32770065 18.02922547 2.65692484 14 4 C11.99124558 3.72428861 9.98821313 3.39764263 8 3 C7.67 3.99 7.34 4.98 7 6 C6.01 6 5.02 6 4 6 C3.67 4.68 3.34 3.36 3 2 C2.01 2 1.02 2 0 2 C0 1.34 0 0.68 0 0 Z " fill="#BE9A62" transform="translate(118,148)"/>
<path d="M0 0 C1.890625 0.21484375 1.890625 0.21484375 4 1 C5.046875 3.06640625 5.046875 3.06640625 5.75 5.5625 C5.99234375 6.38878906 6.2346875 7.21507812 6.484375 8.06640625 C6.65453125 8.70449219 6.8246875 9.34257812 7 10 C5.35 10.33 3.7 10.66 2 11 C1.34 9.68 0.68 8.36 0 7 C-5.08303686 6.88679144 -5.08303686 6.88679144 -10 8 C-9.42655063 5.13275314 -9.1385485 4.1385485 -7 2 C-5.02 2.66 -3.04 3.32 -1 4 C-0.67 2.68 -0.34 1.36 0 0 Z " fill="#CBA66B" transform="translate(166,160)"/>
<path d="M0 0 C1.65 0 3.3 0 5 0 C5 2.31 5 4.62 5 7 C3.68 7 2.36 7 1 7 C1.25561323 9.3431213 1.59270772 11.67843403 2 14 C2.66 14.33 3.32 14.66 4 15 C4.33 14.01 4.66 13.02 5 12 C5 14.31 5 16.62 5 19 C5.99 19.33 6.98 19.66 8 20 C4.37 20 0.74 20 -3 20 C-2.34 19.67 -1.68 19.34 -1 19 C-0.67 12.73 -0.34 6.46 0 0 Z " fill="#D8B87B" transform="translate(131,155)"/>
<path d="M0 0 C2.69082872 0.17635452 5.32851446 0.61835921 8 1 C8.12375 1.639375 8.2475 2.27875 8.375 2.9375 C8.58125 3.618125 8.7875 4.29875 9 5 C9.66 5.33 10.32 5.66 11 6 C10 8 10 8 8 9 C6.45976004 9.06950541 4.91665012 9.08452357 3.375 9.0625 C2.14910156 9.04896484 2.14910156 9.04896484 0.8984375 9.03515625 C-0.04128906 9.01775391 -0.04128906 9.01775391 -1 9 C-1.09765625 2.84765625 -1.09765625 2.84765625 -1 1 C-0.67 0.67 -0.34 0.34 0 0 Z " fill="#E4C97D" transform="translate(103,57)"/>
<path d="M0 0 C0.68900391 0.00064453 1.37800781 0.00128906 2.08789062 0.00195312 C7.17194475 0.04694475 7.17194475 0.04694475 8.3125 1.1875 C8.35342937 3.52047433 8.35491723 5.85455225 8.3125 8.1875 C7.6525 8.1875 6.9925 8.1875 6.3125 8.1875 C5.9825 7.1975 5.6525 6.2075 5.3125 5.1875 C2.04374705 2.88726644 -0.77561714 2.7361289 -4.6875 3.1875 C-7.46201463 4.33937431 -10.07736162 5.70356346 -12.6875 7.1875 C-12.4375 4.8125 -12.4375 4.8125 -11.6875 2.1875 C-8.14674208 -0.41729697 -4.20572658 -0.07603121 0 0 Z " fill="#BE9D62" transform="translate(35.6875,147.8125)"/>
<path d="M0 0 C2.58926331 2.58926331 2.37398043 4.02705279 2.625 7.625 C2.69976562 8.62789062 2.77453125 9.63078125 2.8515625 10.6640625 C2.92503906 11.82035156 2.92503906 11.82035156 3 13 C1.81857422 12.95359375 1.81857422 12.95359375 0.61328125 12.90625 C-2.05610445 12.73618861 -2.05610445 12.73618861 -3.8125 14.5 C-4.204375 14.995 -4.59625 15.49 -5 16 C-5 15.34 -5 14.68 -5 14 C-5.66 13.67 -6.32 13.34 -7 13 C-6.02325896 11.01963514 -5.04354018 9.04073867 -4.0625 7.0625 C-3.51722656 5.96035156 -2.97195312 4.85820312 -2.41015625 3.72265625 C-1 1 -1 1 0 0 Z " fill="#E7CE8B" transform="translate(200,147)"/>
<path d="M0 0 C3 0 3 0 5.1875 2 C5.785625 2.66 6.38375 3.32 7 4 C7 2.68 7 1.36 7 0 C8.32 0.33 9.64 0.66 11 1 C10.67 4.3 10.34 7.6 10 11 C7.96166576 9.7260411 5.96147874 8.38938077 4 7 C4 6.34 4 5.68 4 5 C3.34 5 2.68 5 2 5 C2.33 6.98 2.66 8.96 3 11 C1.68 11 0.36 11 -1 11 C-0.67 7.37 -0.34 3.74 0 0 Z " fill="#D1BA85" transform="translate(87,181)"/>
<path d="M0 0 C0.33 0 0.66 0 1 0 C1.16435547 1.24716797 1.16435547 1.24716797 1.33203125 2.51953125 C1.56986328 4.14955078 1.56986328 4.14955078 1.8125 5.8125 C1.96332031 6.89144531 2.11414063 7.97039063 2.26953125 9.08203125 C3.01612403 12.06440991 3.62075684 13.14223479 6 15 C5.34 15 4.68 15 4 15 C4 16.65 4 18.3 4 20 C3.34 20 2.68 20 2 20 C2 20.66 2 21.32 2 22 C1.34 22 0.68 22 0 22 C-0.103125 20.88625 -0.20625 19.7725 -0.3125 18.625 C-0.539375 17.42875 -0.76625 16.2325 -1 15 C-1.99 14.34 -2.98 13.68 -4 13 C-3.67 12.01 -3.34 11.02 -3 10 C-2.34 9.67 -1.68 9.34 -1 9 C-1.020625 7.700625 -1.04125 6.40125 -1.0625 5.0625 C-1.08399454 3.70834367 -1.07148199 2.35243917 -1 1 C-0.67 0.67 -0.34 0.34 0 0 Z " fill="#AF8347" transform="translate(117,43)"/>
<path d="M0 0 C2.475 0.495 2.475 0.495 5 1 C2.11072171 5.22279135 0.07003429 7.04338976 -5 8 C-10.32907267 7.99058468 -14.67989267 7.34459923 -19 4 C-19 3.67 -19 3.34 -19 3 C-16.1875 2.375 -16.1875 2.375 -13 2 C-12.01 2.66 -11.02 3.32 -10 4 C-6.5 4.5 -6.5 4.5 -3 4 C-1.01760473 2.13875077 -1.01760473 2.13875077 0 0 Z " fill="#EFD99D" transform="translate(71,168)"/>
<path d="M0 0 C2.3125 0 2.3125 0 5 1 C7.02127487 4.52143981 8 7.95264611 8 12 C5.6875 12.3125 5.6875 12.3125 3 12 C-0.32472595 8.21669117 -0.28730852 4.88424492 0 0 Z " fill="#C9A768" transform="translate(49,159)"/>
<path d="M0 0 C0.66 0.33 1.32 0.66 2 1 C2 5.33333333 2 9.66666667 2 14 C1.01 14.33 0.02 14.66 -1 15 C-1.66 15.66 -2.32 16.32 -3 17 C-4.125 14.1875 -4.125 14.1875 -5 11 C-4.34 10.01 -3.68 9.02 -3 8 C-2.31744011 5.67126625 -1.64949225 3.33817209 -1 1 C-0.67 0.67 -0.34 0.34 0 0 Z " fill="#EBD280" transform="translate(100,77)"/>
<path d="M0 0 C4.29 0.99 8.58 1.98 13 3 C12.67 4.32 12.34 5.64 12 7 C6.25610776 7.34463353 1.95481327 7.34449896 -3 4 C-3.33 3.01 -3.66 2.02 -4 1 C-2.68 1.33 -1.36 1.66 0 2 C0 1.34 0 0.68 0 0 Z " fill="#B2905E" transform="translate(79,103)"/>
<path d="M0 0 C0.99 0.33 1.98 0.66 3 1 C3 3.97 3 6.94 3 10 C-2.75 10.125 -2.75 10.125 -5 9 C-5 6.69 -5 4.38 -5 2 C-3.35 2 -1.7 2 0 2 C0 1.34 0 0.68 0 0 Z " fill="#F2DA93" transform="translate(131,56)"/>
<path d="M0 0 C3.96 0 7.92 0 12 0 C12.12375 1.134375 12.2475 2.26875 12.375 3.4375 C12.58125 4.613125 12.7875 5.78875 13 7 C13.66 7.33 14.32 7.66 15 8 C12.6568787 7.74438677 10.32156597 7.40729228 8 7 C7.67 6.34 7.34 5.68 7 5 C7.33 4.01 7.66 3.02 8 2 C6.68 1.67 5.36 1.34 4 1 C3.67 2.98 3.34 4.96 3 7 C2.34 7 1.68 7 1 7 C1 5.68 1 4.36 1 3 C0.34 3 -0.32 3 -1 3 C-0.67 2.01 -0.34 1.02 0 0 Z " fill="#B48D55" transform="translate(114,67)"/>
<path d="M0 0 C0.28875 0.61875 0.5775 1.2375 0.875 1.875 C1.93720042 4.13325765 1.93720042 4.13325765 4 6 C7.53318313 6.23042499 10.61401171 6.04184255 14 5 C13.265625 6.94140625 13.265625 6.94140625 12 9 C7.57684 10.61887656 3.74058884 10.29883409 -0.5625 8.5625 C-1.366875 8.046875 -2.17125 7.53125 -3 7 C-3 6.01 -3 5.02 -3 4 C-2.34 4 -1.68 4 -1 4 C-0.67 2.68 -0.34 1.36 0 0 Z " fill="#F0D99C" transform="translate(108,166)"/>
<path d="M0 0 C1.32 0.33 2.64 0.66 4 1 C4 2.98 4 4.96 4 7 C3.01 6.67 2.02 6.34 1 6 C1 5.34 1 4.68 1 4 C0.34 4 -0.32 4 -1 4 C-0.75368443 8.05085679 -0.75368443 8.05085679 0 12 C1.92064793 13.5899433 1.92064793 13.5899433 4 14 C-2.52307692 13.38461538 -2.52307692 13.38461538 -4.9375 11.4375 C-5.4634375 10.7259375 -5.4634375 10.7259375 -6 10 C-5.67 9.01 -5.34 8.02 -5 7 C-4.67 7.66 -4.34 8.32 -4 9 C-3.34 7.02 -2.68 5.04 -2 3 C-1.34 3 -0.68 3 0 3 C0 2.01 0 1.02 0 0 Z " fill="#C19C66" transform="translate(132,87)"/>
<path d="M0 0 C0.66 0 1.32 0 2 0 C2.99 2.97 3.98 5.94 5 9 C5.66 9 6.32 9 7 9 C7 9.66 7 10.32 7 11 C5.68 11 4.36 11 3 11 C2.67 9.68 2.34 8.36 2 7 C1.01 7 0.02 7 -1 7 C-1 8.32 -1 9.64 -1 11 C-2.32 11 -3.64 11 -5 11 C-3.55049545 7.2089881 -1.84827434 3.6125362 0 0 Z M0 4 C1 6 1 6 1 6 Z " fill="#D1BA81" transform="translate(143,181)"/>
<path d="M0 0 C2.97 0 5.94 0 9 0 C9 3.41099168 8.50854594 6.63088314 8 10 C7.01 10.33 6.02 10.66 5 11 C4.34 10.67 3.68 10.34 3 10 C2.66666667 7.66666667 2.33333333 5.33333333 2 3 C1.34 2.67 0.68 2.34 0 2 C0 1.34 0 0.68 0 0 Z " fill="#BC9F63" transform="translate(36,161)"/>
<path d="M0 0 C2 2 2 2 2.375 4.8125 C1.90647335 8.7949765 0.93704498 10.29482699 -2 13 C-5.25 13.8125 -5.25 13.8125 -8 14 C-8 13.34 -8 12.68 -8 12 C-6.68 11.67 -5.36 11.34 -4 11 C-4 8.03 -4 5.06 -4 2 C-2.68 2.33 -1.36 2.66 0 3 C0 2.01 0 1.02 0 0 Z " fill="#DBBF81" transform="translate(96,150)"/>
<path d="M0 0 C0.99 0.33 1.98 0.66 3 1 C3 3.64 3 6.28 3 9 C1.23050905 9.10815225 -0.54087487 9.18566083 -2.3125 9.25 C-3.29863281 9.29640625 -4.28476563 9.3428125 -5.30078125 9.390625 C-8 9 -8 9 -9.85546875 6.984375 C-10.42201172 6.00210938 -10.42201172 6.00210938 -11 5 C-8.75 4.3125 -8.75 4.3125 -6 4 C-3.6875 5.4375 -3.6875 5.4375 -2 7 C-1.34 4.69 -0.68 2.38 0 0 Z " fill="#E6CC8D" transform="translate(155,166)"/>
<path d="M0 0 C2.64 0 5.28 0 8 0 C8 0.66 8 1.32 8 2 C6.68 1.67 5.36 1.34 4 1 C4 1.99 4 2.98 4 4 C4.99 4 5.98 4 7 4 C6.67 4.99 6.34 5.98 6 7 C5.34 6.67 4.68 6.34 4 6 C4 6.99 4 7.98 4 9 C5.32 8.67 6.64 8.34 8 8 C8 8.99 8 9.98 8 11 C5.69 11 3.38 11 1 11 C0.67 7.37 0.34 3.74 0 0 Z " fill="#D2B887" transform="translate(105,181)"/>
<path d="M0 0 C0.66 0.33 1.32 0.66 2 1 C2 1.66 2 2.32 2 3 C1.071875 3.8971875 1.071875 3.8971875 0.125 4.8125 C-2.121484 7.12505706 -2.9906634 8.97199019 -4 12 C-5.65 11.67 -7.3 11.34 -9 11 C-7.79645581 6.58700462 -6.56751319 3.91887443 -3 1 C-2.01 0.67 -1.02 0.34 0 0 Z " fill="#CDAD74" transform="translate(58,148)"/>
<path d="M0 0 C-0.33 0.99 -0.66 1.98 -1 3 C-2.65 2.67 -4.3 2.34 -6 2 C-6 3.65 -6 5.3 -6 7 C-3.92446352 7.5534764 -2.15634036 8 0 8 C-0.33 8.99 -0.66 9.98 -1 11 C-7.75 10.25 -7.75 10.25 -10 8 C-10.4375 5.0625 -10.4375 5.0625 -10 2 C-6.55956398 -1.04724333 -4.32846371 -1.36037431 0 0 Z " fill="#CAB17D" transform="translate(68,181)"/>
<path d="M0 0 C2.475 0.99 2.475 0.99 5 2 C6 8.875 6 8.875 6 10 C6.66 10.33 7.32 10.66 8 11 C7.67 11.66 7.34 12.32 7 13 C5.35 12.67 3.7 12.34 2 12 C2 11.01 2 10.02 2 9 C1.34 9 0.68 9 0 9 C0 8.34 0 7.68 0 7 C0.66 6.67 1.32 6.34 2 6 C1.01 5.01 0.02 4.02 -1 3 C-0.67 2.01 -0.34 1.02 0 0 Z " fill="#F3DC88" transform="translate(100,95)"/>
<path d="M0 0 C1.98 0 3.96 0 6 0 C5.67 0.99 5.34 1.98 5 3 C4.01 2.34 3.02 1.68 2 1 C3.0209375 1.8353125 3.0209375 1.8353125 4.0625 2.6875 C6 5 6 5 5.8125 7.6875 C5 10 5 10 4 11 C2.33382885 11.04063832 0.66611905 11.042721 -1 11 C-0.67 10.01 -0.34 9.02 0 8 C0.99 8.33 1.98 8.66 3 9 C2.319375 8.2575 1.63875 7.515 0.9375 6.75 C-1 4 -1 4 -0.75 1.6875 C-0.5025 1.130625 -0.255 0.57375 0 0 Z " fill="#CFB88A" transform="translate(156,181)"/>
<path d="M0 0 C0.99 0.33 1.98 0.66 3 1 C3.33 3.31 3.66 5.62 4 8 C4.66 8 5.32 8 6 8 C6.66 5.69 7.32 3.38 8 1 C8.99 1.33 9.98 1.66 11 2 C10.979375 2.78375 10.95875 3.5675 10.9375 4.375 C10.81315937 6.98114961 10.81315937 6.98114961 12 9 C8.7 9 5.4 9 2 9 C2 7.35 2 5.7 2 4 C1.67 4.66 1.34 5.32 1 6 C0.34 6 -0.32 6 -1 6 C-0.67 4.02 -0.34 2.04 0 0 Z " fill="#BC965A" transform="translate(113,57)"/>
<path d="M0 0 C5.94 0.99 5.94 0.99 12 2 C12 3.33333333 12 4.66666667 12 6 C9.87527424 6.05386629 7.75016348 6.09273071 5.625 6.125 C3.84996094 6.15980469 3.84996094 6.15980469 2.0390625 6.1953125 C-1 6 -1 6 -3 4 C-1.35 4 0.3 4 2 4 C2 3.34 2 2.68 2 2 C1.34 2 0.68 2 0 2 C0 1.34 0 0.68 0 0 Z " fill="#C19E5C" transform="translate(128,110)"/>
<path d="M0 0 C2.64 0 5.28 0 8 0 C8.04254356 1.99954746 8.04080783 4.00041636 8 6 C7 7 7 7 4.4375 7.0625 C3.2309375 7.0315625 3.2309375 7.0315625 2 7 C0 1.125 0 1.125 0 0 Z " fill="#F2DB8C" transform="translate(130,67)"/>
<path d="M0 0 C1.32 0.33 2.64 0.66 4 1 C4 5.29 4 9.58 4 14 C2.68 14 1.36 14 0 14 C0 9.38 0 4.76 0 0 Z " fill="#F4DB8A" transform="translate(106,42)"/>
<path d="M0 0 C2.64 0 5.28 0 8 0 C7.3503125 0.61875 7.3503125 0.61875 6.6875 1.25 C2.93945717 5.00024341 2.93945717 5.00024341 2 10 C2.66 10.33 3.32 10.66 4 11 C3.67 11.99 3.34 12.98 3 14 C1.68 14.33 0.36 14.66 -1 15 C-0.67 10.05 -0.34 5.1 0 0 Z " fill="#C19E61" transform="translate(84,76)"/>
<path d="M0 0 C0.33 0 0.66 0 1 0 C1 3.3 1 6.6 1 10 C1.66 10 2.32 10 3 10 C3 12.31 3 14.62 3 17 C1.68 17 0.36 17 -1 17 C-1.02684679 14.35409986 -1.04676357 11.70846904 -1.0625 9.0625 C-1.07087891 8.30775391 -1.07925781 7.55300781 -1.08789062 6.77539062 C-1.09652441 4.85005687 -1.05224333 2.92464419 -1 1 C-0.67 0.67 -0.34 0.34 0 0 Z " fill="#F1D998" transform="translate(128,39)"/>
<path d="M0 0 C-0.20625 0.61875 -0.4125 1.2375 -0.625 1.875 C-0.74875 2.57625 -0.8725 3.2775 -1 4 C-0.34 4.66 0.32 5.32 1 6 C0.34 7.32 -0.32 8.64 -1 10 C-2.875 9.8125 -2.875 9.8125 -5 9 C-6.3125 6.5625 -6.3125 6.5625 -7 4 C-5.53303752 1.06607504 -3.25996861 0 0 0 Z " fill="#CEAE66" transform="translate(117,91)"/>
<path d="M0 0 C2.475 0.495 2.475 0.495 5 1 C5 3.97 5 6.94 5 10 C3.68 10 2.36 10 1 10 C-0.60725635 6.78548731 -0.05748185 3.56387464 0 0 Z " fill="#CCAA71" transform="translate(103,161)"/>
<path d="M0 0 C0 0.99 0 1.98 0 3 C0.66 3.33 1.32 3.66 2 4 C-1.96 4 -5.92 4 -10 4 C-10.33 2.68 -10.66 1.36 -11 0 C-7.18243176 -1.37432457 -3.92744671 -0.67975039 0 0 Z " fill="#EAD59F" transform="translate(179,171)"/>
<path d="M0 0 C2.475 0.495 2.475 0.495 5 1 C5.33 2.65 5.66 4.3 6 6 C7.98 6 9.96 6 12 6 C12 6.66 12 7.32 12 8 C7.99799622 9.60080151 4.95443764 8.29279692 1 7 C0.67 4.69 0.34 2.38 0 0 Z " fill="#DEC575" transform="translate(126,67)"/>
<path d="M0 0 C1.32 0 2.64 0 4 0 C5.35439668 2.70879335 5.06501451 5.00933268 5 8 C3.02 8 1.04 8 -1 8 C-1.04241723 5.66705225 -1.04092937 3.33297433 -1 1 C-0.67 0.67 -0.34 0.34 0 0 Z " fill="#C8AA6A" transform="translate(95,67)"/>
<path d="M0 0 C1.2065625 0.0309375 1.2065625 0.0309375 2.4375 0.0625 C2.1875 3.4375 2.1875 3.4375 1.4375 7.0625 C-0.625 8.5 -0.625 8.5 -2.5625 9.0625 C-3.5625 8.0625 -3.5625 8.0625 -3.6875 4.5625 C-3.52762642 0.08603967 -3.52762642 0.08603967 0 0 Z " fill="#C09F5D" transform="translate(75.5625,160.9375)"/>
<path d="M0 0 C3.375 -0.1875 3.375 -0.1875 7 0 C9 3 9 3 8.75 5.5625 C8 8 8 8 6 10 C4.68 10 3.36 10 2 10 C2 9.34 2 8.68 2 8 C2.66 8 3.32 8 4 8 C4 6.68 4 5.36 4 4 C4.33 3.01 4.66 2.02 5 1 C3.35 1 1.7 1 0 1 C0 0.67 0 0.34 0 0 Z " fill="#D7BF7D" transform="translate(104,116)"/>
<path d="M0 0 C1.65 0.33 3.3 0.66 5 1 C5 2.98 5 4.96 5 7 C5.66 7.33 6.32 7.66 7 8 C2.545 9.485 2.545 9.485 -2 11 C-2.33 10.34 -2.66 9.68 -3 9 C-2.34 9 -1.68 9 -1 9 C-1 8.34 -1 7.68 -1 7 C0.32 6.67 1.64 6.34 3 6 C2.65555119 3.52733235 2.65555119 3.52733235 2 1 C1.34 0.67 0.68 0.34 0 0 Z " fill="#D6BC7F" transform="translate(93,99)"/>
<path d="M0 0 C0.66 0.33 1.32 0.66 2 1 C3.32 1 4.64 1 6 1 C10 1 10 1 12 2 C12 2.99 12 3.98 12 5 C10.86111328 4.98259766 10.86111328 4.98259766 9.69921875 4.96484375 C8.70535156 4.95582031 7.71148437 4.94679687 6.6875 4.9375 C5.70136719 4.92589844 4.71523437 4.91429687 3.69921875 4.90234375 C0.90036151 4.87670138 0.90036151 4.87670138 -2 6 C-1.49396008 3.83125748 -1.00016187 2.00032373 0 0 Z " fill="#BF9954" transform="translate(158,162)"/>
<path d="M0 0 C1.65 0 3.3 0 5 0 C5 2.64 5 5.28 5 8 C3.35 8 1.7 8 0 8 C0 5.36 0 2.72 0 0 Z " fill="#E0C680" transform="translate(82,154)"/>
<path d="M0 0 C-0.185625 0.598125 -0.37125 1.19625 -0.5625 1.8125 C-1.22093687 4.16408762 -1.22093687 4.16408762 0 7 C-0.33 7.66 -0.66 8.32 -1 9 C-2.98 8.34 -4.96 7.68 -7 7 C-6.34 5.02 -5.68 3.04 -5 1 C-5.66 0.67 -6.32 0.34 -7 0 C-3.98968256 -0.93423645 -3.13349732 -1.04449911 0 0 Z " fill="#D1AF6E" transform="translate(140,77)"/>
<path d="M0 0 C2.97 0.495 2.97 0.495 6 1 C6.33 1.99 6.66 2.98 7 4 C7.66 4 8.32 4 9 4 C9 4.66 9 5.32 9 6 C6.69 6 4.38 6 2 6 C2 5.34 2 4.68 2 4 C1.01 3.67 0.02 3.34 -1 3 C-0.67 2.01 -0.34 1.02 0 0 Z " fill="#B68D51" transform="translate(121,108)"/>
<path d="M0 0 C0.598125 0.226875 1.19625 0.45375 1.8125 0.6875 C1.4825 1.6775 1.1525 2.6675 0.8125 3.6875 C0.1525 3.6875 -0.5075 3.6875 -1.1875 3.6875 C-1.1875 5.6675 -1.1875 7.6475 -1.1875 9.6875 C-2.5075 9.3575 -3.8275 9.0275 -5.1875 8.6875 C-5.55003776 3.24943353 -5.55003776 3.24943353 -3.9375 0.75 C-2.1875 -0.3125 -2.1875 -0.3125 0 0 Z " fill="#BC9256" transform="translate(131.1875,86.3125)"/>
<path d="M0 0 C1.65 0 3.3 0 5 0 C4.67 1.32 4.34 2.64 4 4 C0.32589215 5.17571451 -3.16929183 5.07366746 -7 5 C-7 4.01 -7 3.02 -7 2 C-4.69 2 -2.38 2 0 2 C0 1.34 0 0.68 0 0 Z " fill="#EFD798" transform="translate(39,171)"/>
<path d="M0 0 C0 2.97 0 5.94 0 9 C-1.65 8.67 -3.3 8.34 -5 8 C-5 5.69 -5 3.38 -5 1 C-1.125 0 -1.125 0 0 0 Z " fill="#E3CA84" transform="translate(108,153)"/>
<path d="M0 0 C4.67692308 1.47692308 4.67692308 1.47692308 6.3125 4.125 C6.539375 4.74375 6.76625 5.3625 7 6 C6.34 6 5.68 6 5 6 C5.33 7.32 5.66 8.64 6 10 C1.77202073 6.91709845 1.77202073 6.91709845 0 5 C-0.375 2.1875 -0.375 2.1875 0 0 Z " fill="#D5B979" transform="translate(108,108)"/>
<path d="M0 0 C2.97 0.495 2.97 0.495 6 1 C6.33 1.99 6.66 2.98 7 4 C6.01 4.33 5.02 4.66 4 5 C3.67 5.99 3.34 6.98 3 8 C3.66 8.33 4.32 8.66 5 9 C2.83125748 8.49396008 1.00032373 8.00016187 -1 7 C-0.67 4.69 -0.34 2.38 0 0 Z " fill="#AD894C" transform="translate(76,97)"/>
<path d="M0 0 C0.66 0 1.32 0 2 0 C2.13277344 0.62648437 2.26554688 1.25296875 2.40234375 1.8984375 C2.57894531 2.71570313 2.75554687 3.53296875 2.9375 4.375 C3.19853516 5.59316406 3.19853516 5.59316406 3.46484375 6.8359375 C3.92330693 9.029463 3.92330693 9.029463 5 11 C3.68 10.67 2.36 10.34 1 10 C0.67 8.68 0.34 7.36 0 6 C-0.66 6 -1.32 6 -2 6 C-1.125 1.125 -1.125 1.125 0 0 Z " fill="#D9BC86" transform="translate(129,181)"/>
<path d="M0 0 C1.5 1.1875 1.5 1.1875 3 3 C3.1875 5.6875 3.1875 5.6875 3 8 C1.02 8.99 1.02 8.99 -1 10 C-2.25 3.375 -2.25 3.375 0 0 Z " fill="#D9B773" transform="translate(163,147)"/>
<path d="M0 0 C2 2 2 2 2.1875 5.0625 C2 8 2 8 1 9 C-0.66617115 9.04063832 -2.33388095 9.042721 -4 9 C-2.25 2.25 -2.25 2.25 0 0 Z " fill="#D8BA7A" transform="translate(200,147)"/>
<path d="M0 0 C2.475 0.495 2.475 0.495 5 1 C5.33 3.31 5.66 5.62 6 8 C5.01 8 4.02 8 3 8 C3 7.34 3 6.68 3 6 C2.01 5.67 1.02 5.34 0 5 C0 3.35 0 1.7 0 0 Z " fill="#C1985A" transform="translate(183,161)"/>
<path d="M0 0 C0.33 0.66 0.66 1.32 1 2 C1.99 2 2.98 2 4 2 C4 4.64 4 7.28 4 10 C2.68 10 1.36 10 0 10 C0 6.7 0 3.4 0 0 Z " fill="#E1C68A" transform="translate(121,152)"/>
<path d="M0 0 C1.98 0.66 3.96 1.32 6 2 C5.67 2.99 5.34 3.98 5 5 C6.37249963 7.67676547 6.37249963 7.67676547 8 10 C3.61740632 8.66087415 1.45906075 6.87774964 -1 3 C-0.67 2.01 -0.34 1.02 0 0 Z " fill="#CCAC6A" transform="translate(111,101)"/>
<path d="M0 0 C0.66 0.33 1.32 0.66 2 1 C2 3.64 2 6.28 2 9 C1.01 9.33 0.02 9.66 -1 10 C-3 7 -3 7 -2.75 3.875 C-2.37875 2.451875 -2.37875 2.451875 -2 1 C-1.34 0.67 -0.68 0.34 0 0 Z " fill="#AC884F" transform="translate(96,48)"/>
<path d="M0 0 C2 3 2 3 2 7 C0.02 7.33 -1.96 7.66 -4 8 C-4 6.02 -4 4.04 -4 2 C-3.34 1.67 -2.68 1.34 -2 1 C-1.34 1.33 -0.68 1.66 0 2 C0 1.34 0 0.68 0 0 Z " fill="#E8CE8A" transform="translate(76,154)"/>
<path d="M0 0 C1.65 0 3.3 0 5 0 C5.93423645 3.01031744 6.04449911 3.86650268 5 7 C3.68 7 2.36 7 1 7 C0.67 4.69 0.34 2.38 0 0 Z " fill="#F3DC89" transform="translate(103,67)"/>
<path d="M0 0 C1.32 0.66 2.64 1.32 4 2 C4 4.31 4 6.62 4 9 C2.35 8.67 0.7 8.34 -1 8 C-0.67 5.36 -0.34 2.72 0 0 Z " fill="#A8874D" transform="translate(91,57)"/>
<path d="M0 0 C4.29 0 8.58 0 13 0 C13.33 1.32 13.66 2.64 14 4 C13.07767578 3.76603516 13.07767578 3.76603516 12.13671875 3.52734375 C11.32847656 3.33269531 10.52023438 3.13804687 9.6875 2.9375 C8.88699219 2.74027344 8.08648437 2.54304687 7.26171875 2.33984375 C4.84042821 1.80114446 4.84042821 1.80114446 2 3 C1.34 2.01 0.68 1.02 0 0 Z " fill="#BE945C" transform="translate(82,149)"/>
<path d="M0 0 C-1 3 -1 3 -2.84765625 4.16796875 C-3.57855469 4.50441406 -4.30945313 4.84085938 -5.0625 5.1875 C-5.79597656 5.53167969 -6.52945312 5.87585938 -7.28515625 6.23046875 C-8.13400391 6.61138672 -8.13400391 6.61138672 -9 7 C-8.75 4.625 -8.75 4.625 -8 2 C-5.10189884 -0.09862498 -3.71621139 0 0 0 Z " fill="#C7A869" transform="translate(32,148)"/>
<path d="M0 0 C0.66 0.99 1.32 1.98 2 3 C2.99 3.66 3.98 4.32 5 5 C1.37 5.33 -2.26 5.66 -6 6 C-6.33 5.34 -6.66 4.68 -7 4 C-6.34 4 -5.68 4 -5 4 C-4.67 3.01 -4.34 2.02 -4 1 C-1.9375 0.3125 -1.9375 0.3125 0 0 Z " fill="#EBD496" transform="translate(86,170)"/>
<path d="M0 0 C2.89932357 2.39509338 3.50168276 4.31245243 4 8 C3.01 8.33 2.02 8.66 1 9 C0.34 8.67 -0.32 8.34 -1 8 C-1.125 2.25 -1.125 2.25 0 0 Z " fill="#D1AF71" transform="translate(179,147)"/>
<path d="M0 0 C1.60332791 -0.08121924 3.20784026 -0.13929134 4.8125 -0.1875 C6.15248047 -0.23970703 6.15248047 -0.23970703 7.51953125 -0.29296875 C10.41647515 0.04918998 11.22555028 0.75393573 13 3 C9.7600034 4.07999887 8.61636465 3.92129428 5.375 3.1875 C4.18003906 2.93033203 4.18003906 2.93033203 2.9609375 2.66796875 C1 2 1 2 0 0 Z " fill="#BB9A5A" transform="translate(59,148)"/>
<path d="M0 0 C2.64 0 5.28 0 8 0 C7.34 1.32 6.68 2.64 6 4 C6.99 4.33 7.98 4.66 9 5 C1.25 4.25 1.25 4.25 -1 2 C-0.67 1.34 -0.34 0.68 0 0 Z " fill="#BF9F68" transform="translate(82,97)"/>
<path d="M0 0 C0.75429081 4.99717658 1.3515243 9.1007244 0 14 C-2.10827055 10.83759418 -2.33817465 9.49342531 -2.625 5.8125 C-2.69976562 4.91144531 -2.77453125 4.01039062 -2.8515625 3.08203125 C-2.90054688 2.39496094 -2.94953125 1.70789063 -3 1 C-1 0 -1 0 0 0 Z " fill="#DABE7F" transform="translate(141,76)"/>
<path d="M0 0 C0.99 0 1.98 0 3 0 C3 2.97 3 5.94 3 9 C1.68 9 0.36 9 -1 9 C-0.67 6.03 -0.34 3.06 0 0 Z " fill="#CAAB6F" transform="translate(176,162)"/>
<path d="M0 0 C0 1.32 0 2.64 0 4 C-0.495 3.67 -0.99 3.34 -1.5 3 C-4.05296398 1.97881441 -5.42767811 1.92153245 -8.125 2 C-9.40375 2 -10.6825 2 -12 2 C-12.66 1.34 -13.32 0.68 -14 0 C-8.97703996 -1.13016601 -5.02125926 -0.77916092 0 0 Z " fill="#BA9356" transform="translate(145,149)"/>
<path d="M0 0 C1.32 0.33 2.64 0.66 4 1 C4.95685425 5.21015871 5.13181214 7.25712373 3 11 C2.49632243 9.54293274 1.99717444 8.08429904 1.5 6.625 C1.2215625 5.81289062 0.943125 5.00078125 0.65625 4.1640625 C0 2 0 2 0 0 Z " fill="#EAD18C" transform="translate(141,85)"/>
<path d="M0 0 C2.475 0.99 2.475 0.99 5 2 C5 4.64 5 7.28 5 10 C4.01 10 3.02 10 2 10 C1.855625 8.906875 1.71125 7.81375 1.5625 6.6875 C1.11711896 3.06877013 1.11711896 3.06877013 0 0 Z " fill="#BE9B52" transform="translate(93,56)"/>
<path d="M0 0 C2.475 0.99 2.475 0.99 5 2 C4.67 4.97 4.34 7.94 4 11 C2 7 2 7 2 4 C1.01 4 0.02 4 -1 4 C-0.67 2.68 -0.34 1.36 0 0 Z " fill="#E0C587" transform="translate(123,35)"/>
<path d="M0 0 C1.32 0.33 2.64 0.66 4 1 C3.96744792 3.01822917 3.93489583 5.03645833 3.90234375 7.0546875 C3.87350758 9.08185404 3.87350758 9.08185404 5 11 C3.35 11 1.7 11 0 11 C0 7.37 0 3.74 0 0 Z " fill="#DAC288" transform="translate(75,181)"/>
<path d="M0 0 C3.875 0.875 3.875 0.875 5 2 C5.04063832 3.66617115 5.042721 5.33388095 5 7 C3.35 6.67 1.7 6.34 0 6 C0 4.02 0 2.04 0 0 Z " fill="#BC9252" transform="translate(20,162)"/>
<path d="M0 0 C0.66 0 1.32 0 2 0 C1.79375 0.598125 1.5875 1.19625 1.375 1.8125 C0.69328085 4.28450846 0.69328085 4.28450846 3 7 C3.33 7.66 3.66 8.32 4 9 C3.01 9 2.02 9 1 9 C0.67 9.99 0.34 10.98 0 12 C-1.4606285 9.35261084 -2 8.10551666 -2 5 C-1.37400383 3.31763529 -0.71247732 1.6476038 0 0 Z " fill="#C4A055" transform="translate(117,97)"/>
<path d="M0 0 C0.33 2.97 0.66 5.94 1 9 C-0.98 9.99 -0.98 9.99 -3 11 C-2.67 10.01 -2.34 9.02 -2 8 C-2.38010596 5.40260925 -2.82495775 3.35008451 -4 1 C-2 0 -2 0 0 0 Z " fill="#A87D42" transform="translate(125,75)"/>
<path d="M0 0 C1.32 0 2.64 0 4 0 C4.33 2.97 4.66 5.94 5 9 C3.68 9 2.36 9 1 9 C0.67 6.03 0.34 3.06 0 0 Z " fill="#CFA867" transform="translate(97,57)"/>
<path d="M0 0 C1.98 0.99 1.98 0.99 4 2 C4 3.98 4 5.96 4 8 C2.68 8 1.36 8 0 8 C0 5.36 0 2.72 0 0 Z " fill="#BE995A" transform="translate(199,161)"/>
<path d="M0 0 C3.375 0.3125 3.375 0.3125 7 1 C7.66 1.99 8.32 2.98 9 4 C2.375 5.25 2.375 5.25 -1 3 C-0.34 3 0.32 3 1 3 C0.67 2.01 0.34 1.02 0 0 Z " fill="#DBBE80" transform="translate(136,106)"/>
<path d="M0 0 C3.375 0.6875 3.375 0.6875 7 2 C8.4375 4.625 8.4375 4.625 9 7 C6.1875 6.875 6.1875 6.875 3 6 C1.125 2.9375 1.125 2.9375 0 0 Z " fill="#C7A36B" transform="translate(129,104)"/>
<path d="M0 0 C0.99 0.33 1.98 0.66 3 1 C4.1875 4.0625 4.1875 4.0625 5 7 C3.02 7 1.04 7 -1 7 C-0.67 4.69 -0.34 2.38 0 0 Z " fill="#F1D98D" transform="translate(106,59)"/>
<path d="M0 0 C2.475 0.99 2.475 0.99 5 2 C5 2.66 5 3.32 5 4 C5.99 4.33 6.98 4.66 8 5 C4.37 5 0.74 5 -3 5 C-2.34 4.67 -1.68 4.34 -1 4 C-0.34786708 1.97536745 -0.34786708 1.97536745 0 0 Z " fill="#EAD698" transform="translate(131,170)"/>
<path d="M0 0 C0.66 0 1.32 0 2 0 C3.71084699 5.51272919 4.4606443 8.53190155 2 14 C0.66667905 11.3333581 1.32897967 9.83319697 2 7 C1.34 6.67 0.68 6.34 0 6 C0 4.02 0 2.04 0 0 Z " fill="#BDA166" transform="translate(116,117)"/>
<path d="M0 0 C1.32 0.33 2.64 0.66 4 1 C4 2.98 4 4.96 4 7 C3.01 6.67 2.02 6.34 1 6 C1 5.34 1 4.68 1 4 C0.34 4 -0.32 4 -1 4 C-1.33 4.66 -1.66 5.32 -2 6 C-2 5.01 -2 4.02 -2 3 C-1.34 3 -0.68 3 0 3 C0 2.01 0 1.02 0 0 Z " fill="#C6A76E" transform="translate(132,87)"/>
<path d="M0 0 C0.66 0 1.32 0 2 0 C3.04794275 3.14382824 3.00520947 4.87203439 2.6875 8.125 C2.60886719 9.01445313 2.53023438 9.90390625 2.44921875 10.8203125 C2.22685547 11.89925781 2.22685547 11.89925781 2 13 C1.01 13.495 1.01 13.495 0 14 C-0.91297308 9.02936879 -0.91297308 4.97063121 0 0 Z " fill="#CBAA69" transform="translate(112,38)"/>
<path d="M0 0 C0.66 0 1.32 0 2 0 C2.25 2.25 2.25 2.25 2 5 C0 7.3125 0 7.3125 -2 9 C-3 6 -3 6 -1.5625 2.8125 C-1.046875 1.884375 -0.53125 0.95625 0 0 Z " fill="#BFA269" transform="translate(193,161)"/>
<path d="M0 0 C1.32 0 2.64 0 4 0 C4.12375 1.134375 4.2475 2.26875 4.375 3.4375 C4.684375 5.2009375 4.684375 5.2009375 5 7 C5.66 7.33 6.32 7.66 7 8 C5.35 7.67 3.7 7.34 2 7 C1.34 4.69 0.68 2.38 0 0 Z " fill="#C49E61" transform="translate(122,67)"/>
<path d="M0 0 C0.66 0 1.32 0 2 0 C3.125 5.75 3.125 5.75 2 8 C2.66 8.33 3.32 8.66 4 9 C2.35 8.67 0.7 8.34 -1 8 C-1.04241723 5.66705225 -1.04092937 3.33297433 -1 1 C-0.67 0.67 -0.34 0.34 0 0 Z " fill="#CFAF6B" transform="translate(124,57)"/>
<path d="M0 0 C0.99 1.32 1.98 2.64 3 4 C1.25 5.125 1.25 5.125 -1 6 C-3.25 5.125 -3.25 5.125 -5 4 C-5 3.01 -5 2.02 -5 1 C-3.35 0.67 -1.7 0.34 0 0 Z " fill="#ECD58B" transform="translate(183,154)"/>
<path d="M0 0 C2.1385485 2.1385485 2.42655063 3.13275314 3 6 C1.02 6 -0.96 6 -3 6 C-3 4.68 -3 3.36 -3 2 C-2.01 1.34 -1.02 0.68 0 0 Z " fill="#E9D590" transform="translate(167,155)"/>
<path d="M0 0 C1.11375 0.86625 1.11375 0.86625 2.25 1.75 C2.25 2.74 2.25 3.73 2.25 4.75 C1.59 5.41 0.93 6.07 0.25 6.75 C-1.25 5.375 -1.25 5.375 -2.75 3.75 C-2.75 3.09 -2.75 2.43 -2.75 1.75 C-4.07 1.09 -5.39 0.43 -6.75 -0.25 C-3.83741863 -1.43660723 -2.93600309 -1.33454686 0 0 Z " fill="#D6A973" transform="translate(91.75,91.25)"/>
<path d="M0 0 C2.31 0 4.62 0 7 0 C6.67 1.32 6.34 2.64 6 4 C4.02 4 2.04 4 0 4 C0 2.68 0 1.36 0 0 Z " fill="#C2A160" transform="translate(83,92)"/>
<path d="M0 0 C0.99 0.33 1.98 0.66 3 1 C3 3.97 3 6.94 3 10 C3.66 10.33 4.32 10.66 5 11 C3.35 10.67 1.7 10.34 0 10 C0 6.7 0 3.4 0 0 Z " fill="#BE9857" transform="translate(97,46)"/>
<path d="M0 0 C1.76462683 3.08809695 2 4.23312136 2 8 C0.35 7.67 -1.3 7.34 -3 7 C-3 6.01 -3 5.02 -3 4 C-2.34 4 -1.68 4 -1 4 C-0.67 2.68 -0.34 1.36 0 0 Z " fill="#E7D08F" transform="translate(108,166)"/>
<path d="M0 0 C1.65 0.33 3.3 0.66 5 1 C5.33 2.32 5.66 3.64 6 5 C4.68 4.67 3.36 4.34 2 4 C1.34 5.32 0.68 6.64 0 8 C-0.98120464 4.94736336 -0.98120464 3.05263664 0 0 Z " fill="#D1AF76" transform="translate(19,159)"/>
<path d="M0 0 C1.65 0 3.3 0 5 0 C5 2.31 5 4.62 5 7 C4.67 6.34 4.34 5.68 4 5 C2.68 5 1.36 5 0 5 C0 3.35 0 1.7 0 0 Z " fill="#EBD28C" transform="translate(131,155)"/>
<path d="M0 0 C2.31 0.33 4.62 0.66 7 1 C6.67 2.32 6.34 3.64 6 5 C3.03 4.505 3.03 4.505 0 4 C0 2.68 0 1.36 0 0 Z " fill="#C9A762" transform="translate(85,105)"/>
<path d="M0 0 C0.99 0.66 1.98 1.32 3 2 C3 2.66 3 3.32 3 4 C3.66 4.33 4.32 4.66 5 5 C4.01 5.99 3.02 6.98 2 8 C2 7.01 2 6.02 2 5 C0.68 4.67 -0.64 4.34 -2 4 C-2 3.01 -2 2.02 -2 1 C-1.34 0.67 -0.68 0.34 0 0 Z " fill="#AD834D" transform="translate(123,100)"/>
<path d="M0 0 C-3.3 0 -6.6 0 -10 0 C-9 -3 -9 -3 -7.25 -3.9375 C-3.86494901 -4.03152919 -2.41207884 -2.21107227 0 0 Z " fill="#E9D29F" transform="translate(209,175)"/>
<path d="M0 0 C0.99 0 1.98 0 3 0 C3 2.64 3 5.28 3 8 C2.01 7.67 1.02 7.34 0 7 C0 4.69 0 2.38 0 0 Z " fill="#C59D54" transform="translate(132,162)"/>
<path d="M0 0 C1.65 0.33 3.3 0.66 5 1 C3.68 2.65 2.36 4.3 1 6 C-0.32 5.34 -1.64 4.68 -3 4 C-2.01 2.68 -1.02 1.36 0 0 Z " fill="#D8C286" transform="translate(71,168)"/>
<path d="M0 0 C-1.6875 1.5625 -1.6875 1.5625 -4 3 C-7.37036311 2.75925978 -8.58798021 2.41201979 -11 0 C-7.18243176 -1.37432457 -3.92744671 -0.67975039 0 0 Z " fill="#ECCD88" transform="translate(179,171)"/>
<path d="M0 0 C0.33 0 0.66 0 1 0 C1 1.65 1 3.3 1 5 C-1.49092811 6.24546405 -2.41080733 5.7767578 -5 5 C-4.67 3.68 -4.34 2.36 -4 1 C-2.02 1.495 -2.02 1.495 0 2 C0 1.34 0 0.68 0 0 Z " fill="#EFD290" transform="translate(54,154)"/>
<path d="M0 0 C1.98 0 3.96 0 6 0 C6 1.33333333 6 2.66666667 6 4 C3.69 4 1.38 4 -1 4 C-0.67 2.68 -0.34 1.36 0 0 Z " fill="#D5B272" transform="translate(134,112)"/>
<path d="M0 0 C0.53625 0.226875 1.0725 0.45375 1.625 0.6875 C1.625 1.3475 1.625 2.0075 1.625 2.6875 C-1.70833333 3.35416667 -5.04166667 4.02083333 -8.375 4.6875 C-8.375 4.0275 -8.375 3.3675 -8.375 2.6875 C-2.95961538 -0.38942308 -2.95961538 -0.38942308 0 0 Z " fill="#A98956" transform="translate(130.375,83.3125)"/>
<path d="M0 0 C0.99 0.33 1.98 0.66 3 1 C3 2.98 3 4.96 3 7 C3.66 7.33 4.32 7.66 5 8 C3.35 7.67 1.7 7.34 0 7 C0 4.69 0 2.38 0 0 Z " fill="#E3C77B" transform="translate(126,58)"/>
<path d="M0 0 C-0.33 0.99 -0.66 1.98 -1 3 C-3.3431213 2.74438677 -5.67843403 2.40729228 -8 2 C-8.33 1.34 -8.66 0.68 -9 0 C-5.93109813 -1.53445094 -3.29905734 -0.54984289 0 0 Z " fill="#D4C091" transform="translate(68,189)"/>
<path d="M0 0 C1.32 0.33 2.64 0.66 4 1 C3.67 2.65 3.34 4.3 3 6 C2.01 5.67 1.02 5.34 0 5 C0 3.35 0 1.7 0 0 Z " fill="#B78E4F" transform="translate(104,162)"/>
<path d="M0 0 C0.86625 0.3403125 0.86625 0.3403125 1.75 0.6875 C1.75 1.6775 1.75 2.6675 1.75 3.6875 C-0.89 3.3575 -3.53 3.0275 -6.25 2.6875 C-2.80384615 -0.38942308 -2.80384615 -0.38942308 0 0 Z " fill="#BC8F4F" transform="translate(168.25,163.3125)"/>
<path d="M0 0 C1.32 0 2.64 0 4 0 C4 1.65 4 3.3 4 5 C2.68 5 1.36 5 0 5 C0 3.35 0 1.7 0 0 Z " fill="#BE9456" transform="translate(82,162)"/>
<path d="M0 0 C2.475 0.495 2.475 0.495 5 1 C4.34 2.32 3.68 3.64 3 5 C3.66 5.33 4.32 5.66 5 6 C4.67 6.66 4.34 7.32 4 8 C2 6.25 2 6.25 0 4 C0 2.68 0 1.36 0 0 Z " fill="#B5935D" transform="translate(118,106)"/>
<path d="M0 0 C1.32 0.66 2.64 1.32 4 2 C3.67 4.31 3.34 6.62 3 9 C2.67 8.34 2.34 7.68 2 7 C1.01 6.67 0.02 6.34 -1 6 C-0.67 4.02 -0.34 2.04 0 0 Z " fill="#DDC282" transform="translate(108,91)"/>
<path d="M0 0 C0.99 0 1.98 0 3 0 C3.33 2.31 3.66 4.62 4 7 C3.01 7 2.02 7 1 7 C0.67 4.69 0.34 2.38 0 0 Z " fill="#D5B26F" transform="translate(126,67)"/>
<path d="M0 0 C0.66 0 1.32 0 2 0 C2.33 1.65 2.66 3.3 3 5 C1.68 5.33 0.36 5.66 -1 6 C-1.33 5.01 -1.66 4.02 -2 3 C-1.34 2.01 -0.68 1.02 0 0 Z " fill="#DAC085" transform="translate(143,181)"/>
<path d="M0 0 C2.475 0.495 2.475 0.495 5 1 C4.34 2.32 3.68 3.64 3 5 C2.01 4.67 1.02 4.34 0 4 C0 2.68 0 1.36 0 0 Z " fill="#E8D28F" transform="translate(142,156)"/>
<path d="M0 0 C0.99 0 1.98 0 3 0 C3.66 1.32 4.32 2.64 5 4 C4.01 4.33 3.02 4.66 2 5 C1.01 4.34 0.02 3.68 -1 3 C-0.67 2.01 -0.34 1.02 0 0 Z " fill="#B28444" transform="translate(121,108)"/>
<path d="M0 0 C1.98 0 3.96 0 6 0 C5.67 0.99 5.34 1.98 5 3 C4.01 3 3.02 3 2 3 C2 4.65 2 6.3 2 8 C1.67 8 1.34 8 1 8 C0.67 5.36 0.34 2.72 0 0 Z " fill="#D4BC7F" transform="translate(108,67)"/>
<path d="M0 0 C0.33 0 0.66 0 1 0 C0.67 3.3 0.34 6.6 0 10 C-0.66 9.34 -1.32 8.68 -2 8 C-1.42307692 1.42307692 -1.42307692 1.42307692 0 0 Z " fill="#DEC47C" transform="translate(111,39)"/>
<path d="M0 0 C0.33 0 0.66 0 1 0 C1.33 1.65 1.66 3.3 2 5 C2.99 4.34 3.98 3.68 5 3 C4.67 4.65 4.34 6.3 4 8 C2.68 7.67 1.36 7.34 0 7 C0 4.69 0 2.38 0 0 Z " fill="#D1AF79" transform="translate(39,164)"/>
<path d="M0 0 C3 3.875 3 3.875 3 5 C0.125 5.1875 0.125 5.1875 -3 5 C-3.66 4.01 -4.32 3.02 -5 2 C-2.525 2.495 -2.525 2.495 0 3 C0 2.01 0 1.02 0 0 Z " fill="#D5B678" transform="translate(25,166)"/>
<path d="M0 0 C0.33 0 0.66 0 1 0 C1 2.31 1 4.62 1 7 C0.01 7 -0.98 7 -2 7 C-2.125 4.625 -2.125 4.625 -2 2 C-1.34 1.34 -0.68 0.68 0 0 Z " fill="#C6A467" transform="translate(200,147)"/>
<path d="M0 0 C2.475 0.495 2.475 0.495 5 1 C5 2.98 5 4.96 5 7 C3.5 5.6875 3.5 5.6875 2 4 C2 3.01 2 2.02 2 1 C1.34 0.67 0.68 0.34 0 0 Z " fill="#E1C27A" transform="translate(93,99)"/>
<path d="M0 0 C0.99 0.33 1.98 0.66 3 1 C3.75 2.9375 3.75 2.9375 4 5 C3.67 5.66 3.34 6.32 3 7 C2.34 7 1.68 7 1 7 C1 5.68 1 4.36 1 3 C0.34 3 -0.32 3 -1 3 C-0.67 2.01 -0.34 1.02 0 0 Z " fill="#B89963" transform="translate(114,67)"/>
<path d="M0 0 C0.8353125 0.7734375 0.8353125 0.7734375 1.6875 1.5625 C-2.07874671 2.81791557 -3.68438934 1.93311958 -7.3125 0.5625 C-7.3125 0.2325 -7.3125 -0.0975 -7.3125 -0.4375 C-2.88173077 -1.79134615 -2.88173077 -1.79134615 0 0 Z " fill="#EAD096" transform="translate(59.3125,171.4375)"/>
<path d="M0 0 C0.66 0.33 1.32 0.66 2 1 C2 2.65 2 4.3 2 6 C1.01 6 0.02 6 -1 6 C-1.042721 4.33388095 -1.04063832 2.66617115 -1 1 C-0.67 0.67 -0.34 0.34 0 0 Z " fill="#C0A060" transform="translate(163,147)"/>
<path d="M0 0 C1 3 1 3 0 6 C-1.32 5.67 -2.64 5.34 -4 5 C-3 2 -3 2 0 0 Z " fill="#D2B97C" transform="translate(113,129)"/>
<path d="M0 0 C2.64 0.33 5.28 0.66 8 1 C7.67 1.99 7.34 2.98 7 4 C2.25 3.125 2.25 3.125 0 2 C0 1.34 0 0.68 0 0 Z " fill="#CDB579" transform="translate(132,97)"/>
<path d="M0 0 C1.98 0 3.96 0 6 0 C6 0.99 6 1.98 6 3 C4.35 3 2.7 3 1 3 C0.67 2.01 0.34 1.02 0 0 Z " fill="#CDAF77" transform="translate(109,76)"/>
<path d="M0 0 C0.99 0.33 1.98 0.66 3 1 C3 3.31 3 5.62 3 8 C2.34 8 1.68 8 1 8 C0.67 5.36 0.34 2.72 0 0 Z " fill="#DBBF79" transform="translate(99,67)"/>
</svg>
