<?xml version="1.0" encoding="UTF-8"?>
<svg version="1.1" xmlns="http://www.w3.org/2000/svg" width="1892" height="992">
<path d="M0 0 C0.99 0 1.98 0 3 0 C3.2019397 1.15109253 3.2019397 1.15109253 3.40795898 2.32543945 C6.7804047 21.17837694 11.40244516 38.97068196 18 57 C18.45826172 58.29067383 18.45826172 58.29067383 18.92578125 59.60742188 C23.20861633 71.66389596 28.77614955 82.83306631 35 94 C35.63164062 95.13566406 36.26328125 96.27132812 36.9140625 97.44140625 C49.20416717 118.96311922 64.67031226 138.20744147 81.5625 156.25 C82.26600586 157.0020874 82.96951172 157.7541748 83.69433594 158.52905273 C84.35336914 159.22587158 85.01240234 159.92269043 85.69140625 160.640625 C86.28123291 161.26485352 86.87105957 161.88908203 87.47875977 162.53222656 C88.95307397 164.10120785 88.95307397 164.10120785 91 165 C91 165.66 91 166.32 91 167 C91.58523438 167.25523437 92.17046875 167.51046875 92.7734375 167.7734375 C95.22137407 169.12194993 96.71866736 170.5888745 98.625 172.625 C102.33941068 176.43571021 106.26826951 179.74951292 110.46484375 183.015625 C112.06395039 184.26731402 113.64295549 185.54553799 115.19140625 186.859375 C133.66587367 202.41005714 159.86868634 217.93241114 184 222 C183.33355469 221.19820312 182.66710937 220.39640625 181.98046875 219.5703125 C162.31908937 195.49052424 147.83258929 167.20313625 147.8125 135.5625 C147.80025391 134.55123047 147.78800781 133.53996094 147.77539062 132.49804688 C147.76448805 126.92683038 148.1285292 122.25935075 150 117 C153 118 153 118 154.875 121.25390625 C155.58885117 122.68736956 156.2967752 124.12379383 157 125.5625 C166.91566637 144.96316264 179.8944939 160.56429219 197 174 C194.71649047 171.11478817 192.40319414 168.29305131 189.9375 165.5625 C169.61229127 142.27773197 153.87979958 115.19061839 155.80175781 83.24658203 C157.32559734 65.97765179 165.06540937 46.73595403 177 34 C177.66 34 178.32 34 179 34 C178.06231454 41.63543875 178.06231454 41.63543875 177.42578125 45.359375 C176.19140405 55.91386628 179.50054126 65.61146458 184 75 C184.42023438 75.95261719 184.84046875 76.90523438 185.2734375 77.88671875 C192.91900032 94.43737353 205.96853703 108.36872342 217.55078125 122.26171875 C229.52355901 136.64669032 240.67684834 150.62880304 248 168 C248.86782104 168.01401855 248.86782104 168.01401855 249.75317383 168.02832031 C267.16898213 168.38180006 279.07816637 170.07816637 291.8125 182.8125 C297.06460767 190.46557117 298.92815272 199.20713051 300.65625 208.19921875 C300.88526001 209.35130325 301.11427002 210.50338776 301.35021973 211.69038391 C302.07585936 215.35437245 302.78783134 219.02087229 303.5 222.6875 C303.97703699 225.09716919 304.45489535 227.50667593 304.93359375 229.91601562 C307.31154362 241.94902543 309.56097705 253.99585979 311.62652588 266.08636475 C313.02291702 274.23514553 314.59699501 282.33693219 316.25 290.4375 C316.52111798 291.77793725 316.79195072 293.11843222 317.0625 294.45898438 C317.70557199 297.63989403 318.35137036 300.8202199 319 304 C321.25474453 298.23420168 323.05624443 292.46831489 324.6875 286.5 C327.19808162 277.48935304 330.04630544 268.62518514 333.1081543 259.78710938 C334.9010352 254.54995002 336.47821762 249.31155498 337.87109375 243.953125 C340.23448377 234.9053415 343.08133907 226.02725044 345.9375 217.125 C346.96989409 213.89921388 347.99986298 210.67266697 349.02734375 207.4453125 C349.27898285 206.65545959 349.53062195 205.86560669 349.78988647 205.05181885 C351.87539517 198.47030148 353.82616138 191.8547614 355.72875977 185.21826172 C357.36899697 179.77558485 359.20241524 174.39275428 361 169 C408.19 169 455.38 169 504 169 C510.45592379 188.36777137 516.84510911 207.59148685 522.8203125 227.08203125 C526.26160415 238.15009737 530.12566025 249.07737942 534 260 C538.4807649 256.77917295 542.60974485 253.67916848 546.1875 249.4375 C552.59464572 242.08321099 559.60632361 235.33302748 566.546875 228.48828125 C569.27202326 225.72407832 571.88860074 222.87065291 574.5 220 C581.57544476 212.27443951 589.00607974 204.9226916 596.46484375 197.5703125 C600.16783079 193.81597433 603.72949801 189.93398352 607.30078125 186.0546875 C608.46551249 184.79834819 609.64579727 183.55626186 610.84065247 182.32853699 C613.07399283 179.98966084 613.07399283 179.98966084 615.14775085 177.2233429 C619.61935065 171.90423315 623.10187464 168.4878148 630.22033405 167.83156109 C634.27516513 167.68870592 638.30197468 167.78526447 642.35546875 167.92578125 C644.11089671 167.94633692 645.86638844 167.96197643 647.62190247 167.97294617 C652.20865836 168.0146439 656.79148844 168.12240805 661.37670898 168.24468994 C666.06895852 168.35789 670.76185227 168.40759739 675.45507812 168.46289062 C684.63842944 168.58032383 693.81888642 168.76767162 703 169 C702.04963615 170.11576036 701.09826909 171.23066628 700.14648438 172.34521484 C699.35195862 173.2766481 699.35195862 173.2766481 698.54138184 174.22689819 C694.3774358 179.01682115 689.84931374 183.61230968 684.875 187.5625 C682.48667891 189.58738092 680.63612202 191.50604321 678.625 193.875 C675.68839834 197.32035502 672.54989493 200.2299153 669.1015625 203.15234375 C666.07060303 205.81710924 663.27780863 208.6982588 660.46875 211.59375 C658.50450526 213.50826702 656.51984303 215.28343154 654.4375 217.0625 C648.84203133 221.91746862 643.69921798 227.2301359 638.5 232.5 C632.81618676 238.26104396 627.156687 243.96163171 620.99707031 249.22119141 C615.92676733 253.73735614 611.2786843 258.73013626 606.5390625 263.58789062 C605.724375 264.41353516 604.9096875 265.23917969 604.0703125 266.08984375 C603.33570801 266.84128662 602.60110352 267.59272949 601.84423828 268.36694336 C600 270 600 270 598 270 C597.67 270.99 597.34 271.98 597 273 C595.5390625 274.4375 595.5390625 274.4375 593.625 276 C589.55103512 279.44607782 585.81631126 283.15123743 582.07104492 286.94897461 C579.44321129 289.59772542 576.77375971 292.13878715 573.9375 294.5625 C572.62333683 295.70642545 571.31112751 296.85259644 570 298 C569.20851563 298.67168213 568.41703125 299.34336426 567.6015625 300.03540039 C560.4324845 306.56408672 557.6246826 312.63124221 555.0625 321.875 C554.70349609 323.06480469 554.34449219 324.25460937 553.97460938 325.48046875 C552.38424793 330.82058148 550.94167193 336.17759625 549.65234375 341.59765625 C547.41577633 350.72266957 544.37975292 359.62508901 541.5 368.5625 C538.14345877 379.0000273 534.82763272 389.40459715 532 400 C530.68 404.29 529.36 408.58 528 413 C503.58 413 479.16 413 454 413 C458.59208856 394.63164577 458.59208856 394.63164577 461.2421875 386.296875 C461.6784697 384.90375092 461.6784697 384.90375092 462.12356567 383.48248291 C463.03639179 380.57027699 463.95534269 377.66005499 464.875 374.75 C466.08265242 370.91206117 467.28760757 367.0732791 468.4921875 363.234375 C468.7878511 362.29439163 469.08351471 361.35440826 469.38813782 360.38594055 C471.36808035 354.0741091 473.2798824 347.74449442 475.16015625 341.40234375 C476.80585523 335.85436106 478.52188706 330.35575465 480.44140625 324.89453125 C480.79654297 323.87166016 481.15167969 322.84878906 481.51757812 321.79492188 C482.23147256 319.75732038 482.96414211 317.72622515 483.71289062 315.70117188 C486.11681243 308.64275231 486.16995014 304.70502163 483 298 C482.29874794 296.28651749 481.60101766 294.57159073 480.90625 292.85546875 C480.10644773 290.96517907 479.30424399 289.07590419 478.5 287.1875 C473.17331412 274.55131775 468.16666593 261.80207438 463.18554688 249.02685547 C461.48098549 244.6748884 459.74282376 240.33675203 458 236 C457.37992804 234.45063298 456.76013572 232.90115402 456.140625 231.3515625 C455.16350058 228.90862311 454.18626455 226.46572862 453.20874023 224.02294922 C451.47637817 219.69342489 449.74562697 215.36327677 448.01953125 211.03125 C444.39754315 201.94602879 440.74752532 192.87234855 437.0625 183.8125 C436.67263916 182.84908691 436.28277832 181.88567383 435.88110352 180.89306641 C435.51944092 180.0066748 435.15777832 179.1202832 434.78515625 178.20703125 C434.46426025 177.4178833 434.14336426 176.62873535 433.81274414 175.81567383 C433.13813948 174.01930598 433.13813948 174.01930598 432 173 C431.82984375 173.62640381 431.6596875 174.25280762 431.484375 174.89819336 C428.20235098 186.92755334 424.7937112 198.89087442 420.9375 210.75 C418.29259327 218.88557543 415.80127404 227.0356816 413.49975586 235.27441406 C410.97790525 244.22727572 408.23372248 253.11015373 405.5 262 C402.29825278 272.41420893 399.14361913 282.83149832 396.20703125 293.32421875 C393.74964344 302.0303927 391.01798231 310.65028127 388.31591797 319.28295898 C386.11694238 326.33125443 383.99116311 333.39031026 382 340.5 C379.29970292 350.14173872 376.31991809 359.68937249 373.32739258 369.24389648 C370.76721331 377.44656541 368.31464976 385.6700997 366.02734375 393.953125 C364.23133018 400.40344205 362.1277488 406.61675361 360 413 C330.63 413 301.26 413 271 413 C263 376 263 376 260 359 C259.08598532 354.48241203 258.15562662 349.97436335 257.1875 345.46875 C256.93250732 344.267948 256.67751465 343.067146 256.41479492 341.82995605 C255.61261986 338.05271087 254.80680573 334.27625859 254 330.5 C247.92612419 302.07119138 247.92612419 302.07119138 245.68896484 288.88916016 C244.41552944 281.70070306 242.85172088 274.57287109 241.3125 267.4375 C240.98865405 265.92518977 240.6650854 264.41282012 240.34179688 262.90039062 C239.56437041 259.26624152 238.78327538 255.63289357 238 252 C235.01513919 261.47536469 232.10108893 270.96468068 229.3125 280.5 C227.88230005 285.33551937 226.44297984 290.16828006 225 295 C224.62746094 296.24910156 224.25492188 297.49820312 223.87109375 298.78515625 C215.73180771 325.96882277 207.14524782 353.76960499 194 379 C193.22269531 380.56427734 193.22269531 380.56427734 192.4296875 382.16015625 C183.49697578 399.53451439 165.49878202 413.51255768 147.125 419.875 C138.15579357 422.23831471 129.39468439 422.3077018 121.2265625 417.625 C115.96966007 413.78838349 111.99774079 409.24293996 110 403 C108.90989492 395.00240216 109.59634297 388.82247958 114.24609375 382.14453125 C122.95474185 371.49631787 135.59502849 366.73528229 148.99511719 365.15917969 C157.14366481 364.51221755 165.20443465 365.6613304 173 368 C173.26329102 367.30261719 173.52658203 366.60523438 173.79785156 365.88671875 C175.10402598 362.75020244 176.64715751 359.81645939 178.234375 356.8125 C182.10772034 349.24169767 184.86429996 341.40660993 187.49023438 333.33203125 C188.25069897 330.99785456 189.03032215 328.6707291 189.8125 326.34375 C192.8127529 317.31005297 195.24880224 308.36984951 197 299 C195.99138916 299.13631836 195.99138916 299.13631836 194.96240234 299.27539062 C164.14600418 303.35564704 134.72005186 302.84683438 104.54443359 294.68701172 C101.95823657 293.98872363 99.36469204 293.32425891 96.76953125 292.66015625 C84.73094969 289.48753367 73.48277713 285.12173227 62.16210938 279.95800781 C59.7974709 278.9102615 57.40618443 277.94792279 55 277 C54.86537354 277.60021973 54.73074707 278.20043945 54.59204102 278.81884766 C30.81151262 383.75326728 30.81151262 383.75326728 -8.5 410 C-10.30901368 411.04335066 -12.14489834 412.04098544 -14 413 C-14.58281738 413.30373535 -15.16563477 413.6074707 -15.76611328 413.92041016 C-23.22318271 417.75563921 -30.55045416 421.19736611 -39 422 C-39.75667969 422.08121094 -40.51335937 422.16242188 -41.29296875 422.24609375 C-48.84620136 422.67510696 -54.89310148 419.88988065 -60.75 415.25 C-65.40163211 410.99862461 -69.52268372 405.26454707 -70.23828125 398.87109375 C-70.50901411 389.9939057 -68.0299236 382.21725467 -61.88671875 375.65625 C-50.2015157 365.398432 -35.69708055 360.45484996 -20.22509766 361.11914062 C-14.12863729 361.55482021 -8.0614124 362.22022087 -2 363 C2.2881367 354.27205618 6.12824807 345.42405873 9.6875 336.375 C10.05544678 335.44679443 10.42339355 334.51858887 10.80249023 333.56225586 C16.05794318 320.04434572 19.6617517 306.06758234 23.3737793 292.06787109 C24.19333454 288.97800276 25.01728835 285.88933111 25.84179688 282.80078125 C26.36744474 280.82558927 26.89284441 278.85033122 27.41796875 276.875 C27.6627446 275.95726807 27.90752045 275.03953613 28.15971375 274.09399414 C28.38697647 273.23539795 28.6142392 272.37680176 28.84838867 271.4921875 C29.04728195 270.74308105 29.24617523 269.99397461 29.45109558 269.22216797 C30.04273294 266.82700125 30.53282185 264.42224486 31 262 C30.44699219 261.73445313 29.89398438 261.46890625 29.32421875 261.1953125 C20.93820744 256.88250669 13.87340539 251.39239359 7 245 C5.62875288 243.80816839 4.25386076 242.6205149 2.875 241.4375 C-5.03303401 234.51400035 -5.03303401 234.51400035 -8 231 C-8 230.34 -8 229.68 -8 229 C-8.66 229 -9.32 229 -10 229 C-21.51054261 215.65782658 -36 195.50707158 -36 177 C-35.01 177 -34.02 177 -33 177 C-31.23828125 178.94140625 -31.23828125 178.94140625 -29.3125 181.5625 C-18.54853646 195.39079911 -3.14928766 203.79261755 13 210 C9.61714705 206.558822 6.13597061 203.25530135 2.58300781 199.99047852 C-9.21721268 189.12456476 -9.21721268 189.12456476 -14 183 C-14.39606445 182.51047852 -14.79212891 182.02095703 -15.20019531 181.51660156 C-35.00255718 156.89003192 -41.84467729 129.26749921 -40 98 C-39.16220836 91.22347133 -37.68830066 84.60999858 -36 78 C-35.01 78.33 -34.02 78.66 -33 79 C-32.1484375 81.38671875 -32.1484375 81.38671875 -31.375 84.6875 C-26.85787206 101.50220818 -20.02672676 117.48590853 -9.2421875 131.2421875 C-8 133 -8 133 -8 135 C-7.34 135 -6.68 135 -6 135 C-4.48502541 136.72262555 -3.036807 138.50435515 -1.625 140.3125 C1.06313957 143.75134076 3.51094688 146.41109072 7 149 C7 149.66 7 150.32 7 151 C7.81210937 151.33644531 7.81210937 151.33644531 8.640625 151.6796875 C11.73532294 153.41148866 14.17925605 155.71619268 16.75 158.125 C17.25660156 158.59292969 17.76320313 159.06085938 18.28515625 159.54296875 C19.52719141 160.69126541 20.76411494 161.84508672 22 163 C20.48897027 159.49824857 18.4237042 157.134517 15.8125 154.375 C11.37309888 149.51785619 7.61849551 144.48635821 4 139 C3.28972656 137.95070313 2.57945312 136.90140625 1.84765625 135.8203125 C-15.85653573 109.34793066 -26.60177594 78.84892725 -20.375 46.875 C-17.10509367 31.49093956 -11.04446001 18.43807892 -3 5 C-2.47792969 4.02417969 -1.95585937 3.04835937 -1.41796875 2.04296875 C-0.71607422 1.03169922 -0.71607422 1.03169922 0 0 Z " fill="#000000" transform="translate(471,244)"/>
<path d="M0 0 C0.99 0 1.98 0 3 0 C3.2019397 1.15109253 3.2019397 1.15109253 3.40795898 2.32543945 C6.7804047 21.17837694 11.40244516 38.97068196 18 57 C18.45826172 58.29067383 18.45826172 58.29067383 18.92578125 59.60742188 C23.20861633 71.66389596 28.77614955 82.83306631 35 94 C35.63164062 95.13566406 36.26328125 96.27132812 36.9140625 97.44140625 C49.20416717 118.96311922 64.67031226 138.20744147 81.5625 156.25 C82.26600586 157.0020874 82.96951172 157.7541748 83.69433594 158.52905273 C84.35336914 159.22587158 85.01240234 159.92269043 85.69140625 160.640625 C86.28123291 161.26485352 86.87105957 161.88908203 87.47875977 162.53222656 C88.95307397 164.10120785 88.95307397 164.10120785 91 165 C91 165.66 91 166.32 91 167 C91.58523438 167.25523437 92.17046875 167.51046875 92.7734375 167.7734375 C95.22137407 169.12194993 96.71866736 170.5888745 98.625 172.625 C102.33941068 176.43571021 106.26826951 179.74951292 110.46484375 183.015625 C112.06395039 184.26731402 113.64295549 185.54553799 115.19140625 186.859375 C133.66587367 202.41005714 159.86868634 217.93241114 184 222 C183.33355469 221.19820312 182.66710937 220.39640625 181.98046875 219.5703125 C162.31908937 195.49052424 147.83258929 167.20313625 147.8125 135.5625 C147.80025391 134.55123047 147.78800781 133.53996094 147.77539062 132.49804688 C147.76448805 126.92683038 148.1285292 122.25935075 150 117 C153 118 153 118 154.875 121.25390625 C155.58885117 122.68736956 156.2967752 124.12379383 157 125.5625 C166.91566637 144.96316264 179.8944939 160.56429219 197 174 C194.71649047 171.11478817 192.40319414 168.29305131 189.9375 165.5625 C169.61229127 142.27773197 153.87979958 115.19061839 155.80175781 83.24658203 C157.32559734 65.97765179 165.06540937 46.73595403 177 34 C177.66 34 178.32 34 179 34 C178.06231454 41.63543875 178.06231454 41.63543875 177.42578125 45.359375 C176.19140405 55.91386628 179.50054126 65.61146458 184 75 C184.42023438 75.95261719 184.84046875 76.90523438 185.2734375 77.88671875 C192.91900032 94.43737353 205.96853703 108.36872342 217.55078125 122.26171875 C238.25282279 147.13466676 238.25282279 147.13466676 245 161 C245.556875 162.11375 246.11375 163.2275 246.6875 164.375 C254.9584812 187.21866236 249.46018514 208.32691633 242.14404297 230.6003418 C240.56471324 235.54289898 239.50013485 240.48846355 238.59765625 245.59375 C237.10883177 253.93783115 234.94221127 261.9961303 232.5625 270.125 C232.34824371 270.86411621 232.13398743 271.60323242 231.91323853 272.36474609 C209.76707437 348.73738952 209.76707437 348.73738952 194 379 C193.22269531 380.56427734 193.22269531 380.56427734 192.4296875 382.16015625 C183.49697578 399.53451439 165.49878202 413.51255768 147.125 419.875 C138.15579357 422.23831471 129.39468439 422.3077018 121.2265625 417.625 C115.96966007 413.78838349 111.99774079 409.24293996 110 403 C108.90989492 395.00240216 109.59634297 388.82247958 114.24609375 382.14453125 C122.95474185 371.49631787 135.59502849 366.73528229 148.99511719 365.15917969 C157.14366481 364.51221755 165.20443465 365.6613304 173 368 C173.26329102 367.30261719 173.52658203 366.60523438 173.79785156 365.88671875 C175.10402598 362.75020244 176.64715751 359.81645939 178.234375 356.8125 C182.10772034 349.24169767 184.86429996 341.40660993 187.49023438 333.33203125 C188.25069897 330.99785456 189.03032215 328.6707291 189.8125 326.34375 C192.8127529 317.31005297 195.24880224 308.36984951 197 299 C195.99138916 299.13631836 195.99138916 299.13631836 194.96240234 299.27539062 C164.14600418 303.35564704 134.72005186 302.84683438 104.54443359 294.68701172 C101.95823657 293.98872363 99.36469204 293.32425891 96.76953125 292.66015625 C84.73094969 289.48753367 73.48277713 285.12173227 62.16210938 279.95800781 C59.7974709 278.9102615 57.40618443 277.94792279 55 277 C54.86537354 277.60021973 54.73074707 278.20043945 54.59204102 278.81884766 C30.81151262 383.75326728 30.81151262 383.75326728 -8.5 410 C-10.30901368 411.04335066 -12.14489834 412.04098544 -14 413 C-14.58281738 413.30373535 -15.16563477 413.6074707 -15.76611328 413.92041016 C-23.22318271 417.75563921 -30.55045416 421.19736611 -39 422 C-39.75667969 422.08121094 -40.51335937 422.16242188 -41.29296875 422.24609375 C-48.84620136 422.67510696 -54.89310148 419.88988065 -60.75 415.25 C-65.40163211 410.99862461 -69.52268372 405.26454707 -70.23828125 398.87109375 C-70.50901411 389.9939057 -68.0299236 382.21725467 -61.88671875 375.65625 C-50.2015157 365.398432 -35.69708055 360.45484996 -20.22509766 361.11914062 C-14.12863729 361.55482021 -8.0614124 362.22022087 -2 363 C2.2881367 354.27205618 6.12824807 345.42405873 9.6875 336.375 C10.05544678 335.44679443 10.42339355 334.51858887 10.80249023 333.56225586 C16.05794318 320.04434572 19.6617517 306.06758234 23.3737793 292.06787109 C24.19333454 288.97800276 25.01728835 285.88933111 25.84179688 282.80078125 C26.36744474 280.82558927 26.89284441 278.85033122 27.41796875 276.875 C27.6627446 275.95726807 27.90752045 275.03953613 28.15971375 274.09399414 C28.38697647 273.23539795 28.6142392 272.37680176 28.84838867 271.4921875 C29.04728195 270.74308105 29.24617523 269.99397461 29.45109558 269.22216797 C30.04273294 266.82700125 30.53282185 264.42224486 31 262 C30.44699219 261.73445313 29.89398438 261.46890625 29.32421875 261.1953125 C20.93820744 256.88250669 13.87340539 251.39239359 7 245 C5.62875288 243.80816839 4.25386076 242.6205149 2.875 241.4375 C-5.03303401 234.51400035 -5.03303401 234.51400035 -8 231 C-8 230.34 -8 229.68 -8 229 C-8.66 229 -9.32 229 -10 229 C-21.51054261 215.65782658 -36 195.50707158 -36 177 C-35.01 177 -34.02 177 -33 177 C-31.23828125 178.94140625 -31.23828125 178.94140625 -29.3125 181.5625 C-18.54853646 195.39079911 -3.14928766 203.79261755 13 210 C9.61714705 206.558822 6.13597061 203.25530135 2.58300781 199.99047852 C-9.21721268 189.12456476 -9.21721268 189.12456476 -14 183 C-14.39606445 182.51047852 -14.79212891 182.02095703 -15.20019531 181.51660156 C-35.00255718 156.89003192 -41.84467729 129.26749921 -40 98 C-39.16220836 91.22347133 -37.68830066 84.60999858 -36 78 C-35.01 78.33 -34.02 78.66 -33 79 C-32.1484375 81.38671875 -32.1484375 81.38671875 -31.375 84.6875 C-26.85787206 101.50220818 -20.02672676 117.48590853 -9.2421875 131.2421875 C-8 133 -8 133 -8 135 C-7.34 135 -6.68 135 -6 135 C-4.48502541 136.72262555 -3.036807 138.50435515 -1.625 140.3125 C1.06313957 143.75134076 3.51094688 146.41109072 7 149 C7 149.66 7 150.32 7 151 C7.81210937 151.33644531 7.81210937 151.33644531 8.640625 151.6796875 C11.73532294 153.41148866 14.17925605 155.71619268 16.75 158.125 C17.25660156 158.59292969 17.76320313 159.06085938 18.28515625 159.54296875 C19.52719141 160.69126541 20.76411494 161.84508672 22 163 C20.48897027 159.49824857 18.4237042 157.134517 15.8125 154.375 C11.37309888 149.51785619 7.61849551 144.48635821 4 139 C3.28972656 137.95070313 2.57945312 136.90140625 1.84765625 135.8203125 C-15.85653573 109.34793066 -26.60177594 78.84892725 -20.375 46.875 C-17.10509367 31.49093956 -11.04446001 18.43807892 -3 5 C-2.47792969 4.02417969 -1.95585937 3.04835937 -1.41796875 2.04296875 C-0.71607422 1.03169922 -0.71607422 1.03169922 0 0 Z " fill="#249FCC" transform="translate(471,244)"/>
<path d="M0 0 C1.53884372 0.00056562 3.07768797 0.00024463 4.61653137 -0.00088501 C8.75204184 -0.00145366 12.88743385 0.01022069 17.02291703 0.02426291 C21.36037978 0.03685251 25.6978459 0.0379472 30.0353241 0.04031372 C38.23017189 0.04650449 46.42496566 0.06288243 54.61978978 0.0830127 C63.95726995 0.10544695 73.29475283 0.11638397 82.63225329 0.12640357 C101.82281851 0.14725106 121.0133336 0.18237979 140.20385742 0.22705078 C140.06616973 1.8036871 139.92268411 3.37981764 139.77682495 4.95571899 C139.69755705 5.83347803 139.61828915 6.71123707 139.53661919 7.61559486 C139.03587508 11.54534672 137.87211932 15.14185228 136.58666992 18.87548828 C136.19993607 20.04345444 136.19993607 20.04345444 135.8053894 21.23501587 C134.98962309 23.69407638 134.1602121 26.14822139 133.32885742 28.60205078 C132.242175 31.8370652 131.16201426 35.0741881 130.08666992 38.31298828 C129.82911926 39.08584167 129.5715686 39.85869507 129.30621338 40.65496826 C127.51433074 46.09917009 126.00918831 51.56634768 124.74243164 57.15917969 C124.20385742 59.22705078 124.20385742 59.22705078 123.20385742 60.22705078 C121.78800106 60.32600398 120.36726057 60.35612893 118.94795227 60.35835266 C117.57056129 60.36436493 117.57056129 60.36436493 116.16534424 60.37049866 C115.14978455 60.36996994 114.13422485 60.36944122 113.08789062 60.36889648 C112.02448959 60.37237091 110.96108856 60.37584534 109.86546326 60.37942505 C107.54697001 60.38679829 105.22846963 60.39213527 102.90996742 60.39571571 C99.24104149 60.4028585 95.57225108 60.41850932 91.90336609 60.4370575 C81.46847411 60.48962508 71.03365429 60.53750227 60.59863281 60.55297852 C54.22366607 60.56305515 47.84903665 60.59237599 41.47420311 60.63429832 C39.04256936 60.64662165 36.61088797 60.65172717 34.17922401 60.64949989 C30.77471529 60.6471494 27.37117485 60.66929721 23.96679688 60.69702148 C22.45863907 60.68711937 22.45863907 60.68711937 20.92001343 60.67701721 C15.02726594 60.75581589 11.7265279 61.36353998 7.20385742 65.22705078 C0.56161808 72.32850667 -2.97385117 82.76698293 -6.95166016 91.51220703 C-7.79614258 93.22705078 -7.79614258 93.22705078 -8.79614258 94.22705078 C35.75385742 94.72205078 35.75385742 94.72205078 81.20385742 95.22705078 C78.22243345 111.62488262 72.34560239 127.37333713 67.20385742 143.22705078 C36.84385742 143.55705078 6.48385742 143.88705078 -24.79614258 144.22705078 C-26.11614258 149.50705078 -27.43614258 154.78705078 -28.79614258 160.22705078 C-29.78614258 164.18705078 -29.78614258 164.18705078 -30.79614258 168.22705078 C-31.28921793 172.44700735 -31.19729621 176.07373408 -29.79614258 180.10205078 C-20.93927448 189.51247314 1.72728372 187.91261279 13.6394043 188.35449219 C39.40732068 188.92735895 64.82040105 186.78637224 90.20385742 182.22705078 C88.92037596 189.45818141 87.04703871 196.35656754 84.82885742 203.35205078 C82.71311614 210.14839897 80.67769473 216.92952506 79.01635742 223.85205078 C77.36031123 230.74865871 75.37721851 237.47575888 73.20385742 244.22705078 C47.42386742 250.47503962 20.78824891 250.63797519 -5.58509827 250.66139984 C-7.82381207 250.66450251 -10.06245257 250.67294697 -12.30114746 250.68243408 C-27.31631841 250.7335781 -42.21653806 250.46377094 -57.16723633 248.94970703 C-58.27148453 248.84210556 -59.37573273 248.73450409 -60.51344299 248.62364197 C-74.73648971 246.99014381 -87.48636042 242.46905188 -96.79614258 231.22705078 C-110.39499215 212.02867491 -113.51421785 188.75712823 -109.88208008 165.91455078 C-108.70610765 159.31024574 -107.27351988 152.76944308 -105.79614258 146.22705078 C-105.56620605 145.17050293 -105.33626953 144.11395508 -105.09936523 143.02539062 C-101.68656138 127.38639206 -97.1736207 112.29807214 -91.79614258 97.22705078 C-91.46904297 96.31004395 -91.14194336 95.39303711 -90.80493164 94.44824219 C-87.99492 86.61954409 -85.13130593 78.84885052 -81.79614258 71.22705078 C-103.46255577 75.60950621 -103.46255577 75.60950621 -120.85864258 88.53955078 C-122.79614258 90.22705078 -122.79614258 90.22705078 -125.54614258 90.47705078 C-126.28864258 90.39455078 -127.03114258 90.31205078 -127.79614258 90.22705078 C-128.64249461 87.34432447 -128.97609467 85.72049408 -127.93286133 82.85986328 C-105.46571806 43.9814105 -76.96343838 16.10985016 -33.11645508 3.23486328 C-22.14041263 0.49597845 -11.25557854 -0.05876412 0 0 Z " fill="#000000" transform="translate(1466.796142578125,412.77294921875)"/>
<path d="M0 0 C24.42 0 48.84 0 74 0 C72.87642916 7.86499588 72.87642916 7.86499588 71.73046875 11.3125 C71.48103516 12.07949219 71.23160156 12.84648437 70.97460938 13.63671875 C70.71486328 14.41660156 70.45511719 15.19648438 70.1875 16 C68.30438926 21.6835706 66.61310674 27.37790602 65.09765625 33.171875 C63.23958329 40.27209 61.10880296 47.26878233 58.88226318 54.26290894 C57.7753558 57.74172254 56.68001669 61.22416516 55.5859375 64.70703125 C55.25548935 65.75879295 55.25548935 65.75879295 54.91836548 66.83180237 C52.47932637 74.62163985 50.18356605 82.45276154 47.8972168 90.28857422 C46.35780152 95.53241305 44.77542299 100.75001486 43.04296875 105.93359375 C38.78891262 118.66427394 35.23883867 131.46479782 32.0625 144.5 C31.86496124 145.30467712 31.66742249 146.10935425 31.46389771 146.93841553 C26.69504932 162.37684808 26.69504932 162.37684808 29.72265625 177.27734375 C33.21183295 181.98293068 37.20138054 183.19870756 42.75 184.1875 C44.82877247 184.49136428 46.91321579 184.75718294 49 185 C50.02565063 185.12918823 50.02565063 185.12918823 51.07202148 185.26098633 C58.88480929 186.16105461 66.70673807 186.28444965 74.5625 186.3125 C75.29499969 186.31545074 76.02749939 186.31840149 76.78219604 186.32144165 C98.02130005 186.34063611 119.13131824 183.64484406 139.953125 179.515625 C142.71131021 179.0488552 145.21126112 178.89516019 148 179 C144.77587807 194.04590236 140.68572061 208.77502792 136.25 223.5 C135.7379508 225.20953647 135.22623036 226.91917145 134.71484375 228.62890625 C133.48033233 232.75374445 132.24143959 236.87724191 131 241 C86.80783681 247.66692117 42.50278366 251.58354587 -2 245 C-3.00434082 244.86078125 -4.00868164 244.7215625 -5.04345703 244.578125 C-20.63671971 242.3560272 -32.1896625 238.46728907 -42.80078125 226.11328125 C-53.76045204 210.59843646 -54.10682944 190.95116777 -51.09375 172.75390625 C-48.91645224 161.41178926 -45.84415549 150.27088288 -42.52734375 139.21484375 C-41.31485011 135.15765351 -40.22350906 131.07718719 -39.15234375 126.98046875 C-37.09261413 119.14909037 -34.73762167 111.41855845 -32.34075928 103.68478394 C-29.07114732 93.13361482 -25.82335651 82.58374731 -22.875 71.9375 C-20.35078144 62.85806866 -17.35056156 53.95711922 -14.32470703 45.03417969 C-11.68157287 37.19097853 -9.26225081 29.3177261 -7.11523438 21.32421875 C-5.11955545 14.00878887 -2.58285606 7.23199697 0 0 Z " fill="#000000" transform="translate(1180,413)"/>
<path d="M0 0 C0.66 0 1.32 0 2 0 C1.06231454 7.63543875 1.06231454 7.63543875 0.42578125 11.359375 C-0.80859595 21.91386628 2.50054126 31.61146458 7 41 C7.42023437 41.95261719 7.84046875 42.90523438 8.2734375 43.88671875 C15.91900032 60.43737353 28.96853703 74.36872342 40.55078125 88.26171875 C61.25282279 113.13466676 61.25282279 113.13466676 68 127 C68.556875 128.11375 69.11375 129.2275 69.6875 130.375 C76.15706557 148.24332396 75.10182735 166.13532612 69 184 C68.34 184.66 67.68 185.32 67 186 C66.34 185.01 65.68 184.02 65 183 C64.43152344 183.45890625 63.86304688 183.9178125 63.27734375 184.390625 C55.78882982 190.34143073 50.45144866 194.29600358 40.65625 194.84765625 C38.38623335 194.97784838 36.23710269 195.24109043 34 195.625 C31 196 31 196 28 195 C25.66700175 194.96045766 23.33291811 194.95598268 21 195 C21 194.34 21 193.68 21 193 C17.7 192.67 14.4 192.34 11 192 C11 191.01 11 190.02 11 189 C10.34 189 9.68 189 9 189 C9 188.34 9 187.68 9 187 C8.42378906 186.93683594 7.84757813 186.87367188 7.25390625 186.80859375 C-3.80825223 182.84002043 -13.80483532 158.75427492 -18.8125 148.75 C-25.49127077 133.89577007 -29.17719209 117.79746355 -29.1875 101.5625 C-29.19974609 100.55123047 -29.21199219 99.53996094 -29.22460938 98.49804688 C-29.23551195 92.92683038 -28.8714708 88.25935075 -27 83 C-24 84 -24 84 -22.125 87.25390625 C-21.41114883 88.68736956 -20.7032248 90.12379383 -20 91.5625 C-10.08433363 110.96316264 2.8944939 126.56429219 20 140 C17.71649047 137.11478817 15.40319414 134.29305131 12.9375 131.5625 C-7.38770873 108.27773197 -23.12020042 81.19061839 -21.19824219 49.24658203 C-19.67440266 31.97765179 -11.93459063 12.73595403 0 0 Z " fill="#2C52A2" transform="translate(648,278)"/>
<path d="M0 0 C6.16356805 1.6658292 11.48259656 4.87805286 17 8 C16.34 8.33 15.68 8.66 15 9 C12.56442428 8.09176973 10.23804483 7.13171929 7.875 6.0625 C7.21628906 5.77181641 6.55757812 5.48113281 5.87890625 5.18164062 C4.24950495 4.46139802 2.62433868 3.73158857 1 3 C0.86537354 3.60021973 0.73074707 4.20043945 0.59204102 4.81884766 C-23.18848738 109.75326728 -23.18848738 109.75326728 -62.5 136 C-64.30901368 137.04335066 -66.14489834 138.04098544 -68 139 C-68.87422607 139.45560303 -68.87422607 139.45560303 -69.76611328 139.92041016 C-77.22318271 143.75563921 -84.55045416 147.19736611 -93 148 C-93.75667969 148.08121094 -94.51335937 148.16242188 -95.29296875 148.24609375 C-102.84620136 148.67510696 -108.89310148 145.88988065 -114.75 141.25 C-119.40163211 136.99862461 -123.52268372 131.26454707 -124.23828125 124.87109375 C-124.50901411 115.9939057 -122.0299236 108.21725467 -115.88671875 101.65625 C-104.2015157 91.398432 -89.69708055 86.45484996 -74.22509766 87.11914062 C-68.12863729 87.55482021 -62.0614124 88.22022087 -56 89 C-54.91301391 86.71000122 -53.82948745 84.41853478 -52.75 82.125 C-52.4300708 81.44550293 -52.1101416 80.76600586 -51.78051758 80.06591797 C-49.58761321 75.3669165 -47.60170066 70.63181267 -45.82421875 65.7578125 C-45 64 -45 64 -43 63 C-42.54432512 69.56318821 -43.71912608 73.48181099 -46.875 79.1875 C-47.60319686 80.55512061 -48.32980034 81.923591 -49.0546875 83.29296875 C-49.39854492 83.92895996 -49.74240234 84.56495117 -50.09667969 85.22021484 C-51.12071565 87.15060912 -51.12071565 87.15060912 -52.0703125 89.92578125 C-52.53050781 90.95251953 -52.53050781 90.95251953 -53 92 C-56.29295691 93.0976523 -57.24138949 92.88060052 -60.5078125 92.08203125 C-66.00741844 90.89812986 -71.26211724 90.65302283 -76.875 90.6875 C-78.32181152 90.69595947 -78.32181152 90.69595947 -79.79785156 90.70458984 C-92.45770336 90.9200676 -103.17671551 93.4797404 -112.55078125 102.4375 C-118.25409037 108.55013752 -121.06793553 112.86368889 -121.625 121.3125 C-121.69976562 122.38113281 -121.77453125 123.44976563 -121.8515625 124.55078125 C-121.90054687 125.35902344 -121.94953125 126.16726563 -122 127 C-121.01 127.33 -120.02 127.66 -119 128 C-116 133.22222222 -116 133.22222222 -116 136 C-115.34 136 -114.68 136 -114 136 C-112.66666667 137.33333333 -111.33333333 138.66666667 -110 140 C-104.11354531 144.6851374 -99.5576749 144.4820898 -92.37890625 143.73828125 C-77.73461965 141.60980825 -66.29870813 133.9155901 -55.1640625 124.63671875 C-53 123 -53 123 -50 122 C-49.71125 121.38125 -49.4225 120.7625 -49.125 120.125 C-48 118 -48 118 -45.71875 116.82421875 C-42.07045539 114.37629693 -40.50182131 111.46077436 -38.375 107.6875 C-37.9934375 107.03587891 -37.611875 106.38425781 -37.21875 105.71289062 C-32.86945028 98.64511315 -32.86945028 98.64511315 -30.625 90.8125 C-29.8741685 86.23242785 -28.15561354 82.61459097 -26.15625 78.453125 C-24.91822576 75.95205519 -24.91822576 75.95205519 -24 73 C-23.38253906 72.48953125 -22.76507813 71.9790625 -22.12890625 71.453125 C-18.89222733 67.72352066 -18.14818288 63.46872625 -16.9375 58.75 C-15.42161214 53.03224791 -13.86143033 47.45729214 -11.7121582 41.94433594 C-10.43196992 38.44916299 -9.54298954 34.8539872 -8.625 31.25 C-8.41584961 30.44449707 -8.20669922 29.63899414 -7.99121094 28.80908203 C-6.83370442 24.32999758 -5.71011872 19.84299322 -4.6015625 15.3515625 C-4.3751709 14.43600586 -4.1487793 13.52044922 -3.91552734 12.57714844 C-3.47720045 10.79747051 -3.04253517 9.01688611 -2.61181641 7.23535156 C-1.10919825 1.10919825 -1.10919825 1.10919825 0 0 Z " fill="#6EBED6" transform="translate(525,518)"/>
<path d="M0 0 C0.99 0.33 1.98 0.66 3 1 C3.8515625 3.38671875 3.8515625 3.38671875 4.625 6.6875 C9.14212794 23.50220818 15.97327324 39.48590853 26.7578125 53.2421875 C28 55 28 55 28 57 C28.66 57 29.32 57 30 57 C31.51497459 58.72262555 32.963193 60.50435515 34.375 62.3125 C37.06313957 65.75134076 39.51094688 68.41109072 43 71 C43 71.66 43 72.32 43 73 C43.54140625 73.22429687 44.0828125 73.44859375 44.640625 73.6796875 C47.73532294 75.41148866 50.17925605 77.71619268 52.75 80.125 C53.50990234 80.82689453 53.50990234 80.82689453 54.28515625 81.54296875 C55.52719141 82.69126541 56.76411494 83.84508672 58 85 C56.48897027 81.49824857 54.4237042 79.134517 51.8125 76.375 C47.37517627 71.54994896 43.61335928 66.46070373 40 61 C40.495 60.01 40.495 60.01 41 59 C41.68964844 59.89460938 42.37929688 60.78921875 43.08984375 61.7109375 C48.79928367 69.07354024 54.68758006 76.14074142 61 83 C62.31801158 84.4742577 63.63091212 85.95310841 64.9375 87.4375 C65.48277344 88.05496094 66.02804687 88.67242187 66.58984375 89.30859375 C68 91 68 91 70 94 C63.90005426 92.36537402 60.32915918 90.75151617 56 86 C53.36774987 83.88116089 50.69742439 81.8200773 48.01171875 79.76953125 C47.34785156 79.18558594 46.68398438 78.60164063 46 78 C46 77.34 46 76.68 46 76 C45.34 76 44.68 76 44 76 C44 75.34 44 74.68 44 74 C42.7315625 73.7215625 42.7315625 73.7215625 41.4375 73.4375 C32.95415736 69.88992035 28.10551955 61.27333936 23 54 C22.11828125 52.82824219 22.11828125 52.82824219 21.21875 51.6328125 C14.15301787 42.09407412 3 25.01964635 3 13 C2.34 13 1.68 13 1 13 C-2.2015667 40.39200904 0.19712857 68.98969836 17 92 C17.66 92.66 18.32 93.32 19 94 C19.433125 94.928125 19.86625 95.85625 20.3125 96.8125 C22.12480319 100.23573935 24.24284803 102.31354424 27 105 C28.3125 107.3125 28.3125 107.3125 29 109 C29.66 109 30.32 109 31 109 C32.515625 110.50390625 32.515625 110.50390625 34.25 112.5625 C35.178125 113.65111328 35.178125 113.65111328 36.125 114.76171875 C37.31333346 116.18029182 38.50092517 117.59948684 39.6875 119.01953125 C40.4609375 119.93798828 40.4609375 119.93798828 41.25 120.875 C41.70890625 121.42929687 42.1678125 121.98359375 42.640625 122.5546875 C44.13655398 124.25429843 44.13655398 124.25429843 47 126 C46.67 126.66 46.34 127.32 46 128 C39.97924753 123.29662736 34.35910106 118.64927078 29.47265625 112.7578125 C27.90948331 110.83193205 27.90948331 110.83193205 25.5625 108.625 C3.76426301 86.29509869 -4.54665462 57.53901985 -4.30078125 27.09375 C-4.05547864 17.79489424 -2.29503388 8.98546746 0 0 Z " fill="#46CADF" transform="translate(435,322)"/>
<path d="M0 0 C0.99 0 1.98 0 3 0 C4.76171875 1.94140625 4.76171875 1.94140625 6.6875 4.5625 C17.45146354 18.39079911 32.85071234 26.79261755 49 33 C48.34 31.68 47.68 30.36 47 29 C48.9375 29.3125 48.9375 29.3125 51 30 C51.495 31.485 51.495 31.485 52 33 C53.65204456 33.70211894 55.31923769 34.36971413 57 35 C57.33 35.66 57.66 36.32 58 37 C52.2190275 36.36934845 46.6556294 35.34844868 41 34 C41 33.34 41 32.68 41 32 C37.88091983 30.93494823 34.84589353 29.96575412 31.625 29.25 C24.73877297 26.87543895 20.07220074 22.07220074 15 17 C13.36504293 15.94895617 11.70116376 14.94011682 10 14 C9.01 13.34 8.02 12.68 7 12 C9.17372029 24.8217994 18.61962764 36.56232793 26.7578125 46.3359375 C28 48 28 48 29 51 C30.485 51.495 30.485 51.495 32 52 C33.68359375 53.7421875 33.68359375 53.7421875 35.4375 55.875 C37.27778615 58.10639842 38.8860263 59.9162724 41.22265625 61.6328125 C42.10244141 62.30957031 42.10244141 62.30957031 43 63 C43 63.66 43 64.32 43 65 C43.58265625 65.27400635 44.1653125 65.5480127 44.765625 65.83032227 C46.9461822 66.97182681 48.79131896 68.22939259 50.75 69.71484375 C51.4409375 70.23626953 52.131875 70.75769531 52.84375 71.29492188 C53.5553125 71.83697266 54.266875 72.37902344 55 72.9375 C55.7115625 73.47568359 56.423125 74.01386719 57.15625 74.56835938 C58.48548913 75.57396846 59.81373355 76.58089481 61.140625 77.58959961 C62.48277381 78.60766601 63.8510941 79.59154388 65.234375 80.55297852 C65.81703125 81.03049561 66.3996875 81.5080127 67 82 C67 82.66 67 83.32 67 84 C67.66 84 68.32 84 69 84 C68.68905914 86.54186606 68.37629464 89.08348598 68.0625 91.625 C67.97548828 92.33785156 67.88847656 93.05070313 67.79882812 93.78515625 C66.94794608 100.65524094 65.764026 107.38054857 64.1875 114.125 C64.01444336 114.86548584 63.84138672 115.60597168 63.66308594 116.36889648 C62.1424743 122.70957301 60.22116949 128.86815445 58 135 C57.34 135 56.68 135 56 135 C55.89558594 135.64453125 55.79117188 136.2890625 55.68359375 136.953125 C54.77564337 140.99998957 53.43695471 144.84087941 52.0625 148.75 C51.66514648 149.91982422 51.66514648 149.91982422 51.25976562 151.11328125 C49.23867455 156.88066272 49.23867455 156.88066272 47 158 C49.68139848 149.0010642 49.68139848 149.0010642 50.82836914 145.3972168 C54.0029183 135.37611061 56.68018029 125.226634 59.3737793 115.06787109 C60.19333454 111.97800276 61.01728835 108.88933111 61.84179688 105.80078125 C62.36744474 103.82558927 62.89284441 101.85033122 63.41796875 99.875 C63.6627446 98.95726807 63.90752045 98.03953613 64.15971375 97.09399414 C64.38697647 96.23539795 64.6142392 95.37680176 64.84838867 94.4921875 C65.04728195 93.74308105 65.24617523 92.99397461 65.45109558 92.22216797 C66.04273294 89.82700125 66.53282185 87.42224486 67 85 C66.44699219 84.73445313 65.89398438 84.46890625 65.32421875 84.1953125 C56.93820744 79.88250669 49.87340539 74.39239359 43 68 C41.62875288 66.80816839 40.25386076 65.6205149 38.875 64.4375 C30.96696599 57.51400035 30.96696599 57.51400035 28 54 C28 53.34 28 52.68 28 52 C27.34 52 26.68 52 26 52 C14.48945739 38.65782658 0 18.50707158 0 0 Z " fill="#56D0E0" transform="translate(435,421)"/>
<path d="M0 0 C0.99 0 1.98 0 3 0 C3.13462646 0.76739502 3.26925293 1.53479004 3.40795898 2.32543945 C7.4519195 24.93233703 13.58967882 45.99539804 22.06225586 67.39819336 C23 70 23 70 23 72 C22.01 72 21.02 72 20 72 C13.88784167 57.38595018 8.27713118 42.84769119 5.4609375 27.19921875 C4.8067745 24.07808512 3.78412547 21.12305084 2.73046875 18.1171875 C1.69309041 15.11045457 0.84776058 12.06498056 0 9 C-4.14072882 14.50528718 -7.30302146 20.36100274 -10.25 26.5625 C-10.59095703 27.27011475 -10.93191406 27.97772949 -11.28320312 28.70678711 C-15.23607057 37.19503949 -16.84342303 45.95809685 -17.53515625 55.2734375 C-17.66567383 57.00400391 -17.66567383 57.00400391 -17.79882812 58.76953125 C-17.88583984 59.95933594 -17.97285156 61.14914062 -18.0625 62.375 C-18.15337891 63.58800781 -18.24425781 64.80101562 -18.33789062 66.05078125 C-18.56102101 69.03368213 -18.78164339 72.0167465 -19 75 C-18.67 75 -18.34 75 -18 75 C-17.0234375 79.8828125 -16.046875 84.765625 -15.0703125 89.6484375 C-14.89145508 90.52854492 -14.71259766 91.40865234 -14.52832031 92.31542969 C-14.17231966 94.12438679 -13.83875406 95.9378862 -13.52636719 97.75488281 C-13.29288574 99.07117676 -13.29288574 99.07117676 -13.0546875 100.4140625 C-12.92304199 101.19990723 -12.79139648 101.98575195 -12.65576172 102.79541016 C-11.88850127 105.37484494 -10.68024129 106.91633049 -9 109 C-5.1410873 116.12144799 -1.64625741 123.33978118 1 131 C1.66066719 132.66905395 2.32438252 134.3369416 3 136 C-12.60010496 122.26473517 -20.72408815 92.93923325 -22.14257812 72.99536133 C-23.33476127 47.9443089 -15.69663353 26.20942401 -3 5 C-2.47792969 4.02417969 -1.95585937 3.04835937 -1.41796875 2.04296875 C-0.95003906 1.36878906 -0.48210937 0.69460937 0 0 Z " fill="#68DCE7" transform="translate(471,244)"/>
<path d="M0 0 C0.66 0 1.32 0 2 0 C1.06231454 7.63543875 1.06231454 7.63543875 0.42578125 11.359375 C-0.68194589 20.83095021 1.87585617 29.66627321 5.7578125 38.22265625 C7.47686309 42.06619389 8.72975775 45.98870869 10 50 C7.00371914 48.95809672 6.06688253 48.11103482 4.40234375 45.34765625 C-0.40338164 34.57001611 -3.33794128 24.80290889 -4 13 C-8.82065929 19.80563665 -11.56278451 27.10390463 -14.2722168 34.9296875 C-14.76617263 36.33483525 -15.28693865 37.73078765 -15.83129883 39.1171875 C-18.09825341 45.16779242 -18.50265649 50.69389324 -18.4375 57.125 C-18.43355225 58.13038818 -18.42960449 59.13577637 -18.42553711 60.17163086 C-18.2851128 67.51423563 -17.22108381 73.97047494 -14.97265625 80.94140625 C-14.01308748 83.95884538 -13.44718591 86.8696986 -13 90 C-15.90687072 86.65294599 -16.9562056 83.43473321 -18.125 79.1875 C-18.62386719 77.41439453 -18.62386719 77.41439453 -19.1328125 75.60546875 C-24.77866889 52.13193068 -19.23230514 29.41833643 -6.83837891 9.09521484 C-4.75952982 5.89843483 -2.60976056 2.78499628 0 0 Z " fill="#61A0C7" transform="translate(648,278)"/>
<path d="M0 0 C3 0 3 0 4.68359375 1.64453125 C5.26238281 2.35996094 5.84117187 3.07539063 6.4375 3.8125 C8.27742445 6.07227299 9.87016664 7.90439336 12.22265625 9.63671875 C12.80917969 10.08660156 13.39570313 10.53648437 14 11 C14 11.66 14 12.32 14 13 C14.58265625 13.27400635 15.1653125 13.5480127 15.765625 13.83032227 C17.9461822 14.97182681 19.79131896 16.22939259 21.75 17.71484375 C22.4409375 18.23626953 23.131875 18.75769531 23.84375 19.29492188 C24.5553125 19.83697266 25.266875 20.37902344 26 20.9375 C26.7115625 21.47568359 27.423125 22.01386719 28.15625 22.56835938 C29.48548913 23.57396846 30.81373355 24.58089481 32.140625 25.58959961 C33.48277381 26.60766601 34.8510941 27.59154388 36.234375 28.55297852 C37.10835938 29.26925415 37.10835938 29.26925415 38 30 C38 30.66 38 31.32 38 32 C38.66 32 39.32 32 40 32 C39.68905914 34.54186606 39.37629464 37.08348598 39.0625 39.625 C38.97548828 40.33785156 38.88847656 41.05070313 38.79882812 41.78515625 C37.94794608 48.65524094 36.764026 55.38054857 35.1875 62.125 C35.01444336 62.86548584 34.84138672 63.60597168 34.66308594 64.36889648 C33.1424743 70.70957301 31.22116949 76.86815445 29 83 C28.34 83 27.68 83 27 83 C26.89558594 83.64453125 26.79117187 84.2890625 26.68359375 84.953125 C25.77564337 88.99998957 24.43695471 92.84087941 23.0625 96.75 C22.79759766 97.52988281 22.53269531 98.30976562 22.25976562 99.11328125 C20.23867455 104.88066272 20.23867455 104.88066272 18 106 C20.68139848 97.0010642 20.68139848 97.0010642 21.82836914 93.3972168 C25.0029183 83.37611061 27.68018029 73.226634 30.3737793 63.06787109 C31.19333454 59.97800276 32.01728835 56.88933111 32.84179688 53.80078125 C33.36744474 51.82558927 33.89284441 49.85033122 34.41796875 47.875 C34.6627446 46.95726807 34.90752045 46.03953613 35.15971375 45.09399414 C35.38697647 44.23539795 35.6142392 43.37680176 35.84838867 42.4921875 C36.04728195 41.74308105 36.24617523 40.99397461 36.45109558 40.22216797 C37.04273294 37.82700125 37.53282185 35.42224486 38 33 C37.44828125 32.73316406 36.8965625 32.46632813 36.328125 32.19140625 C28.61490186 28.24420313 22.44272345 23.87108537 16.8984375 17.1953125 C14.47937136 14.39795619 11.78035912 12.08934397 8.96484375 9.703125 C5.81854111 6.97591238 2.79327015 4.0900551 0 1 C0 0.67 0 0.34 0 0 Z " fill="#53BCD7" transform="translate(464,473)"/>
<path d="M0 0 C2.10564685 2.10564685 2.63274442 3.32764985 3.62890625 6.078125 C3.93739502 6.903125 4.24588379 7.728125 4.5637207 8.578125 C4.89331787 9.45984375 5.22291504 10.3415625 5.5625 11.25 C9.40126027 21.21234778 14.16164628 29.82063915 20.76171875 38.25 C22 40 22 40 22 42 C22.66 42 23.32 42 24 42 C25.51497459 43.72262555 26.963193 45.50435515 28.375 47.3125 C31.06313957 50.75134076 33.51094688 53.41109072 37 56 C37 56.66 37 57.32 37 58 C37.54140625 58.22429687 38.0828125 58.44859375 38.640625 58.6796875 C41.73532294 60.41148866 44.17925605 62.71619268 46.75 65.125 C47.50990234 65.82689453 47.50990234 65.82689453 48.28515625 66.54296875 C49.52719141 67.69126541 50.76411494 68.84508672 52 70 C50.48897027 66.49824857 48.4237042 64.134517 45.8125 61.375 C41.37517627 56.54994896 37.61335928 51.46070373 34 46 C34.495 45.01 34.495 45.01 35 44 C35.68964844 44.89460938 36.37929688 45.78921875 37.08984375 46.7109375 C42.79928367 54.07354024 48.68758006 61.14074142 55 68 C56.31801158 69.4742577 57.63091212 70.95310841 58.9375 72.4375 C59.48277344 73.05496094 60.02804687 73.67242187 60.58984375 74.30859375 C62 76 62 76 64 79 C57.90005426 77.36537402 54.32915918 75.75151617 50 71 C47.36774987 68.88116089 44.69742439 66.8200773 42.01171875 64.76953125 C41.34785156 64.18558594 40.68398438 63.60164063 40 63 C40 62.34 40 61.68 40 61 C39.34 61 38.68 61 38 61 C38 60.34 38 59.68 38 59 C36.7315625 58.7215625 36.7315625 58.7215625 35.4375 58.4375 C26.95980196 54.89228082 22.09486067 46.27550123 17 39 C16.37738281 38.14921875 15.75476563 37.2984375 15.11328125 36.421875 C7.09601896 25.36118343 2.03286045 13.57950781 0 0 Z " fill="#67CBDB" transform="translate(441,337)"/>
<path d="M0 0 C1.44457014 2.88914028 1.2912975 4.76958536 1 8 C-0.06433394 10.81205955 -1.44843995 13.41916814 -2.875 16.0625 C-3.60329103 17.44831173 -4.32989643 18.83501081 -5.0546875 20.22265625 C-5.57047363 21.19549561 -5.57047363 21.19549561 -6.09667969 22.18798828 C-7.11654375 24.14877879 -7.11654375 24.14877879 -8.0703125 26.93359375 C-8.37710938 27.61550781 -8.68390625 28.29742188 -9 29 C-12.29295691 30.0976523 -13.24138949 29.88060052 -16.5078125 29.08203125 C-22.00741844 27.89812986 -27.26211724 27.65302283 -32.875 27.6875 C-33.83954102 27.69313965 -34.80408203 27.6987793 -35.79785156 27.70458984 C-48.45770336 27.9200676 -59.17671551 30.4797404 -68.55078125 39.4375 C-75.06947962 46.42404754 -77.54060975 51.24710623 -77.38671875 60.859375 C-76.52242819 67.87846193 -72.67076891 73.81025677 -68 79 C-73.59710515 76.63758549 -76.41690634 71.73443451 -79.375 66.625 C-81.32538886 58.43336677 -79.96197819 51.35263664 -76 44 C-70.27480071 34.86913553 -59.17515819 28.83269639 -49 26 C-36.4626891 23.25657482 -24.62487167 24.37585519 -12 26 C-8.35994086 18.33133609 -4.74093904 10.70003937 -1.7265625 2.7578125 C-1 1 -1 1 0 0 Z " fill="#6BC9DB" transform="translate(481,581)"/>
<path d="M0 0 C3 1 3 1 4.875 4.25390625 C5.58885117 5.68736956 6.2967752 7.12379383 7 8.5625 C16.91566637 27.96316264 29.8944939 43.56429219 47 57 C45.68 55.35 44.36 53.7 43 52 C43.495 51.01 43.495 51.01 44 50 C48.62 54.62 53.24 59.24 58 64 C48.8288548 64 40.31212965 54.42220404 33.921875 48.578125 C31.98358828 46.90267082 31.98358828 46.90267082 29.49609375 45.53125 C20.88330494 40.24766124 15.37915917 30.01675634 10.05615234 21.65820312 C9.1232858 20.19356384 8.16688361 18.74397267 7.20703125 17.296875 C6 15 6 15 6 11 C5.34 11 4.68 11 4 11 C3.67 9.68 3.34 8.36 3 7 C2.34 7 1.68 7 1 7 C1.01160156 7.63808594 1.02320313 8.27617187 1.03515625 8.93359375 C1.04417969 9.75988281 1.05320312 10.58617187 1.0625 11.4375 C1.07410156 12.26121094 1.08570313 13.08492188 1.09765625 13.93359375 C1 16 1 16 0 17 C-0.23481693 19.18292774 -0.41363323 21.37203174 -0.5625 23.5625 C-0.64628906 24.76003906 -0.73007812 25.95757812 -0.81640625 27.19140625 C-0.87699219 28.11824219 -0.93757812 29.04507812 -1 30 C-1.33 30 -1.66 30 -2 30 C-2.05850924 26.31256766 -2.09376673 22.6252563 -2.125 18.9375 C-2.14175781 17.89916016 -2.15851562 16.86082031 -2.17578125 15.79101562 C-2.21183286 10.11288716 -1.92971166 5.35608946 0 0 Z " fill="#4378B3" transform="translate(621,361)"/>
<path d="M0 0 C0.99 0.495 0.99 0.495 2 1 C-6.21998671 15.64185132 -23.14962145 25.03794604 -38.86328125 29.8828125 C-41.25347276 30.41066195 -43.5644203 30.76864096 -46 31 C-46.75667969 31.08121094 -47.51335937 31.16242187 -48.29296875 31.24609375 C-54.1853358 31.58077209 -59.12650692 30.39250225 -64 27 C-74 16.65635739 -74 16.65635739 -74 10 C-70.96130589 11.51934706 -70.35589694 13.98004772 -69 17 C-69 17.66 -69 18.32 -69 19 C-68.34 19 -67.68 19 -67 19 C-65.66666667 20.33333333 -64.33333333 21.66666667 -63 23 C-57.11354531 27.6851374 -52.5576749 27.4820898 -45.37890625 26.73828125 C-30.73461965 24.60980825 -19.29870813 16.9155901 -8.1640625 7.63671875 C-6 6 -6 6 -3 5 C-1.8499169 3.03327085 -1.8499169 3.03327085 -1 1 C-0.67 0.67 -0.34 0.34 0 0 Z " fill="#64C2D8" transform="translate(478,635)"/>
<path d="M0 0 C0.33 0 0.66 0 1 0 C1 9.9 1 19.8 1 30 C1.33 30 1.66 30 2 30 C2.9765625 34.8828125 3.953125 39.765625 4.9296875 44.6484375 C5.10854492 45.52854492 5.28740234 46.40865234 5.47167969 47.31542969 C5.82768034 49.12438679 6.16124594 50.9378862 6.47363281 52.75488281 C6.62928711 53.63241211 6.78494141 54.50994141 6.9453125 55.4140625 C7.07695801 56.19990723 7.20860352 56.98575195 7.34423828 57.79541016 C8.11149873 60.37484494 9.31975871 61.91633049 11 64 C14.8589127 71.12144799 18.35374259 78.33978118 21 86 C21.66066719 87.66905395 22.32438252 89.3369416 23 91 C7.86437007 77.67368675 -0.22417464 49.35517117 -2 30 C-2.15094449 27.0816285 -2.1900326 24.17198767 -2.1875 21.25 C-2.18814453 20.47156738 -2.18878906 19.69313477 -2.18945312 18.89111328 C-2.13108245 12.45839997 -1.3813047 6.2898696 0 0 Z " fill="#6ED9E5" transform="translate(451,289)"/>
<path d="M0 0 C1.17278847 3.5183654 0.82598398 4.07539821 -0.58984375 7.359375 C-1.14212646 8.65161987 -1.14212646 8.65161987 -1.70556641 9.9699707 C-2.11210449 10.88738037 -2.51864258 11.80479004 -2.9375 12.75 C-3.34919434 13.68996826 -3.76088867 14.62993652 -4.18505859 15.59838867 C-12.07141932 33.37070371 -20.54333162 45.92447783 -36 58 C-36.66 57.67 -37.32 57.34 -38 57 C-37.071875 56.278125 -36.14375 55.55625 -35.1875 54.8125 C-33.16819722 53.1352137 -31.98306288 51.97151484 -30.625 49.6875 C-29.02617237 47.04328508 -27.49839902 45.52222246 -25.25 43.4375 C-16.55596532 34.85411667 -12.18174853 23.32963515 -7.37548828 12.30224609 C-6.96669434 11.3736377 -6.55790039 10.4450293 -6.13671875 9.48828125 C-5.77280029 8.64821533 -5.40888184 7.80814941 -5.03393555 6.94262695 C-4 5 -4 5 -2 4 C-0.86649466 1.98330173 -0.86649466 1.98330173 0 0 Z " fill="#537DB6" transform="translate(675,595)"/>
<path d="M0 0 C10.70290841 -0.20986095 21.35536999 0.99739958 32 2 C32 2.66 32 3.32 32 4 C51.11420008 4.25061483 70.10593509 4.36096347 89 1 C88.42978066 6.3503559 87.79265639 11.67787852 87 17 C86.34 17 85.68 17 85 17 C85.66 12.71 86.32 8.42 87 4 C85.37835937 4.2165625 83.75671875 4.433125 82.0859375 4.65625 C54.73664616 8.16224948 26.79286248 8.64735549 0 1 C0 0.67 0 0.34 0 0 Z " fill="#79A0C4" transform="translate(581,539)"/>
<path d="M0 0 C1.53166168 4.08443115 0.63081652 7.79455657 0 12 C-0.99 12.33 -1.98 12.66 -3 13 C-3.11472656 13.84820313 -3.22945312 14.69640625 -3.34765625 15.5703125 C-4.03864934 19.20319834 -5.13895262 22.41477582 -6.4375 25.875 C-7.82240447 29.63234026 -9.15660893 33.25864181 -9.9375 37.1875 C-11.69094289 43.47926565 -14.45709627 50.30473084 -20 54 C-22.2265625 54.01171875 -22.2265625 54.01171875 -24.625 53.6875 C-25.42164063 53.58824219 -26.21828125 53.48898437 -27.0390625 53.38671875 C-29 53 -29 53 -30 52 C-31.34015221 51.84417697 -32.68758903 51.74955858 -34.03515625 51.68359375 C-35.24848633 51.62075195 -35.24848633 51.62075195 -36.48632812 51.55664062 C-37.7615332 51.49766602 -37.7615332 51.49766602 -39.0625 51.4375 C-40.34350586 51.37272461 -40.34350586 51.37272461 -41.65039062 51.30664062 C-43.76672037 51.20023298 -45.88333813 51.09958269 -48 51 C-48 50.67 -48 50.34 -48 50 C-44.83447255 49.77117759 -41.66773036 49.57075862 -38.5 49.375 C-37.1696875 49.27832031 -37.1696875 49.27832031 -35.8125 49.1796875 C-30.08030906 48.8424998 -25.49640463 49.31768924 -20 51 C-19.731875 50.2884375 -19.46375 49.576875 -19.1875 48.84375 C-17.97039869 45.92911265 -16.51633462 43.27022671 -15 40.5 C-8.83304646 28.73086314 -5.16284281 15.57576042 -1 3 C-0.67 2.01 -0.34 1.02 0 0 Z " fill="#5588BB" transform="translate(664,561)"/>
<path d="M0 0 C0.99 0.33 1.98 0.66 3 1 C2.54109375 1.4125 2.0821875 1.825 1.609375 2.25 C-4.43514966 7.93896438 -8.09364016 12.97116659 -8.625 21.4375 C-8.4002141 27.42346516 -6.12127551 31.70886715 -2 36 C5.63855378 41.43976875 15.06124852 41.48979191 24 40 C24.33 40.66 24.66 41.32 25 42 C21.37236827 43.20921058 18.02665683 43.18405415 14.25 43.1875 C13.5590625 43.19974609 12.868125 43.21199219 12.15625 43.22460938 C5.5752842 43.24316473 -0.60514709 42.28462385 -5.64453125 37.6640625 C-10.24610536 32.01486777 -11.79318751 24.89779206 -11.51953125 17.7421875 C-10.15956543 10.56402204 -5.36542233 4.73419617 0 0 Z " fill="#2578B7" transform="translate(593,620)"/>
<path d="M0 0 C2.89908098 4.34862147 4.39990811 9.10830002 6.1875 14 C6.56841797 15.010625 6.94933594 16.02125 7.34179688 17.0625 C7.69693359 18.031875 8.05207031 19.00125 8.41796875 20 C8.74563232 20.886875 9.0732959 21.77375 9.41088867 22.6875 C10 25 10 25 9 28 C7.8265684 25.39869373 6.66107492 22.79431492 5.5 20.1875 C5.16613281 19.44951172 4.83226562 18.71152344 4.48828125 17.95117188 C4.01455078 16.88286133 4.01455078 16.88286133 3.53125 15.79296875 C3.23798828 15.1383667 2.94472656 14.48376465 2.64257812 13.80932617 C2 12 2 12 2 9 C1.34 9 0.68 9 0 9 C-0.85687879 16.14586159 -1.15863672 23.18094753 -1.125 30.375 C-1.12306641 31.37926025 -1.12113281 32.38352051 -1.11914062 33.41821289 C-1.07888381 40.32393466 -0.82638815 47.13802701 0 54 C-4.59963996 47.10054006 -4.38603236 38.0598277 -4.375 30 C-4.37628906 29.0112085 -4.37757813 28.02241699 -4.37890625 27.00366211 C-4.24659937 17.64670903 -2.51156583 8.98109032 0 0 Z " fill="#1EDDEC" transform="translate(436,326)"/>
<path d="M0 0 C0.66 0.99 1.32 1.98 2 3 C1.6596875 3.45246094 1.319375 3.90492188 0.96875 4.37109375 C-2.68491367 9.51148758 -5.55036002 14.88149157 -8.25 20.5625 C-8.59095703 21.27011475 -8.93191406 21.97772949 -9.28320312 22.70678711 C-13.16934247 31.05174986 -14.79679728 39.68028633 -15.53515625 48.8359375 C-15.62216797 49.89941406 -15.70917969 50.96289062 -15.79882812 52.05859375 C-15.88583984 53.15300781 -15.97285156 54.24742187 -16.0625 55.375 C-16.15337891 56.49261719 -16.24425781 57.61023438 -16.33789062 58.76171875 C-16.5608499 61.50763829 -16.78148118 64.25372413 -17 67 C-17.33 67 -17.66 67 -18 67 C-18.284528 51.57225981 -18.42080546 36.72975377 -13.0625 22.0625 C-12.80968262 21.36930664 -12.55686523 20.67611328 -12.29638672 19.96191406 C-11.53515625 18.03515625 -11.53515625 18.03515625 -10 15 C-9.01 14.67 -8.02 14.34 -7 14 C-6.28050817 12.35544725 -5.63028587 10.68076231 -5 9 C-3.39384686 5.96559042 -1.70190796 2.98158684 0 0 Z " fill="#26DCEB" transform="translate(469,250)"/>
<path d="M0 0 C3.67151453 3.57228441 7.02502566 7.3209982 10.3125 11.25 C15.25762589 17.08925424 20.38684121 22.73504401 25.625 28.3125 C26.32407471 29.05983398 27.02314941 29.80716797 27.7434082 30.57714844 C28.39784912 31.26969727 29.05229004 31.96224609 29.7265625 32.67578125 C30.31002441 33.29364502 30.89348633 33.91150879 31.49462891 34.5480957 C32.95646859 36.10282886 32.95646859 36.10282886 35 37 C35 37.66 35 38.32 35 39 C35.87785156 39.38285156 35.87785156 39.38285156 36.7734375 39.7734375 C39.22137407 41.12194993 40.71866736 42.5888745 42.625 44.625 C46.40232113 48.51528774 50.45439874 51.83359809 54.72265625 55.16796875 C57.36091711 57.29034327 59.68696816 59.53276604 62 62 C54.72302132 59.72594416 49.20781656 54.34856836 44 49 C43.175 48.34 42.35 47.68 41.5 47 C38.7846112 44.82768896 36.35583364 42.55776223 34 40 C34 39.34 34 38.68 34 38 C33.44828125 37.773125 32.8965625 37.54625 32.328125 37.3125 C29.31307583 35.61274074 27.18769631 33.45195184 24.75 31 C23.85796875 30.113125 22.9659375 29.22625 22.046875 28.3125 C20 26 20 26 20 24 C19.34 24 18.68 24 18 24 C16.43567213 22.30725716 14.94671428 20.54430148 13.5 18.75 C12.7059375 17.77546875 11.911875 16.8009375 11.09375 15.796875 C9.41251966 13.55105238 8.11864101 11.5534197 7 9 C6.34 9 5.68 9 5 9 C3.7109375 7.5390625 3.7109375 7.5390625 2.375 5.625 C1.92898438 4.99851562 1.48296875 4.37203125 1.0234375 3.7265625 C0 2 0 2 0 0 Z " fill="#73BED3" transform="translate(527,372)"/>
<path d="M0 0 C2.10564685 2.10564685 2.63274442 3.32764985 3.62890625 6.078125 C3.93731445 6.9028833 4.24572266 7.7276416 4.56347656 8.57739258 C4.8931543 9.45935303 5.22283203 10.34131348 5.5625 11.25 C8.60172095 19.13995895 12.12334953 26.00952585 16.921875 32.95703125 C18.41308744 35.14059233 19.705959 37.2235355 20.96875 39.52734375 C23.47414997 44.00188937 26.8255936 47.68245971 30.171875 51.546875 C32 54 32 54 32 57 C26.1011473 51.598863 21.5752454 45.53348652 17 39 C16.37738281 38.14921875 15.75476563 37.2984375 15.11328125 36.421875 C7.09601896 25.36118343 2.03286045 13.57950781 0 0 Z " fill="#64D9E5" transform="translate(441,337)"/>
<path d="M0 0 C1.2451342 2.4902684 0.92184357 3.63334168 0.5625 6.375 C-1.48457138 25.48099958 2.35854973 42.36006939 11.20703125 59.3125 C12.2762493 61.58788029 12.13767092 63.52192338 12 66 C5.77571109 60.33662085 3.45094961 52.00058878 1.69140625 44.02734375 C1.05702741 41.04483817 1.05702741 41.04483817 0.15234375 38.37890625 C-2.05627748 31.30104564 -2.28777886 24.48212606 -2.3125 17.125 C-2.32059692 15.6258606 -2.32059692 15.6258606 -2.32885742 14.09643555 C-2.27967795 9.01469913 -2.02192305 4.75272748 0 0 Z " fill="#1D7CB9" transform="translate(631,318)"/>
<path d="M0 0 C0.99 0.33 1.98 0.66 3 1 C3.984375 3.3984375 3.984375 3.3984375 4.75 6.375 C5.01296875 7.35210937 5.2759375 8.32921875 5.546875 9.3359375 C6 12 6 12 5 15 C4.01 12.36 3.02 9.72 2 7 C-1.86330546 15.2785117 -2.36093225 24.25446539 -2.3125 33.25 C-2.31121094 34.25345459 -2.30992187 35.25690918 -2.30859375 36.29077148 C-2.21937222 43.21938082 -1.48145658 49.45928209 0.34375 56.16015625 C1.04465266 59.19322906 1.1106296 61.89776151 1 65 C-8.18442588 51.22336119 -5.4565411 26.29811733 -2.56274414 10.98120117 C-1.78602413 7.29776235 -0.9316181 3.64745121 0 0 Z " fill="#98E1E7" transform="translate(435,322)"/>
<path d="M0 0 C3 0 3 0 4.68359375 1.64453125 C5.26238281 2.35996094 5.84117187 3.07539063 6.4375 3.8125 C8.27742445 6.07227299 9.87016664 7.90439336 12.22265625 9.63671875 C12.80917969 10.08660156 13.39570313 10.53648437 14 11 C14 11.66 14 12.32 14 13 C14.58265625 13.27473145 15.1653125 13.54946289 15.765625 13.83251953 C17.93631316 14.96672307 19.7912741 16.21418416 21.75 17.6796875 C22.4409375 18.19660156 23.131875 18.71351563 23.84375 19.24609375 C24.5553125 19.78363281 25.266875 20.32117188 26 20.875 C27.06734375 21.66970703 27.06734375 21.66970703 28.15625 22.48046875 C31.67870068 25.1288785 34.9919739 27.75697186 38 31 C29.32546544 29.71488377 22.82193679 24.74158602 17.375 17.9375 C14.85002157 14.81450036 12.11371326 12.40647767 9.0703125 9.80859375 C5.89666611 7.03614417 2.82726223 4.12765885 0 1 C0 0.67 0 0.34 0 0 Z " fill="#3BBCD8" transform="translate(464,473)"/>
<path d="M0 0 C0.33 0.66 0.66 1.32 1 2 C1.66 2 2.32 2 3 2 C3.32871094 2.95777344 3.65742187 3.91554688 3.99609375 4.90234375 C7.05418935 13.53773978 10.60980296 21.5146848 15.27905273 29.41381836 C16.4375 31.453125 16.4375 31.453125 18 35 C17.25 37.484375 17.25 37.484375 16 39 C8.8526183 27.87312372 0 13.55586367 0 0 Z " fill="#6A91BE" transform="translate(623,405)"/>
<path d="M0 0 C0.33 0.66 0.66 1.32 1 2 C1.66 2 2.32 2 3 2 C4.55065995 6.34078132 6.09884863 10.68243309 7.64477539 15.02490234 C8.17079285 16.50138006 8.69747931 17.97761962 9.22485352 19.45361328 C9.98370457 21.57782406 10.74012868 23.70288572 11.49609375 25.828125 C11.73154404 26.48556702 11.96699432 27.14300903 12.20957947 27.82037354 C13.28621316 30.8540865 14.3037166 33.85460036 15 37 C14.01 37 13.02 37 12 37 C0 7.85152838 0 7.85152838 0 0 Z " fill="#4CD2E4" transform="translate(479,279)"/>
<path d="M0 0 C4.30460122 1.43486707 5.27656048 4.62100893 7.25 8.4375 C7.62640625 9.13166016 8.0028125 9.82582031 8.390625 10.54101562 C9.33039534 12.32554276 10.17313528 14.16043481 11 16 C10.67 16.66 10.34 17.32 10 18 C8 16.75 8 16.75 6 15 C6 13.68 6 12.36 6 11 C5.34 11 4.68 11 4 11 C3.67 9.68 3.34 8.36 3 7 C2.34 7 1.68 7 1 7 C1.01160156 7.63808594 1.02320313 8.27617187 1.03515625 8.93359375 C1.04417969 9.75988281 1.05320312 10.58617187 1.0625 11.4375 C1.07410156 12.26121094 1.08570313 13.08492188 1.09765625 13.93359375 C1 16 1 16 0 17 C-0.23481693 19.18292774 -0.41363323 21.37203174 -0.5625 23.5625 C-0.64628906 24.76003906 -0.73007812 25.95757812 -0.81640625 27.19140625 C-0.87699219 28.11824219 -0.93757812 29.04507812 -1 30 C-1.33 30 -1.66 30 -2 30 C-2.05850924 26.31256766 -2.09376673 22.6252563 -2.125 18.9375 C-2.14175781 17.89916016 -2.15851562 16.86082031 -2.17578125 15.79101562 C-2.21183286 10.11288716 -1.92971166 5.35608946 0 0 Z " fill="#5D9BC4" transform="translate(621,361)"/>
<path d="M0 0 C0.66 0 1.32 0 2 0 C6.41061518 14.09821639 5.65678758 26.87348133 2 41 C1.01 41 0.02 41 -1 41 C-0.86722656 40.42894531 -0.73445312 39.85789062 -0.59765625 39.26953125 C2.33947278 25.78446438 1.84025929 13.5510002 0 0 Z " fill="#2B2F81" transform="translate(717,413)"/>
<path d="M0 0 C1.27394609 3.82183826 0.51075414 5.4570446 -0.625 9.30078125 C-0.80744766 9.92586578 -0.98989532 10.55095032 -1.1778717 11.19497681 C-1.77659794 13.23681545 -2.38795945 15.27461657 -3 17.3125 C-3.41382193 18.71217564 -3.8271495 20.11199753 -4.23999023 21.51196289 C-7.66017184 33.06054684 -11.26341388 44.54994672 -15 56 C-17.05859375 52.234375 -17.05859375 52.234375 -16.53125 50.125 C-16.1909375 49.42375 -15.850625 48.7225 -15.5 48 C-13.23360148 42.83169256 -11.58860177 37.59236905 -10 32.1875 C-9.7424292 31.31504639 -9.4848584 30.44259277 -9.21948242 29.54370117 C-8.71217824 27.82208284 -8.20588607 26.10016593 -7.70068359 24.37792969 C-5.29110873 16.20048746 -2.73688203 8.07380198 0 0 Z " fill="#7995BE" transform="translate(705,502)"/>
<path d="M0 0 C0.66 0 1.32 0 2 0 C2.27972656 0.92039062 2.55945313 1.84078125 2.84765625 2.7890625 C5.75136051 12.05649245 9.46518089 20.41393255 14 29 C15.00458451 30.99770117 16.00602861 32.99699704 17 35 C16.34 35 15.68 35 15 35 C13.63636792 33.02053408 12.30581356 31.0180755 11 29 C10.30583984 28.39285156 10.30583984 28.39285156 9.59765625 27.7734375 C7.13560037 25.04049528 5.82985874 21.77477723 4.375 18.4375 C4.06232178 17.72529297 3.74964355 17.01308594 3.42749023 16.27929688 C1.16145926 10.89297962 -0.09914632 5.89212397 0 0 Z " fill="#60D8E5" transform="translate(435,380)"/>
<path d="M0 0 C0.66 0.33 1.32 0.66 2 1 C1.20335937 1.76183594 1.20335937 1.76183594 0.390625 2.5390625 C-6.15676668 8.91918505 -11.05172635 14.02592735 -11.375 23.5625 C-11.31270474 32.13848023 -7.67821511 38.6908721 -2 45 C-7.59710515 42.63758549 -10.41690634 37.73443451 -13.375 32.625 C-15.31769831 24.46566708 -13.99931728 17.31163527 -10 10 C-7.21048652 6.03202895 -4.08084966 2.66824785 0 0 Z " fill="#86D6E1" transform="translate(415,615)"/>
<path d="M0 0 C6.16356805 1.6658292 11.48259656 4.87805286 17 8 C16.01 8.495 16.01 8.495 15 9 C12.56442428 8.09176973 10.23804483 7.13171929 7.875 6.0625 C7.21628906 5.77181641 6.55757812 5.48113281 5.87890625 5.18164062 C4.24950495 4.46139802 2.62433868 3.73158857 1 3 C0.823479 3.73637695 0.64695801 4.47275391 0.46508789 5.23144531 C-0.33557594 8.57101124 -1.13653473 11.91050636 -1.9375 15.25 C-2.21529297 16.40886719 -2.49308594 17.56773437 -2.77929688 18.76171875 C-3.04677734 19.87675781 -3.31425781 20.99179687 -3.58984375 22.140625 C-3.83597412 23.16704102 -4.08210449 24.19345703 -4.33569336 25.25097656 C-4.8800114 27.50346502 -5.43354843 29.75299707 -6 32 C-6.66 32 -7.32 32 -8 32 C-8.33 32.66 -8.66 33.32 -9 34 C-7.84215839 27.47398367 -6.27626277 21.13001941 -4.5 14.75 C-4.17962769 13.59781982 -4.17962769 13.59781982 -3.8527832 12.42236328 C-2.67491563 8.24154568 -1.41325886 4.10891928 0 0 Z " fill="#46ADCE" transform="translate(525,518)"/>
<path d="M0 0 C10.70290841 -0.20986095 21.35536999 0.99739958 32 2 C32.495 3.485 32.495 3.485 33 5 C32 6 32 6 29.98046875 6.01953125 C19.81660636 5.26612607 9.94859299 3.12403936 0 1 C0 0.67 0 0.34 0 0 Z " fill="#4A92C2" transform="translate(581,539)"/>
<path d="M0 0 C5.32404449 4.49585979 10.45611689 9.16919301 15.546875 13.92578125 C17.89451935 16.17098377 17.89451935 16.17098377 21 17 C19.68 15.68 18.36 14.36 17 13 C17.33 12.34 17.66 11.68 18 11 C22.62 15.62 27.24 20.24 32 25 C20.74890991 25 9.34009049 10.99439468 1.70703125 3.85546875 C0 2 0 2 0 0 Z " fill="#7287B5" transform="translate(647,400)"/>
<path d="M0 0 C1.44457014 2.88914028 1.2912975 4.76958536 1 8 C-0.06433394 10.81205955 -1.44843995 13.41916814 -2.875 16.0625 C-3.60329103 17.44831173 -4.32989643 18.83501081 -5.0546875 20.22265625 C-5.39854492 20.87121582 -5.74240234 21.51977539 -6.09667969 22.18798828 C-7.11654375 24.14877879 -7.11654375 24.14877879 -8.0703125 26.93359375 C-8.37710937 27.61550781 -8.68390625 28.29742188 -9 29 C-9.99 29.33 -10.98 29.66 -12 30 C-11.72929687 29.34644531 -11.45859375 28.69289063 -11.1796875 28.01953125 C-10.27861843 25.71315247 -9.43720023 23.4143065 -8.6328125 21.07421875 C-8.26349609 20.00204102 -8.26349609 20.00204102 -7.88671875 18.90820312 C-7.3833238 17.44061323 -6.88326096 15.97187571 -6.38671875 14.50195312 C-4.63142427 9.43160767 -2.48364123 4.75762443 0 0 Z " fill="#4DBCD7" transform="translate(481,581)"/>
<path d="M0 0 C1.53166168 4.08443115 0.63081652 7.79455657 0 12 C-0.99 12.33 -1.98 12.66 -3 13 C-3.10699219 13.8146875 -3.21398437 14.629375 -3.32421875 15.46875 C-4.12356627 19.64568734 -5.39545102 23.49850684 -6.8125 27.5 C-7.06064453 28.23347656 -7.30878906 28.96695313 -7.56445312 29.72265625 C-9.18415214 34.33034964 -11.12031832 38.05215006 -14 42 C-14.33 41.34 -14.66 40.68 -15 40 C-14.09581491 38.206955 -13.18516856 36.41701235 -12.25146484 34.63916016 C-9.59388924 29.03471375 -7.79055452 23.05951058 -5.8125 17.1875 C-5.35793989 15.85203711 -4.90286549 14.51674916 -4.44726562 13.18164062 C-2.95141447 8.79224798 -1.46643804 4.39931413 0 0 Z " fill="#86A4C7" transform="translate(664,561)"/>
<path d="M0 0 C3.01250425 3.63383325 4.94345372 7.66139954 7 11.875 C7.34289062 12.56980469 7.68578125 13.26460938 8.0390625 13.98046875 C8.7119613 15.34424457 9.38133976 16.70976403 10.046875 18.07714844 C10.93262215 19.8640707 11.87058802 21.62484748 12.8125 23.3828125 C13.204375 24.24648438 13.59625 25.11015625 14 26 C13.67 26.66 13.34 27.32 13 28 C6.22397111 21.78474591 1.07606137 12.87925599 0.0625 3.625 C0.0315625 1.830625 0.0315625 1.830625 0 0 Z " fill="#58CCDE" transform="translate(494,316)"/>
<path d="M0 0 C4.24243963 0.37214383 7.31299876 0.69134727 11.234375 2.453125 C15.95760658 4.56650006 20.85351774 5.07253599 25.94726562 5.72851562 C30.55898109 6.42376979 33.10045655 7.27420142 36 11 C33.02880943 12.48559528 31.28973873 11.39218972 28.14453125 10.453125 C26.96439453 10.1025 25.78425781 9.751875 24.56835938 9.390625 C22.70920898 8.82601562 22.70920898 8.82601562 20.8125 8.25 C19.59240234 7.8890625 18.37230469 7.528125 17.11523438 7.15625 C11.2487487 5.39726027 5.55041734 3.5984176 0 1 C0 0.67 0 0.34 0 0 Z " fill="#57A7CC" transform="translate(542,527)"/>
<path d="M0 0 C0.66 0.33 1.32 0.66 2 1 C-10.16001684 8.37660964 -20.27451218 13.4860584 -35 12 C-37.88671875 10.98046875 -37.88671875 10.98046875 -40 10 C-36.8041586 8.92384932 -33.90965182 9.01571974 -30.56835938 9.16699219 C-21.96896157 9.51210494 -15.71154136 8.05027543 -8 4 C-5.34480427 2.6342284 -2.69090647 1.29562163 0 0 Z " fill="#729BC1" transform="translate(635,653)"/>
<path d="M0 0 C4.12298756 7.99897587 7.28703071 16.43272855 10 25 C6.88921228 23.94732563 6.03255764 23.05520311 4.33203125 20.171875 C3.83058594 19.04265625 3.32914063 17.9134375 2.8125 16.75 C2.30332031 15.63109375 1.79414062 14.5121875 1.26953125 13.359375 C-0.46690235 8.76450456 -1.64503178 4.75231403 0 0 Z " fill="#578FBE" transform="translate(648,303)"/>
<path d="M0 0 C0.66 0 1.32 0 2 0 C3.51497459 1.72262555 4.963193 3.50435515 6.375 5.3125 C9.06313957 8.75134076 11.51094688 11.41109072 15 14 C15 14.66 15 15.32 15 16 C15.81210937 16.33644531 15.81210937 16.33644531 16.640625 16.6796875 C19.73532294 18.41148866 22.17925605 20.71619268 24.75 23.125 C25.25660156 23.59292969 25.76320313 24.06085938 26.28515625 24.54296875 C27.52719141 25.69126541 28.76411494 26.84508672 30 28 C26.23396179 28 25.22857351 26.92592757 22.3125 24.625 C21.10013672 23.68527344 21.10013672 23.68527344 19.86328125 22.7265625 C19.24839844 22.15679687 18.63351562 21.58703125 18 21 C18 20.34 18 19.68 18 19 C17.34 19 16.68 19 16 19 C16 18.34 16 17.68 16 17 C15.45730469 16.79246094 14.91460937 16.58492188 14.35546875 16.37109375 C11.09915497 14.47562752 8.80325931 11.83697494 6.3125 9.0625 C5.81427734 8.52431641 5.31605469 7.98613281 4.80273438 7.43164062 C2.5685836 4.97316535 1.06192661 3.18577982 0 0 Z " fill="#6FD1DF" transform="translate(463,379)"/>
<path d="M0 0 C0.66 0 1.32 0 2 0 C3 1.66666667 4 3.33333333 5 5 C6.175625 6.1446875 6.175625 6.1446875 7.375 7.3125 C9.53379765 9.52269759 10.83269267 11.21492977 12.375 13.8125 C15.07526488 18.34169828 18.43341543 22.13534352 22 26 C21.67 26.66 21.34 27.32 21 28 C15.93706422 23.36424943 11.8910178 18.32712753 7.93359375 12.7265625 C5.71763155 9.60183197 3.39010494 6.57617148 1.03125 3.55859375 C0 2 0 2 0 0 Z " fill="#29D0E4" transform="translate(452,366)"/>
<path d="M0 0 C9.9 0.33 19.8 0.66 30 1 C26.41331687 3.39112209 24.83603431 3.23381027 20.58203125 3.1953125 C19.32841797 3.18886719 18.07480469 3.18242188 16.78320312 3.17578125 C14.81770508 3.15064453 14.81770508 3.15064453 12.8125 3.125 C11.47722013 3.11496639 10.14193311 3.1058412 8.80664062 3.09765625 C5.53757985 3.07405292 2.26887972 3.04112594 -1 3 C-0.67 2.01 -0.34 1.02 0 0 Z " fill="#2A78B7" transform="translate(616,541)"/>
<path d="M0 0 C3.03869411 1.51934706 3.64410306 3.98004772 5 7 C5 7.66 5 8.32 5 9 C5.66 9 6.32 9 7 9 C8.33333333 10.33333333 9.66666667 11.66666667 11 13 C14.22141739 15.28183732 17.41333852 17.34461778 21 19 C17.98010307 19.97702548 16.26005388 20.07512668 13.1875 19.1875 C7.58923592 15.34555406 2.59543027 9.34291377 0 3 C0 2.01 0 1.02 0 0 Z " fill="#1BC6E1" transform="translate(404,645)"/>
<path d="M0 0 C1.70884005 1.62339805 3.37446717 3.29319053 5 5 C5 5.66 5 6.32 5 7 C5.598125 7.04125 6.19625 7.0825 6.8125 7.125 C10.13653235 8.45461294 10.58782909 10.80726577 12 14 C12.98189187 15.67739862 13.98133771 17.34467377 15 19 C16.5 21.5 16.5 21.5 18 24 C17.34 24 16.68 24 16 24 C0 7.02347418 0 7.02347418 0 0 Z " fill="#5FD2E1" transform="translate(445,408)"/>
<path d="M0 0 C0.66 0.33 1.32 0.66 2 1 C-8.35755837 6.48950594 -16.19830065 9.43530858 -28 9 C-28.33 8.34 -28.66 7.68 -29 7 C-28.2471875 6.99742187 -27.494375 6.99484375 -26.71875 6.9921875 C-18.80736795 6.70415175 -12.43501002 5.01452703 -5.20703125 1.99560547 C-3.48987531 1.28395676 -1.7465012 0.63624049 0 0 Z " fill="#1DB9D9" transform="translate(453,655)"/>
<path d="M0 0 C0.66 0.66 1.32 1.32 2 2 C1.175 2.01417969 0.35 2.02835938 -0.5 2.04296875 C-9.15183514 2.40024319 -16.44904141 4.06345209 -24.6015625 6.84375 C-27.07164588 7.68414618 -29.4593788 8.43255161 -32 9 C-24.80623087 0.90700973 -10.25393754 -0.74574091 0 0 Z " fill="#74A0C3" transform="translate(628,609)"/>
<path d="M0 0 C0.33 0 0.66 0 1 0 C1.65077173 3.16567207 2.2946984 6.33270077 2.9375 9.5 C3.11990234 10.386875 3.30230469 11.27375 3.49023438 12.1875 C4.55412335 17.44891455 5.40785806 22.6644895 6 28 C0.9480101 20.42201515 -1.70047515 10.10617693 -1 1 C-0.67 0.67 -0.34 0.34 0 0 Z " fill="#1FD8E9" transform="translate(452,319)"/>
<path d="M0 0 C0 3 0 3 -1.86328125 5.0859375 C-2.67152344 5.84132813 -3.47976563 6.59671875 -4.3125 7.375 C-8.57952836 11.37405073 -11.91021865 15.11518069 -13 21 C-13.66 21 -14.32 21 -15 21 C-14.8344863 14.54496583 -11.15149298 10.57561407 -7 6 C-4.74137969 3.86370342 -2.43607724 1.93891862 0 0 Z " fill="#1DC9E2" transform="translate(418,615)"/>
<path d="M0 0 C5.20587506 2.08235002 6.69944518 5.7333296 8.984375 10.52734375 C9.87155296 12.68728087 10.51364228 14.7215198 11 17 C10.01 17.33 9.02 17.66 8 18 C6.66180502 15.3773768 5.3292849 12.75213401 4 10.125 C3.6184375 9.37863281 3.236875 8.63226563 2.84375 7.86328125 C2.4828125 7.14785156 2.121875 6.43242187 1.75 5.6953125 C1.41484375 5.03547363 1.0796875 4.37563477 0.734375 3.69580078 C0 2 0 2 0 0 Z " fill="#52549F" transform="translate(708,396)"/>
<path d="M0 0 C3.1061854 2.73265678 5.09170591 6.14566914 7.25 9.625 C10.857467 15.35087862 14.69551252 20.7681792 19 26 C18.67 26.66 18.34 27.32 18 28 C13.10530368 23.07288848 9.30005181 17.60889341 5.625 11.75 C4.96395264 10.70392578 4.96395264 10.70392578 4.28955078 9.63671875 C3.67055908 8.63318359 3.67055908 8.63318359 3.0390625 7.609375 C2.48532959 6.7117041 2.48532959 6.7117041 1.92041016 5.79589844 C0.94078733 3.88446461 0.44012007 2.09619439 0 0 Z " fill="#1CCAE3" transform="translate(444,443)"/>
<path d="M0 0 C4.3626162 2.39516183 8.14194395 4.83293906 12 8 C12.93199219 8.75539063 13.86398437 9.51078125 14.82421875 10.2890625 C15.76910156 11.05992187 16.71398437 11.83078125 17.6875 12.625 C18.64011719 13.40101563 19.59273437 14.17703125 20.57421875 14.9765625 C23 17 23 17 25 19 C21.83207576 18.39319004 19.83916217 17.37020889 17.28515625 15.41796875 C16.59873047 14.89783203 15.91230469 14.37769531 15.20507812 13.84179688 C14.49802734 13.29587891 13.79097656 12.74996094 13.0625 12.1875 C12.35931641 11.65318359 11.65613281 11.11886719 10.93164062 10.56835938 C9.56632026 9.52805435 8.20498348 8.48249544 6.84814453 7.43115234 C5.24113378 6.18672737 3.61981462 4.96082271 1.99609375 3.73828125 C1.33738281 3.16464844 0.67867187 2.59101563 0 2 C0 1.34 0 0.68 0 0 Z " fill="#2294C6" transform="translate(575,425)"/>
<path d="M0 0 C0.99 0.33 1.98 0.66 3 1 C3.984375 3.3984375 3.984375 3.3984375 4.75 6.375 C5.01296875 7.35210937 5.2759375 8.32921875 5.546875 9.3359375 C6 12 6 12 5 15 C4.01 12.36 3.02 9.72 2 7 C0.38935371 10.65079826 -0.44894091 14.0507432 -1 18 C-2.96282811 15.20402902 -3.00108464 14.00812564 -2.5390625 10.546875 C-2.23742187 9.29390625 -1.93578125 8.0409375 -1.625 6.75 C-1.32851563 5.48671875 -1.03203125 4.2234375 -0.7265625 2.921875 C-0.48679687 1.95765625 -0.24703125 0.9934375 0 0 Z " fill="#7AE0E7" transform="translate(435,322)"/>
<path d="M0 0 C0.33 0.66 0.66 1.32 1 2 C1.66 2 2.32 2 3 2 C3.39832031 3.08539063 3.79664063 4.17078125 4.20703125 5.2890625 C4.74200903 6.73444107 5.27717531 8.17974988 5.8125 9.625 C6.07353516 10.33785156 6.33457031 11.05070312 6.60351562 11.78515625 C7.84218498 15.11885895 9.12026604 18.23199879 10.76171875 21.3984375 C11.17035156 22.25695312 11.57898438 23.11546875 12 24 C11.67 24.66 11.34 25.32 11 26 C9.82845707 23.71070947 8.66261926 21.41881638 7.5 19.125 C7.16613281 18.47402344 6.83226562 17.82304687 6.48828125 17.15234375 C4 12.2265625 4 12.2265625 4 10 C3.34 10 2.68 10 2 10 C0.68373308 6.38026598 0 3.90432869 0 0 Z " fill="#1F69AF" transform="translate(623,405)"/>
<path d="M0 0 C0.94875 0.825 1.8975 1.65 2.875 2.5 C5.89929403 5.10015523 8.99386612 7.59227911 12.125 10.0625 C15.65709691 12.86771721 18.91683364 15.71128922 22 19 C14.78142642 16.74419576 9.10684342 11.38288901 4 6 C3.071875 5.071875 2.14375 4.14375 1.1875 3.1875 C0.465625 2.465625 -0.25625 1.74375 -1 1 C-0.67 0.67 -0.34 0.34 0 0 Z " fill="#65AFCD" transform="translate(567,415)"/>
<path d="M0 0 C-1.12202201 3.36606602 -2.09274021 4.19481269 -4.75 6.4375 C-5.46671875 7.0459375 -6.1834375 7.654375 -6.921875 8.28125 C-9.26014318 10.21515601 -11.60876067 12.13184428 -14 14 C-14.66 13.67 -15.32 13.34 -16 13 C-15.071875 12.278125 -14.14375 11.55625 -13.1875 10.8125 C-10.39165582 8.49575588 -8.76432333 6.19258508 -7 3 C-4.52068323 -0.12609506 -4.33828453 0 0 0 Z " fill="#7095C0" transform="translate(653,639)"/>
<path d="M0 0 C0.66 0 1.32 0 2 0 C4.89009998 9.23799815 5.35347764 17.41682845 5 27 C4.67 27 4.34 27 4 27 C3.95101562 26.10796875 3.90203125 25.2159375 3.8515625 24.296875 C3.77679687 23.12640625 3.70203125 21.9559375 3.625 20.75 C3.55539062 19.58984375 3.48578125 18.4296875 3.4140625 17.234375 C3.02608786 14.20378064 2.38353366 12.63736105 1 10 C0.5859375 7.421875 0.5859375 7.421875 0.375 4.75 C0.30023437 3.85796875 0.22546875 2.9659375 0.1484375 2.046875 C0.09945312 1.37140625 0.05046875 0.6959375 0 0 Z " fill="#303264" transform="translate(717,413)"/>
<path d="M0 0 C0.33 0.66 0.66 1.32 1 2 C-4.0218344 3.97343652 -8.55584032 4.4086274 -13.875 4.625 C-15.050625 4.68300781 -15.050625 4.68300781 -16.25 4.7421875 C-18.16631367 4.83566622 -20.08312319 4.91888495 -22 5 C-21.67 4.34 -21.34 3.68 -21 3 C-18.95874023 2.49755859 -18.95874023 2.49755859 -16.30859375 2.1484375 C-15.36435547 2.01953125 -14.42011719 1.890625 -13.44726562 1.7578125 C-12.45404297 1.63148438 -11.46082031 1.50515625 -10.4375 1.375 C-9.44041016 1.2409375 -8.44332031 1.106875 -7.41601562 0.96875 C-4.94497221 0.63770112 -2.47310948 0.31517856 0 0 Z " fill="#276AB0" transform="translate(669,538)"/>
<path d="M0 0 C0.99 0 1.98 0 3 0 C4.9375 2.046875 4.9375 2.046875 7 4.75 C7.680625 5.63171875 8.36125 6.5134375 9.0625 7.421875 C9.701875 8.27265625 10.34125 9.1234375 11 10 C11.5775 10.76828125 12.155 11.5365625 12.75 12.328125 C13.1625 12.87984375 13.575 13.4315625 14 14 C10.78956118 12.61811547 8.95063635 11.07578097 6.75 8.375 C6.22921875 7.74335938 5.7084375 7.11171875 5.171875 6.4609375 C4.78515625 5.97882813 4.3984375 5.49671875 4 5 C3.67 6.65 3.34 8.3 3 10 C0.70366176 6.55549263 0.45983515 4.06187717 0 0 Z " fill="#7ED9E3" transform="translate(435,421)"/>
<path d="M0 0 C0.99 0.33 1.98 0.66 3 1 C3 1.66 3 2.32 3 3 C3.5775 3.226875 4.155 3.45375 4.75 3.6875 C7.652294 5.38050483 9.18808695 7.18146859 11 10 C10.75 12.3125 10.75 12.3125 10 14 C6.62496331 12.8141763 4.35277269 11.72426311 2 9 C3.65 9.33 5.3 9.66 7 10 C7 8.01509477 4.74635413 6.38483792 3.5 5 C0 1.11111111 0 1.11111111 0 0 Z " fill="#22BCDB" transform="translate(495,404)"/>
<path d="M0 0 C0.99 0 1.98 0 3 0 C3.84511824 1.72343755 4.67563354 3.45404053 5.5 5.1875 C5.9640625 6.15042969 6.428125 7.11335938 6.90625 8.10546875 C7.99592921 10.98922693 8.22277524 12.95354861 8 16 C5.34154327 13.62999752 3.88838209 11.18015846 2.3125 8 C1.87550781 7.13375 1.43851563 6.2675 0.98828125 5.375 C0 3 0 3 0 0 Z " fill="#5E92BF" transform="translate(635,368)"/>
<path d="M0 0 C0 0.99 0 1.98 0 3 C-0.99 3 -1.98 3 -3 3 C-3.26941406 3.72316406 -3.53882813 4.44632812 -3.81640625 5.19140625 C-4.98581627 7.96634291 -6.35083867 10.38188518 -7.9375 12.9375 C-10.15160877 16.55911068 -12.18363124 20.16544372 -14 24 C-14.66 23.67 -15.32 23.34 -16 23 C-4.20052083 0 -4.20052083 0 0 0 Z " fill="#96BCD3" transform="translate(650,278)"/>
<path d="M0 0 C3.65938172 1.43164111 7.23988068 2.98934296 10.8125 4.625 C12.27623047 5.29402344 12.27623047 5.29402344 13.76953125 5.9765625 C14.50558594 6.31429688 15.24164062 6.65203125 16 7 C16 7.66 16 8.32 16 9 C14.04096255 8.52372025 12.08278903 8.04388577 10.125 7.5625 C9.03445313 7.29566406 7.94390625 7.02882813 6.8203125 6.75390625 C4 6 4 6 2 5 C2 4.01 2 3.02 2 2 C1.34 2 0.68 2 0 2 C0 1.34 0 0.68 0 0 Z " fill="#589EC6" transform="translate(608,447)"/>
<path d="M0 0 C6.16356805 1.6658292 11.48259656 4.87805286 17 8 C16.01 8.495 16.01 8.495 15 9 C12.56442428 8.09176973 10.23804483 7.13171929 7.875 6.0625 C7.21628906 5.77181641 6.55757812 5.48113281 5.87890625 5.18164062 C4.24950495 4.46139802 2.62433868 3.73158857 1 3 C0.67 4.65 0.34 6.3 0 8 C-0.33 8 -0.66 8 -1 8 C-1.04241723 5.66705225 -1.04092937 3.33297433 -1 1 C-0.67 0.67 -0.34 0.34 0 0 Z " fill="#68B8D3" transform="translate(525,518)"/>
<path d="M0 0 C1.7074998 1.28062485 3.37373596 2.61767557 5 4 C5 4.66 5 5.32 5 6 C5.66 6 6.32 6 7 6 C8.5859375 7.57421875 8.5859375 7.57421875 10.375 9.6875 C10.99246094 10.41324219 11.60992188 11.13898438 12.24609375 11.88671875 C14.19461463 14.23449112 16.1215998 16.59564775 18 19 C13.82416955 17.35589284 10.97901916 14.31040006 7.875 11.1875 C7.33746094 10.66607422 6.79992187 10.14464844 6.24609375 9.60742188 C3.24431479 6.60938578 1.24628118 4.16196369 0 0 Z " fill="#1FA8D1" transform="translate(540,390)"/>
<path d="M0 0 C1.12894876 0.93274109 2.25300876 1.87140122 3.375 2.8125 C4.00148438 3.33457031 4.62796875 3.85664062 5.2734375 4.39453125 C7 6 7 6 9 9 C9.99 9.66 10.98 10.32 12 11 C9.23192595 11.50328619 7.51766523 11.31765821 5.109375 9.83984375 C0.13491141 5.88656069 0.13491141 5.88656069 -0.4375 2.125 C-0.2209375 1.073125 -0.2209375 1.073125 0 0 Z " fill="#4A8CBE" transform="translate(586,651)"/>
<path d="M0 0 C0.66 0 1.32 0 2 0 C2.09765625 6.15234375 2.09765625 6.15234375 2 8 C1.67 8.33 1.34 8.66 1 9 C0.76518307 11.18292774 0.58636677 13.37203174 0.4375 15.5625 C0.35371094 16.76003906 0.26992188 17.95757812 0.18359375 19.19140625 C0.12300781 20.11824219 0.06242188 21.04507812 0 22 C-0.33 22 -0.66 22 -1 22 C-1.02895225 18.70835171 -1.0467823 15.41673601 -1.0625 12.125 C-1.07506836 10.71927734 -1.07506836 10.71927734 -1.08789062 9.28515625 C-1.09111328 8.38925781 -1.09433594 7.49335938 -1.09765625 6.5703125 C-1.10289307 5.74289551 -1.10812988 4.91547852 -1.11352539 4.06298828 C-1 2 -1 2 0 0 Z " fill="#63A2C8" transform="translate(620,369)"/>
<path d="M0 0 C1.9375 0.3125 1.9375 0.3125 4 1 C4.33 1.99 4.66 2.98 5 4 C6.65204456 4.70211894 8.31923769 5.36971413 10 6 C10.33 6.66 10.66 7.32 11 8 C6.28596212 7.52060632 2.33420699 7.03165952 -2 5 C-1.67 4.34 -1.34 3.68 -1 3 C-0.01 3 0.98 3 2 3 C1.34 2.01 0.68 1.02 0 0 Z " fill="#73CCDE" transform="translate(482,450)"/>
<path d="M0 0 C0.70125 0.44730469 1.4025 0.89460938 2.125 1.35546875 C7.73407926 4.92973257 13.3539018 8.4845049 19 12 C18.01 12.33 17.02 12.66 16 13 C13.4765625 11.70703125 13.4765625 11.70703125 10.625 9.8125 C9.68914063 9.20019531 8.75328125 8.58789062 7.7890625 7.95703125 C5.0890374 6.06247582 2.47914968 4.17714417 0 2 C0 1.34 0 0.68 0 0 Z " fill="#6BABCB" transform="translate(589,434)"/>
<path d="M0 0 C0.66 0 1.32 0 2 0 C0.61879413 6.21542641 -1.14643414 12.28172153 -4 18 C-4.66 18.33 -5.32 18.66 -6 19 C-4.3186083 12.51292846 -2.46937673 6.2322365 0 0 Z " fill="#285CA8" transform="translate(686,558)"/>
<path d="M0 0 C6.5705166 -0.24794402 12.56971459 0.67611771 19 2 C19 2.66 19 3.32 19 4 C12.50149789 3.48446121 6.33773468 2.53332291 0 1 C0 0.67 0 0.34 0 0 Z " fill="#69A7CA" transform="translate(581,539)"/>
<path d="M0 0 C5.64620809 0.49528141 9.80159814 1.59333247 15 4 C16.99263591 4.68836513 18.99041337 5.36281399 21 6 C20.67 6.66 20.34 7.32 20 8 C17.60353007 7.21021997 15.20782392 6.41824215 12.8125 5.625 C12.13896484 5.40328125 11.46542969 5.1815625 10.77148438 4.953125 C7.13030959 3.74532068 3.54288783 2.47219028 0 1 C0 0.67 0 0.34 0 0 Z " fill="#6CB4D0" transform="translate(542,527)"/>
<path d="M0 0 C1 3 1 3 -0.43359375 6.13671875 C-1.09135973 7.3260128 -1.75977815 8.50946371 -2.4375 9.6875 C-2.77587891 10.29400391 -3.11425781 10.90050781 -3.46289062 11.52539062 C-4.29957915 13.0220025 -5.14862831 14.51169189 -6 16 C-6.99 16 -7.98 16 -9 16 C-7.68968564 13.51965551 -6.37686532 11.0406965 -5.0625 8.5625 C-4.68931641 7.85544922 -4.31613281 7.14839844 -3.93164062 6.41992188 C-1.11328125 1.11328125 -1.11328125 1.11328125 0 0 Z " fill="#2A68AE" transform="translate(653,597)"/>
<path d="M0 0 C3 0 3 0 4.68359375 1.64453125 C5.26238281 2.35996094 5.84117187 3.07539063 6.4375 3.8125 C8.7566761 6.66088407 10.98052096 8.896319 14 11 C13.67 11.99 13.34 12.98 13 14 C10.83031809 11.85714108 8.66416525 9.71091768 6.5 7.5625 C5.87996094 6.95083984 5.25992187 6.33917969 4.62109375 5.70898438 C4.03457031 5.12568359 3.44804687 4.54238281 2.84375 3.94140625 C2.02680664 3.13231812 2.02680664 3.13231812 1.19335938 2.30688477 C0 1 0 1 0 0 Z " fill="#23C0DD" transform="translate(464,473)"/>
<path d="M0 0 C1.48113281 0.45052734 1.48113281 0.45052734 2.9921875 0.91015625 C4.28634505 1.29465233 5.58062218 1.67874611 6.875 2.0625 C7.85146484 2.36124023 7.85146484 2.36124023 8.84765625 2.66601562 C12.46707456 3.92538241 12.46707456 3.92538241 16 3 C16 3.66 16 4.32 16 5 C16.66 5 17.32 5 18 5 C17.67 5.99 17.34 6.98 17 8 C14.54105116 7.18932465 12.08283312 6.37654509 9.625 5.5625 C8.92632813 5.33240234 8.22765625 5.10230469 7.5078125 4.86523438 C2.2265625 3.11328125 2.2265625 3.11328125 0 2 C0 1.34 0 0.68 0 0 Z " fill="#79A1C7" transform="translate(641,462)"/>
<path d="M0 0 C3.84783484 3.06077771 7.14732623 5.94042579 10 10 C10 10.66 10 11.32 10 12 C6.74333728 11.43850643 5.04376677 10.62770014 3 8 C2.4375 6.0625 2.4375 6.0625 2 4 C1.36345658 2.6520257 0.70394612 1.31403276 0 0 Z " fill="#596DA9" transform="translate(681,359)"/>
<path d="M0 0 C1.30660357 4.29727397 0.6596762 7.60215865 0 12 C-0.99 12.33 -1.98 12.66 -3 13 C-3.73323796 15.01508358 -3.73323796 15.01508358 -4 17 C-5.3274855 13.01754349 -3.99907829 10.55210457 -2.5625 6.8125 C-2.19801758 5.83120117 -2.19801758 5.83120117 -1.82617188 4.83007812 C-1.2256707 3.21696714 -0.61390797 1.6080565 0 0 Z " fill="#6F94C0" transform="translate(664,561)"/>
<path d="M0 0 C2.560881 3.24640915 4.62476717 6.66940716 6.6875 10.25 C7.31011719 11.32765625 7.93273437 12.4053125 8.57421875 13.515625 C9.04472656 14.33546875 9.51523437 15.1553125 10 16 C9.34 16.33 8.68 16.66 8 17 C0 6.40540541 0 6.40540541 0 0 Z " fill="#1DD3E7" transform="translate(442,398)"/>
<path d="M0 0 C0.99 0 1.98 0 3 0 C2.979375 0.721875 2.95875 1.44375 2.9375 2.1875 C2.9013926 4.99350336 2.9013926 4.99350336 3.625 7.625 C4 10 4 10 2 13 C-0.28571429 4.57142857 -0.28571429 4.57142857 0 0 Z " fill="#5B98C4" transform="translate(620,392)"/>
<path d="M0 0 C3.31529273 0.98562757 4.74949379 1.65447419 6.8125 4.5 C8 7 8 7 8 9 C6.140625 8.75390625 6.140625 8.75390625 4 8 C2.734375 6.15234375 2.734375 6.15234375 1.75 3.9375 C1.41484375 3.20402344 1.0796875 2.47054688 0.734375 1.71484375 C0.49203125 1.14894531 0.2496875 0.58304687 0 0 Z " fill="#4B88BA" transform="translate(629,378)"/>
<path d="M0 0 C0.66 0 1.32 0 2 0 C2.99 3.96 3.98 7.92 5 12 C4.01 12.33 3.02 12.66 2 13 C1.34 8.71 0.68 4.42 0 0 Z " fill="#3BDAE8" transform="translate(435,380)"/>
<path d="M0 0 C3.82669043 3.42388092 5.72278474 6.00724943 7 11 C3.50126729 9.60344703 2.29108169 8.28739516 0.75 4.875 C0.41484375 4.15054687 0.0796875 3.42609375 -0.265625 2.6796875 C-0.50796875 2.12539063 -0.7503125 1.57109375 -1 1 C-0.67 0.67 -0.34 0.34 0 0 Z " fill="#48C8DD" transform="translate(501,333)"/>
<path d="M0 0 C3.62276315 1.3255581 6.63505348 2.94346955 9.8125 5.125 C10.60269531 5.66382813 11.39289063 6.20265625 12.20703125 6.7578125 C12.79871094 7.16773438 13.39039063 7.57765625 14 8 C13.01 8.33 12.02 8.66 11 9 C8.30078125 7.63671875 8.30078125 7.63671875 5.3125 5.6875 C4.31863281 5.05199219 3.32476562 4.41648437 2.30078125 3.76171875 C1.16189453 2.88966797 1.16189453 2.88966797 0 2 C0 1.34 0 0.68 0 0 Z " fill="#65D0E0" transform="translate(454,439)"/>
<path d="M0 0 C3.98069267 2.87494471 6.43571997 5.82117329 9 10 C8.67 10.66 8.34 11.32 8 12 C5 11 5 11 3.8671875 9.2578125 C3.53976562 8.55398438 3.21234375 7.85015625 2.875 7.125 C2.37613281 6.07699219 2.37613281 6.07699219 1.8671875 5.0078125 C1 3 1 3 0 0 Z " fill="#676BA7" transform="translate(696,377)"/>
<path d="M0 0 C0 0.99 0 1.98 0 3 C-1.64453125 4.5703125 -1.64453125 4.5703125 -3.8125 6.125 C-4.52019531 6.64320313 -5.22789062 7.16140625 -5.95703125 7.6953125 C-8 9 -8 9 -11 10 C-9.65315993 5.95947978 -7.55152523 5.22840799 -4 3 C-2.65824027 2.01133494 -1.32103998 1.0161846 0 0 Z " fill="#2967AD" transform="translate(643,645)"/>
<path d="M0 0 C-2.46301423 2.46301423 -4.27360036 2.76766521 -7.625 3.625 C-8.62789063 3.88539063 -9.63078125 4.14578125 -10.6640625 4.4140625 C-11.43492187 4.60742188 -12.20578125 4.80078125 -13 5 C-13 4.34 -13 3.68 -13 3 C-11.40084119 2.30093058 -9.79544955 1.61610532 -8.1875 0.9375 C-7.29417969 0.55464844 -6.40085937 0.17179688 -5.48046875 -0.22265625 C-3 -1 -3 -1 0 0 Z " fill="#1EC4DF" transform="translate(434,610)"/>
<path d="M0 0 C5.94 1.485 5.94 1.485 12 3 C11.34 3.66 10.68 4.32 10 5 C4.74170754 4.77137859 3.95970542 3.95970542 0 0 Z " fill="#48C7DD" transform="translate(413,660)"/>
<path d="M0 0 C0.66 0 1.32 0 2 0 C2.33 0.66 2.66 1.32 3 2 C4.670625 2.433125 4.670625 2.433125 6.375 2.875 C10.13182228 4.04091036 11.11494586 4.67343387 13 8 C3.2606325 5.25299891 3.2606325 5.25299891 0 1 C0 0.67 0 0.34 0 0 Z " fill="#4EC4DB" transform="translate(492,408)"/>
<path d="M0 0 C0.66 0.33 1.32 0.66 2 1 C0.12050295 4.57104439 -1.17053157 6.54744301 -5 8 C-5 7.01 -5 6.02 -5 5 C-4.34 5 -3.68 5 -3 5 C-2.5359375 4.0409375 -2.5359375 4.0409375 -2.0625 3.0625 C-1 1 -1 1 0 0 Z " fill="#49B7D5" transform="translate(478,635)"/>
<path d="M0 0 C1 3 1 3 0.109375 4.7890625 C-0.33921875 5.39492188 -0.7878125 6.00078125 -1.25 6.625 C-1.68828125 7.23601563 -2.1265625 7.84703125 -2.578125 8.4765625 C-4 10 -4 10 -7 11 C-5.22054913 6.95579349 -2.60470327 3.53921513 0 0 Z " fill="#A4B7CF" transform="translate(660,628)"/>
<path d="M0 0 C2.4375 0.75 2.4375 0.75 5 2 C5.625 4.0625 5.625 4.0625 6 6 C6.99 6.33 7.98 6.66 9 7 C8.67 7.66 8.34 8.32 8 9 C5.06799526 6.14723863 2.35684596 3.34920216 0 0 Z " fill="#3ECFE2" transform="translate(448,435)"/>
<path d="M0 0 C3.14958831 3.42346555 3.56179109 6.44262737 4 11 C1.9656541 9.58480285 1.09589607 8.45017877 0.578125 6.01953125 C0.33726048 4.01823046 0.16467259 2.0090056 0 0 Z " fill="#4B83B7" transform="translate(639,373)"/>
<path d="M0 0 C1.31223496 3.93670488 0.24296256 6.12488144 -1 10 C-1.99 10 -2.98 10 -4 10 C-2.68 6.7 -1.36 3.4 0 0 Z " fill="#73E0E8" transform="translate(458,268)"/>
<path d="M0 0 C1 2 1 2 0.0625 5.125 C-0.288125 6.07375 -0.63875 7.0225 -1 8 C-1.99 6.68 -2.98 5.36 -4 4 C-2.68 2.68 -1.36 1.36 0 0 Z " fill="#274D84" transform="translate(717,456)"/>
<path d="M0 0 C2.97 0 5.94 0 9 0 C9.33 1.32 9.66 2.64 10 4 C8.51882199 3.71872579 7.04006751 3.42466268 5.5625 3.125 C4.73878906 2.96257812 3.91507812 2.80015625 3.06640625 2.6328125 C2.38449219 2.42398437 1.70257813 2.21515625 1 2 C0.67 1.34 0.34 0.68 0 0 Z " fill="#2BBDDA" transform="translate(485,457)"/>
<path d="M0 0 C0.66 0.99 1.32 1.98 2 3 C1.34 4.32 0.68 5.64 0 7 C-0.66 7 -1.32 7 -2 7 C-2.33 7.99 -2.66 8.98 -3 10 C-2.49287967 6.28111761 -1.88391785 3.26545761 0 0 Z " fill="#3486BD" transform="translate(585,629)"/>
<path d="M0 0 C0.66 0.33 1.32 0.66 2 1 C0.35 3.64 -1.3 6.28 -3 9 C-3.33 8.01 -3.66 7.02 -4 6 C-2.0625 2.8125 -2.0625 2.8125 0 0 Z " fill="#24AAD1" transform="translate(489,619)"/>
<path d="M0 0 C0.33 0.66 0.66 1.32 1 2 C1.66 2 2.32 2 3 2 C3.93065133 4.60582371 4.14917407 5.64198224 3.0625 8.25 C2.711875 8.8275 2.36125 9.405 2 10 C0.68373308 6.38026598 0 3.90432869 0 0 Z " fill="#6C9DC5" transform="translate(623,405)"/>
<path d="M0 0 C3.16115776 1.36983503 3.9927092 1.9890638 6 5 C4.35 5 2.7 5 1 5 C0.67 3.35 0.34 1.7 0 0 Z " fill="#7BCCDC" transform="translate(494,406)"/>
<path d="M0 0 C4.41889613 1.35021826 6.34345343 3.26115668 9 7 C5.18315774 5.44499019 2.80804268 2.96404505 0 0 Z " fill="#66CBDC" transform="translate(484,401)"/>
</svg>
