<?xml version="1.0" encoding="UTF-8"?>
<svg version="1.1" xmlns="http://www.w3.org/2000/svg" width="681" height="681">
<path d="M0 0 C224.73 0 449.46 0 681 0 C681 224.73 681 449.46 681 681 C456.27 681 231.54 681 0 681 C0 456.27 0 231.54 0 0 Z " fill="#FEFEFE" transform="translate(0,0)"/>
<path d="M0 0 C1.68422058 0.04314331 1.68422058 0.04314331 3.40246582 0.0871582 C5.18846443 0.08540588 5.18846443 0.08540588 7.01054382 0.08361816 C10.26744751 0.08823086 13.52158569 0.12828281 16.77793908 0.18420982 C20.18376102 0.2342915 23.58963998 0.23892503 26.99577332 0.24841309 C33.44183513 0.27325816 39.88680884 0.33887727 46.33239192 0.419209 C53.67199647 0.50869315 61.01165357 0.55262996 68.351668 0.59277248 C83.44692454 0.67634732 98.54116341 0.81701901 113.63562012 0.99536133 C112.22744063 4.62956798 110.64996591 7.73161519 108.51062012 10.99536133 C105.70978063 15.32018701 102.95904509 19.66878299 100.26062012 24.05786133 C99.59288574 25.14196289 98.92515137 26.22606445 98.23718262 27.34301758 C96.67392065 29.85251134 96.67392065 29.85251134 95.63562012 31.99536133 C94.97562012 31.99536133 94.31562012 31.99536133 93.63562012 31.99536133 C93.2392334 33.07430664 93.2392334 33.07430664 92.83483887 34.17504883 C91.1699617 38.09049285 88.89033465 41.454321 86.54187012 44.99145508 C84.58656156 47.96399096 84.58656156 47.96399096 83.04187012 51.15551758 C81.46022143 54.15987476 80.01254095 56.56796534 77.63562012 58.99536133 C73.58893735 60.24726152 69.79129218 59.47984169 65.63562012 58.99536133 C62.73734495 58.83793193 59.83899114 58.72480022 56.93859863 58.61352539 C52.50256838 58.44183098 48.06934297 58.21787598 43.63562012 57.99536133 C44.90256524 54.57464694 46.3600006 51.68130073 48.42077637 48.67504883 C49.2164502 47.50135742 49.2164502 47.50135742 50.02819824 46.30395508 C50.57927246 45.50086914 51.13034668 44.6977832 51.69812012 43.87036133 C52.79634341 42.26575634 53.89153491 40.65907095 54.98327637 39.05004883 C55.46804443 38.34348145 55.9528125 37.63691406 56.45227051 36.90893555 C57.79424214 34.90284345 57.79424214 34.90284345 58.63562012 31.99536133 C59.29562012 31.99536133 59.95562012 31.99536133 60.63562012 31.99536133 C60.96562012 30.67536133 61.29562012 29.35536133 61.63562012 27.99536133 C58.62722479 27.54967313 55.66409828 27.26082053 52.63562012 26.99536133 C51.9598291 26.90528809 51.28403809 26.81521484 50.58776855 26.72241211 C48.2722454 26.42729641 45.96267647 26.23823098 43.63562012 26.05786133 C42.88876953 25.94442383 42.14191895 25.83098633 41.37243652 25.71411133 C38.61089242 25.56461058 37.13166474 25.75859713 34.63562012 26.99536133 C31.52336042 30.7265772 29.1910035 34.77759686 26.800354 38.99514771 C24.91984751 42.22456754 22.82607642 45.30335547 20.73327637 48.39770508 C19.89613035 49.65058798 19.05954485 50.90384557 18.22351074 52.1574707 C17.3817511 53.41595915 16.53995422 54.67442269 15.69812012 55.93286133 C14.8601174 57.18734375 14.02222667 58.44190098 13.18444824 59.6965332 C11.51368952 62.1983638 9.84231743 64.69978296 8.17053223 67.20092773 C5.12826679 71.7534282 2.09196355 76.30989812 -0.94451904 80.86625671 C-3.05399874 84.03118782 -5.16533869 87.19483708 -7.28234863 90.35473633 C-10.7797432 95.57725686 -14.26625977 100.80029078 -17.61437988 106.12036133 C-22.72230987 114.2129725 -28.03181748 122.19542467 -33.46122742 130.07594299 C-35.41371659 132.97180512 -35.41371659 132.97180512 -36.99989319 136.10444641 C-41.6115917 144.36273616 -41.6115917 144.36273616 -46.27806091 146.04698181 C-49.78198804 146.38433344 -53.09894005 146.34784813 -56.61437988 146.16723633 C-57.86823486 146.15025696 -59.12208984 146.13327759 -60.41394043 146.11578369 C-63.72473832 146.06019771 -67.02833277 145.95276575 -70.33673096 145.81933594 C-73.72135859 145.69585475 -77.10704836 145.64162414 -80.49328613 145.58129883 C-87.11977132 145.44931981 -93.74148769 145.24880592 -100.36437988 144.99536133 C-98.95141399 141.35221498 -97.36852373 138.21570405 -95.23937988 134.93286133 C-94.60773926 133.95704102 -93.97609863 132.9812207 -93.32531738 131.97583008 C-90.85832676 128.2262009 -88.36588505 124.49418411 -85.86828613 120.76489258 C-82.47724307 115.67760923 -79.14241695 110.55338065 -75.80187988 105.43286133 C-75.17668457 104.47541016 -74.55148926 103.51795898 -73.90734863 102.53149414 C-69.68108653 96.04782208 -65.5105201 89.53049577 -61.36437988 82.99536133 C-56.3167499 75.06708905 -51.18661361 67.20240705 -45.95715332 59.39306641 C-42.94739774 54.89074887 -40.01157403 50.34704093 -37.11828613 45.76879883 C-30.82689012 35.82026616 -24.40133545 25.95709183 -17.96936035 16.09912109 C-17.44487305 15.294021 -16.92038574 14.4889209 -16.38000488 13.65942383 C-15.91884277 12.95253418 -15.45768066 12.24564453 -14.98254395 11.51733398 C-13.36814267 9.15512955 -13.36814267 9.15512955 -12.52628422 7.03100395 C-9.55322918 0.84973775 -6.66352149 0.07091236 0 0 Z " fill="#209FD8" transform="translate(198.3643798828125,241.004638671875)"/>
<path d="M0 0 C4.16590422 0.13234043 8.33221006 0.14369223 12.49989176 0.16853356 C20.37183062 0.23351119 28.23755947 0.40537932 36.10677683 0.61687285 C45.0734002 0.8525666 54.0403393 0.96729343 63.00929475 1.07247698 C81.44007643 1.29130377 99.86509772 1.66004645 118.29112101 2.1292727 C114.45000228 11.85081192 114.45000228 11.85081192 110.29112101 15.1292727 C106.21310666 15.8162392 102.27059359 15.33168813 98.16612101 15.0042727 C90.29187133 14.72557805 90.29187133 14.72557805 83.18125772 17.56970239 C79.44359464 21.65279184 77.08510695 26.55243118 74.66319132 31.48962426 C72.31951735 35.99848601 69.36579674 40.08152853 66.47862101 44.2542727 C56.34347113 59.36371204 46.81558773 74.86685919 37.41612101 90.4417727 C36.91000284 91.2778103 36.40388468 92.11384789 35.8824296 92.97521996 C35.42175089 93.74406518 34.96107218 94.51291039 34.48643351 95.30505395 C34.08440714 95.97448022 33.68238077 96.64390649 33.26817179 97.3336184 C32.1469622 99.26899781 32.1469622 99.26899781 31.29112101 102.1292727 C19.41112101 102.1292727 7.53112101 102.1292727 -4.70887899 102.1292727 C1.64059284 90.48857434 1.64059284 90.48857434 5.47862101 84.8714602 C9.42749579 78.89708498 13.07094672 72.72408725 16.78721476 66.60339379 C19.34300278 62.39879058 21.91159067 58.20201757 24.47862101 54.0042727 C26.08291493 51.37935046 27.68703909 48.7543245 29.29112101 46.1292727 C11.67213904 45.01128217 -5.95708169 44.82040638 -23.60438681 44.59704614 C-27.57414987 44.54600397 -31.54385448 44.49075842 -35.51356649 44.43591332 C-43.24528727 44.32968886 -50.97705803 44.22796715 -58.70887899 44.1292727 C-58.70887899 43.4692727 -58.70887899 42.8092727 -58.70887899 42.1292727 C-58.04887899 42.1292727 -57.38887899 42.1292727 -56.70887899 42.1292727 C-56.59092978 41.33843286 -56.59092978 41.33843286 -56.47059774 40.53161645 C-55.2001501 36.52482003 -52.63990132 33.24212246 -50.19981718 29.85999608 C-47.43487406 25.95752424 -45.2024204 22.15582251 -43.28038168 17.77143884 C-33.90869403 -1.88155561 -19.24579409 -0.71551653 0 0 Z " fill="#E1242C" transform="translate(102.70887899398804,222.87072730064392)"/>
<path d="M0 0 C2.31559651 1.47710683 4.01667741 3.06626048 6 5 C6.680625 4.38125 7.36125 3.7625 8.0625 3.125 C13.26347881 -0.6374102 18.65935398 -1.58709685 25 -1 C28.5386994 0.65139305 29.81070153 1.71605229 32 5 C32.90187048 11.27795556 31.67172322 16.98331626 29.8671875 22.97265625 C28.26246333 28.57473388 27.18574508 34.29713081 26 40 C21.05 40 16.1 40 11 40 C11.44668343 33.52309024 11.98164793 27.352104 13.5234375 21.046875 C14.22079773 18.05165565 14.61075267 15.04910405 15 12 C12.16926564 11.49830585 12.16926564 11.49830585 9 12 C4.53837444 17.0793891 3.58155973 22.88469314 2.25 29.375 C1.91935547 30.90833984 1.91935547 30.90833984 1.58203125 32.47265625 C1.04321313 34.97933183 0.52003079 37.48935956 0 40 C-4.95 40 -9.9 40 -15 40 C-14.58338785 33.19533488 -14.21511643 27.43768212 -12 21 C-11.73366136 19.21603365 -11.52077069 17.42283846 -11.375 15.625 C-11.30023437 14.75101562 -11.22546875 13.87703125 -11.1484375 12.9765625 C-11.09945312 12.32429688 -11.05046875 11.67203125 -11 11 C-15.70725831 11.59092707 -15.70725831 11.59092707 -19.21484375 14.50390625 C-23.03382996 22.3412635 -24.27892863 31.51365341 -26 40 C-31.28 40 -36.56 40 -42 40 C-41.65066406 38.19273437 -41.30132812 36.38546875 -40.94140625 34.5234375 C-40.48173129 32.14063263 -40.02209806 29.75781971 -39.5625 27.375 C-39.33240234 26.18519531 -39.10230469 24.99539063 -38.86523438 23.76953125 C-38.64287109 22.61582031 -38.42050781 21.46210938 -38.19140625 20.2734375 C-37.88505249 18.68668213 -37.88505249 18.68668213 -37.57250977 17.06787109 C-37.00948259 14.05081373 -36.49424927 11.02901358 -36 8 C-35.34 8 -34.68 8 -34 8 C-34 5.36 -34 2.72 -34 0 C-29.05 0 -24.1 0 -19 0 C-19 1.32 -19 2.64 -19 4 C-18.45730469 3.72285156 -17.91460938 3.44570313 -17.35546875 3.16015625 C-16.64003906 2.79792969 -15.92460938 2.43570312 -15.1875 2.0625 C-14.47980469 1.70285156 -13.77210938 1.34320313 -13.04296875 0.97265625 C-8.54954107 -1.16666209 -4.76043541 -1.3537208 0 0 Z " fill="#3E3988" transform="translate(553,414)"/>
<path d="M0 0 C3.125 1.875 3.125 1.875 5 4 C5 4.66 5 5.32 5 6 C5.81404297 5.47599609 5.81404297 5.47599609 6.64453125 4.94140625 C7.35996094 4.48636719 8.07539063 4.03132813 8.8125 3.5625 C9.52019531 3.11003906 10.22789062 2.65757812 10.95703125 2.19140625 C15.46940798 -0.44009452 19.91502658 -0.5183277 25 0 C27.96912882 1.38980498 29.69657028 2.69657028 32 5 C33.38027199 14.42115882 30.59893788 23.0723508 28 32 C27.27972511 34.99191107 26.63402126 37.98839903 26 41 C20.72 41 15.44 41 10 41 C10.27714844 39.66066406 10.55429687 38.32132812 10.83984375 36.94140625 C11.20593859 35.14848025 11.5718122 33.35550906 11.9375 31.5625 C12.11990234 30.68400391 12.30230469 29.80550781 12.49023438 28.90039062 C13.63214833 23.27386913 14.44767115 17.7151501 15 12 C12.36 12.33 9.72 12.66 7 13 C4.59137499 19.42300002 3.18151674 25.76754174 2.00268555 32.50195312 C1.48989324 35.42815594 0.9413585 38.17592451 0 41 C-4.95 41 -9.9 41 -15 41 C-14.51343668 33.70155017 -13.41634018 27.01330691 -11.5234375 19.9453125 C-10.98523796 16.916936 -11.18636462 14.93993583 -12 12 C-14.37233611 12.03780298 -14.37233611 12.03780298 -17 13 C-21.40446803 18.16148598 -22.41007917 23.84393933 -23.75 30.375 C-23.97042969 31.39722656 -24.19085938 32.41945313 -24.41796875 33.47265625 C-24.95678687 35.97933183 -25.47996921 38.48935956 -26 41 C-31.28 41 -36.56 41 -42 41 C-39.25888189 27.60067961 -36.22675496 14.29052762 -33 1 C-28.38 1 -23.76 1 -19 1 C-19 2.32 -19 3.64 -19 5 C-17.6078125 4.0409375 -17.6078125 4.0409375 -16.1875 3.0625 C-10.92365183 -0.3435194 -6.13901441 -0.73316255 0 0 Z " fill="#3D3887" transform="translate(419,337)"/>
<path d="M0 0 C4.19461655 1.73255901 6.5096726 4.23888824 9 8 C9.39976589 10.7366327 9.57455921 12.9676956 9.5 15.6875 C9.47969727 16.74988892 9.47969727 16.74988892 9.45898438 17.83374023 C9.18280606 24.88030149 7.95130275 30.82705791 3.0234375 36.125 C-1.969488 40.627711 -4.96471346 42.2982267 -11.6796875 42.22265625 C-16.54700759 41.75559018 -19.72741246 39.41612208 -23 36 C-23.04898437 36.60585938 -23.09796875 37.21171875 -23.1484375 37.8359375 C-23.69929521 44.00934288 -24.7013584 49.93967253 -26 56 C-31.28 56 -36.56 56 -42 56 C-40.55056899 46.84082955 -39.07270003 37.73331344 -36.890625 28.71484375 C-36.14565762 25.6075456 -35.43241829 22.49693589 -34.734375 19.37890625 C-34.51056152 18.38084961 -34.28674805 17.38279297 -34.05615234 16.35449219 C-33.60708134 14.3489636 -33.15945641 12.3431106 -32.71337891 10.33691406 C-32.50632324 9.41749023 -32.29926758 8.49806641 -32.0859375 7.55078125 C-31.9007959 6.72231689 -31.7156543 5.89385254 -31.52490234 5.0402832 C-31 3 -31 3 -30 1 C-25.38 1 -20.76 1 -16 1 C-15.67 1.66 -15.34 2.32 -15 3 C-14.38125 2.505 -13.7625 2.01 -13.125 1.5 C-8.71663764 -0.61601393 -4.81165648 -0.57962198 0 0 Z " fill="#3E3988" transform="translate(493,337)"/>
<path d="M0 0 C4.42908378 -0.07460234 8.8578269 -0.12881371 13.28735352 -0.16479492 C14.79165017 -0.17980722 16.29590361 -0.20022353 17.80004883 -0.22631836 C19.97227696 -0.26303816 22.14392251 -0.27980161 24.31640625 -0.29296875 C25.62037354 -0.3086792 26.92434082 -0.32438965 28.26782227 -0.34057617 C33.12451141 0.10261617 37.00322283 1.40257826 40.875 4.5 C44.14338878 8.85785171 43.40662237 14.84698566 43 20 C40.93861431 25.85867513 37.33825213 29.63601959 32 32.75 C26.72931072 34.94612053 21.84393478 35.13286713 16.1875 35.0625 C15.49462891 35.05798828 14.80175781 35.05347656 14.08789062 35.04882812 C12.39188932 35.03713156 10.69593297 35.01919924 9 35 C8.87625 36.27875 8.7525 37.5575 8.625 38.875 C7.0625 52.9375 7.0625 52.9375 5 55 C2.13732433 55.07325168 -0.700719 55.09238205 -3.5625 55.0625 C-4.36880859 55.05798828 -5.17511719 55.05347656 -6.00585938 55.04882812 C-8.00393756 55.03700518 -10.00197783 55.01906914 -12 55 C-11.74605469 53.73027344 -11.49210937 52.46054687 -11.23046875 51.15234375 C-11.06530762 50.32629639 -10.90014648 49.50024902 -10.72998047 48.64916992 C-10.36609767 46.8302472 -10.00183527 45.01140038 -9.63720703 43.19262695 C-8.79501553 38.98944696 -7.95554958 34.78592473 -7.13671875 30.578125 C-6.88535156 29.29421875 -6.63398438 28.0103125 -6.375 26.6875 C-6.15585937 25.55699219 -5.93671875 24.42648437 -5.7109375 23.26171875 C-5.21170503 20.97128408 -4.62676197 18.69867201 -3.98046875 16.4453125 C-3.10116425 13.35548553 -2.4642936 10.35268844 -1.9375 7.1875 C-1.10766046 2.21532091 -1.10766046 2.21532091 0 0 Z " fill="#3B3786" transform="translate(328,399)"/>
<path d="M0 0 C4.95 0 9.9 0 15 0 C14.47916667 3.22265625 13.95833333 6.4453125 13.4375 9.66796875 C13.06510523 12.50415393 12.91403979 15.14719564 13 18 C14.134375 17.34 15.26875 16.68 16.4375 16 C21.0239353 13.73519389 24.9513989 12.99585834 30 14 C34.39664804 16.08262276 34.39664804 16.08262276 36 19 C38.42353455 30.02883838 34.13805376 43.43901056 31 54 C30 55 30 55 26.62109375 55.09765625 C25.22652923 55.09098369 23.83198257 55.07902532 22.4375 55.0625 C21.72658203 55.05798828 21.01566406 55.05347656 20.28320312 55.04882812 C18.52209987 55.03700864 16.76103964 55.01907263 15 55 C15.97630013 48.28014698 17.00633246 41.62410741 18.55859375 35.01171875 C19.21379251 32.02563588 19.61299886 29.03150894 20 26 C16.63147485 25.9434891 16.63147485 25.9434891 13 27 C9.37395833 32.15208528 8.00208355 37.12640534 6.8125 43.25 C6.48682613 44.83877764 6.16004878 46.42732958 5.83203125 48.015625 C5.62670776 49.05638184 5.62670776 49.05638184 5.41723633 50.11816406 C5 52 5 52 4 55 C-0.95 55 -5.9 55 -11 55 C-10.46743903 44.74205639 -8.42772273 35.20082246 -6.0625 25.25 C-5.69780575 23.68637544 -5.33386906 22.12257398 -4.97070312 20.55859375 C-3.37013564 13.69094178 -1.72108094 6.83851735 0 0 Z " fill="#3D3888" transform="translate(383,399)"/>
<path d="M0 0 C5.28 0 10.56 0 16 0 C14.5 9 14.5 9 13 18 C14.134375 17.34 15.26875 16.68 16.4375 16 C21.00167165 13.72600668 24.96582512 13.18338766 30 14 C32.96912882 15.38980498 34.69657028 16.69657028 37 19 C38.2587787 26.96749702 35.89914234 34.95143839 34 42.625 C33.57074219 44.41744141 33.57074219 44.41744141 33.1328125 46.24609375 C32.43191718 49.1664909 31.71735686 52.08360276 31 55 C26.05 55 21.1 55 16 55 C16.4546753 49.63483144 17.27979981 44.6086588 18.5625 39.375 C19.68122831 34.74259587 20.33112024 30.74605675 20 26 C17.13265479 26.0311941 17.13265479 26.0311941 14 27 C10.62253116 31.23300915 9.12082082 35.22023699 7.8125 40.4375 C7.48894531 41.69433594 7.16539062 42.95117188 6.83203125 44.24609375 C6.04516708 47.79621802 5.51424775 51.40026573 5 55 C-0.28 55 -5.56 55 -11 55 C-9.69314036 46.66486174 -8.0317032 38.51360862 -6.0625 30.3125 C-3.68633839 20.24306376 -1.6706311 10.20941225 0 0 Z " fill="#3C3787" transform="translate(517,323)"/>
<path d="M0 0 C3.88729876 7.06781593 0.9645231 18.03629947 -0.125 25.6875 C-0.26808594 26.73486328 -0.41117187 27.78222656 -0.55859375 28.86132812 C-0.90751558 31.4084575 -1.26531444 33.95436829 -1.625 36.5 C-6.575 36.5 -11.525 36.5 -16.625 36.5 C-16.955 35.51 -17.285 34.52 -17.625 33.5 C-18.73875 34.16 -19.8525 34.82 -21 35.5 C-26.76531814 38.38777924 -32.29515289 38.22387981 -38.5 36.875 C-42.0675016 34.56661661 -44.14358957 31.73766698 -45.046875 27.5390625 C-45.31731876 23.61762792 -44.72282702 21.67282773 -42.75 18.1875 C-35.59449386 10.89362772 -22.18612148 11.442802 -12.625 10.5 C-12.625 9.18 -12.625 7.86 -12.625 6.5 C-14.01539057 6.22131605 -15.41295546 5.97831069 -16.8125 5.75 C-17.58980469 5.61078125 -18.36710937 5.4715625 -19.16796875 5.328125 C-21.83262077 5.269531 -21.83262077 5.269531 -24 7.53125 C-26.625 9.5 -26.625 9.5 -29.95703125 9.453125 C-31.10558594 9.22109375 -32.25414062 8.9890625 -33.4375 8.75 C-34.59894531 8.52828125 -35.76039063 8.3065625 -36.95703125 8.078125 C-38.27767578 7.79195313 -38.27767578 7.79195313 -39.625 7.5 C-38.75212802 3.17239259 -37.05733602 1.34810861 -33.625 -1.5 C-23.15948477 -6.91964181 -10.12583148 -5.78618942 0 0 Z " fill="#3D3887" transform="translate(468.625,417.5)"/>
<path d="M0 0 C2.78293938 2.18659523 3.76728766 3.55992131 4.33203125 7.0546875 C4.61485037 13.44430458 3.16889126 19.44529246 1.734375 25.63671875 C0.83373331 29.76146606 0.3622782 33.79757293 0 38 C-4.62 38 -9.24 38 -14 38 C-14 36.68 -14 35.36 -14 34 C-15.093125 34.639375 -16.18625 35.27875 -17.3125 35.9375 C-22.78957426 39.14107174 -27.72924454 39.71192092 -34 39 C-37.24168949 37.37915526 -39.19736744 36.05801565 -41.375 33.1875 C-42.59875016 28.90437443 -42.59895652 25.31770435 -40.75 21.25 C-34.60120049 13.34440063 -24.27555805 13.53088898 -15 12.3671875 C-14.01 12.24601562 -13.02 12.12484375 -12 12 C-12 10.68 -12 9.36 -12 8 C-14.79870027 6.60064987 -16.90498792 6.74734595 -20 7 C-20.46792969 7.495 -20.93585937 7.99 -21.41796875 8.5 C-23 10 -23 10 -25.0859375 10.328125 C-25.84132813 10.30234375 -26.59671875 10.2765625 -27.375 10.25 C-28.16519531 10.22421875 -28.95539062 10.1984375 -29.76953125 10.171875 C-32.24095064 9.98143288 -34.59887937 9.61964403 -37 9 C-36.72162928 5.6595514 -36.27974867 4.27974867 -33.875 1.875 C-23.76265748 -4.72000599 -11.04808618 -5.30826016 0 0 Z " fill="#3D3987" transform="translate(632,416)"/>
<path d="M0 0 C17.16 0 34.32 0 52 0 C51.34 4.29 50.68 8.58 50 13 C44.06 13.33 38.12 13.66 32 14 C30.87732493 18.87430226 29.75575669 23.74883257 28.63696289 28.62402344 C28.2564211 30.28074681 27.87524442 31.93732449 27.4934082 33.59375 C26.94313279 35.98138567 26.39517962 38.36954444 25.84765625 40.7578125 C25.6778273 41.49242706 25.50799835 42.22704163 25.33302307 42.98391724 C24.418132 46.98586426 23.67612521 50.94324876 23 55 C17.39 55 11.78 55 6 55 C6.98489588 45.06896658 8.30018934 35.99915214 11.046875 26.40625 C12.28780761 21.97144167 13.16430847 17.52666246 14 13 C8.72 13 3.44 13 -2 13 C-1.125 3.375 -1.125 3.375 0 0 Z " fill="#3B3686" transform="translate(222,323)"/>
<path d="M0 0 C5.28 0 10.56 0 16 0 C14.24170616 11.30331754 14.24170616 11.30331754 12.9375 15.0625 C11.48786743 19.60468206 11.32043273 24.26096852 11 29 C15.1526909 28.2014056 17.41365407 27.71950874 20.1328125 24.3828125 C22.17497091 20.68300249 22.92398661 17.65540469 23.625 13.5 C24.45143356 8.71640808 25.44840962 4.65477115 27 0 C31.95 0 36.9 0 42 0 C40.80112276 8.19232778 39.44885936 16.34848609 38 24.5 C37.8340332 25.45535645 37.66806641 26.41071289 37.49707031 27.39501953 C37.25102051 28.76182861 37.25102051 28.76182861 37 30.15625 C36.855625 30.96900391 36.71125 31.78175781 36.5625 32.61914062 C36 35 36 35 34 40 C29.38 40 24.76 40 20 40 C20 38.35 20 36.7 20 35 C19.18595703 35.52400391 19.18595703 35.52400391 18.35546875 36.05859375 C17.64003906 36.51363281 16.92460937 36.96867187 16.1875 37.4375 C15.12595703 38.11619141 15.12595703 38.11619141 14.04296875 38.80859375 C9.9975559 41.16777333 6.61018543 41.31794382 2 41 C-1.5386994 39.34860695 -2.81070153 38.28394771 -5 35 C-6.0130367 25.97476393 -4.28958036 17.67806799 -2 9 C-1.59521048 7.23119245 -1.19819127 5.46056993 -0.8125 3.6875 C-0.544375 2.470625 -0.27625 1.25375 0 0 Z " fill="#3C3786" transform="translate(334,338)"/>
<path d="M0 0 C-0.26239024 1.67929755 -0.62033354 3.34327363 -1 5 C-1.18949219 6.01126953 -1.18949219 6.01126953 -1.3828125 7.04296875 C-1.9927203 9.40099258 -2.53798476 11.04027745 -4 13 C-6.58244464 13.9101702 -8.89842779 14.24214025 -11.625 14.453125 C-14.10976522 14.79937113 -14.10976522 14.79937113 -15.6875 16.734375 C-18.63377916 21.82021402 -19.83958957 27.13289023 -21.125 32.8125 C-21.30675781 33.60076172 -21.48851562 34.38902344 -21.67578125 35.20117188 C-22.12075537 37.13329636 -22.56086782 39.06653939 -23 41 C-27.95 41 -32.9 41 -38 41 C-36.5355573 31.09282322 -34.93822518 21.23971245 -32.875 11.4375 C-32.70452148 10.6230542 -32.53404297 9.8086084 -32.35839844 8.96948242 C-31.1326252 3.2652504 -31.1326252 3.2652504 -30 1 C-25.38 1 -20.76 1 -16 1 C-16 2.98 -16 4.96 -16 7 C-15.4225 6.21625 -14.845 5.4325 -14.25 4.625 C-9.87788661 -0.47579895 -6.41559856 -0.21385329 0 0 Z " fill="#3D3887" transform="translate(304,337)"/>
<path d="M0 0 C-0.62335603 2.01391949 -1.30028027 4.01132287 -2 6 C-2.5259375 7.60875 -2.5259375 7.60875 -3.0625 9.25 C-5.30477744 12.43258733 -5.79510531 12.42358814 -9.4375 13.0625 C-10.19933594 13.13597656 -10.96117187 13.20945312 -11.74609375 13.28515625 C-15.21010068 14.38379276 -16.11684366 15.88869822 -18 19 C-19.16722594 22.55348968 -19.9693389 26.1571403 -20.75 29.8125 C-20.97042969 30.79154297 -21.19085938 31.77058594 -21.41796875 32.77929688 C-21.95744994 35.18350654 -22.48037715 37.59142031 -23 40 C-28.28 40 -33.56 40 -39 40 C-36.33333333 26.66666667 -33.66666667 13.33333333 -31 0 C-26.05 0 -21.1 0 -16 0 C-16.33 2.31 -16.66 4.62 -17 7 C-16.2575 6.05125 -15.515 5.1025 -14.75 4.125 C-10.03559271 -1.42985872 -6.96416439 -1.16069407 0 0 Z " fill="#3D3887" transform="translate(513,414)"/>
<path d="M0 0 C4.95 0 9.9 0 15 0 C14.45011215 9.0228076 12.64425405 17.43972286 10.4375 26.1875 C10.10407984 27.53432276 9.77139277 28.88132722 9.43945312 30.22851562 C8.63347762 33.48746007 7.81773953 36.74398749 7 40 C2.05 40 -2.9 40 -8 40 C-7.36277949 31.65241129 -5.7966975 23.66988864 -4 15.5 C-3.72671875 14.22640625 -3.4534375 12.9528125 -3.171875 11.640625 C-1.14074248 2.28148496 -1.14074248 2.28148496 0 0 Z " fill="#3E3887" transform="translate(309,338)"/>
<path d="M0 0 C-0.99 0 -1.98 0 -3 0 C-3.33 1.65 -3.66 3.3 -4 5 C-4.66 5 -5.32 5 -6 5 C-6 5.66 -6 6.32 -6 7 C-4.02 7 -2.04 7 0 7 C-0.08378906 7.64066406 -0.16757812 8.28132813 -0.25390625 8.94140625 C-0.87664605 14.23075314 -1.02317185 18.77045499 0 24 C-0.66 23.01 -1.32 22.02 -2 21 C-3.11375 21.66 -4.2275 22.32 -5.375 23 C-11.14031814 25.88777924 -16.67015289 25.72387981 -22.875 24.375 C-26.4425016 22.06661661 -28.51858957 19.23766698 -29.421875 15.0390625 C-29.69231876 11.11762792 -29.09782702 9.17282773 -27.125 5.6875 C-21.86608553 0.23600556 -13.38345859 -0.28500405 -6.2265625 -0.984375 C-3.96842318 -1.00022159 -2.15432337 -0.64924814 0 0 Z " fill="#403B88" transform="translate(453,430)"/>
<path d="M0 0 C3.79440148 3.23640126 5.9409563 5.43724429 6.62109375 10.51953125 C6.62672524 11.88814862 6.60632229 13.2570728 6.5625 14.625 C6.5507373 15.33406494 6.53897461 16.04312988 6.52685547 16.77368164 C6.35223514 22.08739036 5.60746429 26.1340096 3.125 30.8125 C2.135 31.3075 2.135 31.3075 1.125 31.8125 C-1.875 28.1875 -1.875 28.1875 -1.875 24.8125 C-2.865 25.1425 -3.855 25.4725 -4.875 25.8125 C-7.0546875 24.72265625 -7.0546875 24.72265625 -8.875 22.8125 C-9.1953125 20.18359375 -9.1953125 20.18359375 -9 17.25 C-8.78418163 14.384283 -8.78418163 14.384283 -8.875 11.8125 C-9.535 11.1525 -10.195 10.4925 -10.875 9.8125 C-12.8681567 9.78874074 -12.8681567 9.78874074 -15 10.1875 C-16.27875 10.39375 -17.5575 10.6 -18.875 10.8125 C-19.09437561 6.97342674 -18.71624418 4.21880173 -16.875 0.8125 C-11.83793608 -2.38987176 -5.40048901 -2.23063676 0 0 Z " fill="#3C3787" transform="translate(495.875,338.1875)"/>
<path d="M0 0 C0.495 0.99 0.495 0.99 1 2 C1.99 2.33 2.98 2.66 4 3 C-0.59765625 10.10546875 -5.1953125 17.2109375 -9.79296875 24.31640625 C-10.2405957 25.00822998 -10.68822266 25.70005371 -11.14941406 26.4128418 C-12.05618038 27.81413341 -12.96308331 29.21533664 -13.87011719 30.61645508 C-16.17831367 34.18236473 -18.48407429 37.74980704 -20.78515625 41.3203125 C-25.629563 48.83169266 -30.51473253 56.31087067 -35.49658203 63.73193359 C-38.60406598 68.37122286 -41.59623983 73.0749835 -44.52734375 77.828125 C-45.87262327 79.81214467 -47.24078296 81.3825706 -49 83 C-49.66 82.34 -50.32 81.68 -51 81 C-47.33609013 73.26591509 -43.08433778 66.00997674 -38.5625 58.75 C-37.85660281 57.61135089 -37.15087647 56.47259585 -36.4453125 55.33374023 C-34.30493999 51.8840886 -32.15347499 48.44148839 -30 45 C-29.34628418 43.95408691 -28.69256836 42.90817383 -28.01904297 41.83056641 C-16.2068723 22.9742456 -16.2068723 22.9742456 -9.8203125 14.47265625 C-6.36255161 9.7757407 -3.19914841 4.87529798 0 0 Z " fill="#F2EFF0" transform="translate(184,244)"/>
<path d="M0 0 C0 0.99 0 1.98 0 3 C1.98 2.67 3.96 2.34 6 2 C6.625 4.375 6.625 4.375 7 7 C6.34 7.66 5.68 8.32 5 9 C5.32041397 11.60280568 5.32041397 11.60280568 6 14 C8.31 14 10.62 14 13 14 C13 14.99 13 15.98 13 17 C13.66 17.66 14.32 18.32 15 19 C8.93279466 22.77150602 4.0942041 23.80540731 -3 23 C-6.24168949 21.37915526 -8.19736744 20.05801565 -10.375 17.1875 C-11.59875016 12.90437443 -11.59895652 9.31770435 -9.75 5.25 C-6.6530018 1.26814517 -5.15857804 0 0 0 Z " fill="#3D3886" transform="translate(601,432)"/>
<path d="M0 0 C2.03247783 1.56456927 2.88933751 2.48556894 3.43359375 5.015625 C3.44383602 10.87420448 2.34722615 14.17605644 -1 19 C-3 21 -3 21 -6 21.25 C-9 21 -9 21 -11 19 C-11.77391633 12.84887281 -11.61370659 7.21979841 -8 2 C-4.76746204 -0.15502531 -3.74849077 -0.46856135 0 0 Z " fill="#F4F4F6" transform="translate(485,347)"/>
<path d="M0 0 C1.62463842 -0.05395478 3.24978541 -0.09277195 4.875 -0.125 C6.23238281 -0.15980469 6.23238281 -0.15980469 7.6171875 -0.1953125 C10 0 10 0 12 2 C12.6064977 5.89891378 12.29664155 7.54514962 10.125 10.875 C5.75880954 13.84400951 2.12683554 13.44797592 -3 13 C-2.69128878 11.20767663 -2.37790936 9.41615679 -2.0625 7.625 C-1.88847656 6.62726563 -1.71445312 5.62953125 -1.53515625 4.6015625 C-1 2 -1 2 0 0 Z " fill="#F2F2F4" transform="translate(343,410)"/>
<path d="M0 0 C4.95 0 9.9 0 15 0 C14.67 3.3 14.34 6.6 14 10 C8.72 10 3.44 10 -2 10 C-1.34 6.7 -0.68 3.4 0 0 Z " fill="#403C8A" transform="translate(312,323)"/>
<path d="M0 0 C-0.3015987 3.51865145 -1.00605962 5.00757452 -3.25 7.8125 C-6 10 -6 10 -8.625 10.4375 C-11 10 -11 10 -14 8 C-13.9375 5.6875 -13.9375 5.6875 -13 3 C-8.57951289 0.48638968 -5.05648166 -0.36998646 0 0 Z " fill="#EFEEF2" transform="translate(453,437)"/>
<path d="M0 0 C-1.22802821 4.91211284 -2.62397804 7.35403323 -7 10 C-9.6875 10.375 -9.6875 10.375 -12 10 C-12.66 9.34 -13.32 8.68 -14 8 C-13.67028521 4.70285207 -13.3773161 3.3773161 -11 1 C-7.30704038 -0.02582212 -3.81684076 -0.08876374 0 0 Z " fill="#F0F0F2" transform="translate(619,437)"/>
<path d="M0 0 C1.32 0.66 2.64 1.32 4 2 C4 4.31 4 6.62 4 9 C18.85 9.495 18.85 9.495 34 10 C34 10.33 34 10.66 34 11 C20.8 11 7.6 11 -6 11 C-6 10.34 -6 9.68 -6 9 C-5.34 9 -4.68 9 -4 9 C-3.896875 8.443125 -3.79375 7.88625 -3.6875 7.3125 C-2.86866423 4.55823422 -1.54146219 2.41272343 0 0 Z " fill="#DA5257" transform="translate(50,256)"/>
<path d="M0 0 C-0.72008406 4.60853797 -2.31295939 8.67237409 -4 13 C-6.31 13 -8.62 13 -11 13 C-11 12.67 -11 12.34 -11 12 C-9.35 11.67 -7.7 11.34 -6 11 C-6.66 10.01 -7.32 9.02 -8 8 C-9.32 8 -10.64 8 -12 8 C-11.814375 7.38125 -11.62875 6.7625 -11.4375 6.125 C-10.76313824 3.95839822 -10.76313824 3.95839822 -12 2 C-8.09971775 -0.60018816 -4.52565431 -0.15085514 0 0 Z " fill="#45408A" transform="translate(304,337)"/>
<path d="M0 0 C0.99 0.33 1.98 0.66 3 1 C3 1.66 3 2.32 3 3 C2.34 3 1.68 3 1 3 C0.67 3.99 0.34 4.98 0 6 C-0.66 6 -1.32 6 -2 6 C-3.04449911 9.13349732 -2.93423645 9.98968256 -2 13 C-1.34 13 -0.68 13 0 13 C0 13.66 0 14.32 0 15 C0.99 15.33 1.98 15.66 3 16 C3 16.33 3 16.66 3 17 C-1.29 17 -5.58 17 -10 17 C-8.26611337 12.66528344 -6.47613198 9.50529049 -3.875 5.6875 C-3.15054688 4.61886719 -2.42609375 3.55023438 -1.6796875 2.44921875 C-0.84824219 1.23685547 -0.84824219 1.23685547 0 0 Z " fill="#36A5D7" transform="translate(252,282)"/>
<path d="M0 0 C0.33 1.65 0.66 3.3 1 5 C0.34 5 -0.32 5 -1 5 C-1 5.66 -1 6.32 -1 7 C-1.639375 7.12375 -2.27875 7.2475 -2.9375 7.375 C-3.618125 7.58125 -4.29875 7.7875 -5 8 C-5.33 8.66 -5.66 9.32 -6 10 C-5.34 10 -4.68 10 -4 10 C-4 10.99 -4 11.98 -4 13 C-5.1446875 13.2165625 -5.1446875 13.2165625 -6.3125 13.4375 C-9.08172908 13.9632594 -9.08172908 13.9632594 -12 15 C-10.68552225 11.43574301 -9.11594205 8.40275366 -7 5.25 C-6.2265625 4.08210938 -6.2265625 4.08210938 -5.4375 2.890625 C-3.71704409 0.62785146 -2.85299807 0 0 0 Z " fill="#29A3D9" transform="translate(110,371)"/>
<path d="M0 0 C1.51223648 0.00666183 1.51223648 0.00666183 3.05502319 0.01345825 C4.19605499 0.01360931 5.33708679 0.01376038 6.51269531 0.01391602 C8.36741959 0.02939987 8.36741959 0.02939987 10.25961304 0.04519653 C12.15313004 0.04944138 12.15313004 0.04944138 14.0848999 0.05377197 C17.44201998 0.06308772 20.79886965 0.08106068 24.15591431 0.10317993 C27.58108176 0.12363353 31.00627713 0.13277264 34.43148804 0.14285278 C41.15291724 0.16494445 47.87421827 0.19844527 54.59555054 0.24050903 C54.59555054 0.57050903 54.59555054 0.90050903 54.59555054 1.24050903 C47.56649972 1.40899457 40.53729032 1.56883605 33.50790405 1.72268677 C31.11690832 1.77603621 28.72595579 1.83135992 26.33505249 1.88870239 C22.89724033 1.97081006 19.45933505 2.04580266 16.02133179 2.11941528 C14.95344925 2.14645035 13.88556671 2.17348541 12.7853241 2.20133972 C11.78466415 2.221436 10.78400421 2.24153229 9.75302124 2.26223755 C8.87587967 2.28222305 7.9987381 2.30220856 7.09501648 2.32279968 C4.49537572 2.23721095 2.12723782 1.8202169 -0.40444946 1.24050903 C-0.40444946 1.90050903 -0.40444946 2.56050903 -0.40444946 3.24050903 C-1.72444946 2.91050903 -3.04444946 2.58050903 -4.40444946 2.24050903 C-2.40444946 0.24050903 -2.40444946 0.24050903 0 0 Z " fill="#289BD0" transform="translate(192.40444946289063,242.75949096679688)"/>
<path d="M0 0 C0.66 0.33 1.32 0.66 2 1 C1.54625 1.70125 1.0925 2.4025 0.625 3.125 C-1.10132994 5.95184349 -1.10132994 5.95184349 -2 9.125 C-2.97567357 11.93006152 -3.74150198 13.15213798 -6 15 C-6 14.01 -6 13.02 -6 12 C-6.99 11.67 -7.98 11.34 -9 11 C-8.625 8.5625 -8.625 8.5625 -8 6 C-7.34 5.67 -6.68 5.34 -6 5 C-4.86649466 2.98330173 -4.86649466 2.98330173 -4 1 C-4 1.66 -4 2.32 -4 3 C-2.68 2.01 -1.36 1.02 0 0 Z " fill="#45408A" transform="translate(404,339)"/>
<path d="M0 0 C1 3 1 3 1 5 C-1.78061975 5.92687325 -3.42051859 6.12193396 -6.2878418 6.11352539 C-7.14850754 6.11344986 -8.00917328 6.11337433 -8.8959198 6.11329651 C-9.82100845 6.10813522 -10.74609711 6.10297394 -11.69921875 6.09765625 C-12.64940384 6.0962413 -13.59958893 6.09482635 -14.5785675 6.09336853 C-17.61491029 6.08776875 -20.65117948 6.07521632 -23.6875 6.0625 C-25.74544164 6.05748497 -27.80338444 6.05292207 -29.86132812 6.04882812 C-34.90758046 6.0377994 -39.95377775 6.02053493 -45 6 C-45 5.67 -45 5.34 -45 5 C-43.74340576 4.9906543 -42.48681152 4.98130859 -41.19213867 4.97167969 C-36.53455009 4.93183868 -31.87762617 4.86609657 -27.22045898 4.79248047 C-25.20394421 4.7642366 -23.18731802 4.74303912 -21.1706543 4.72900391 C-18.2733441 4.70762154 -15.37737828 4.66099634 -12.48046875 4.609375 C-11.57725388 4.60814636 -10.674039 4.60691772 -9.74345398 4.60565186 C-4.81125182 4.63587992 -4.81125182 4.63587992 -0.9074707 1.96191406 C-0.60800537 1.31448242 -0.30854004 0.66705078 0 0 Z " fill="#F2F8FB" transform="translate(157,382)"/>
<path d="M0 0 C4.95 0 9.9 0 15 0 C14.67 0.66 14.34 1.32 14 2 C11.69 2 9.38 2 7 2 C6.67 3.32 6.34 4.64 6 6 C5.38125 6.12375 4.7625 6.2475 4.125 6.375 C1.80879168 6.87197356 1.80879168 6.87197356 0 9 C0 6.03 0 3.06 0 0 Z " fill="#3A3581" transform="translate(312,323)"/>
<path d="M0 0 C0.66 0 1.32 0 2 0 C2 0.66 2 1.32 2 2 C1.01 2.495 1.01 2.495 0 3 C-0.73075648 5.3140622 -1.40138258 7.64828869 -2 10 C-3.32 10.33 -4.64 10.66 -6 11 C-6.66 13.31 -7.32 15.62 -8 18 C-8.66 17.01 -9.32 16.02 -10 15 C-8.52235475 12.68651501 -7.04296381 10.37418021 -5.5625 8.0625 C-5.14162109 7.40314453 -4.72074219 6.74378906 -4.28710938 6.06445312 C-1.11328125 1.11328125 -1.11328125 1.11328125 0 0 Z " fill="#3AA7D6" transform="translate(153,300)"/>
<path d="M0 0 C0.33 0 0.66 0 1 0 C1 1.65 1 3.3 1 5 C1.66 5 2.32 5 3 5 C3 5.99 3 6.98 3 8 C1.8553125 8.2165625 1.8553125 8.2165625 0.6875 8.4375 C-2.08172908 8.9632594 -2.08172908 8.9632594 -5 10 C-3.66654496 6.40992874 -2.1056769 3.20429093 0 0 Z " fill="#39A5D7" transform="translate(103,376)"/>
<path d="M0 0 C0.74886475 0.00523682 1.49772949 0.01047363 2.26928711 0.01586914 C3.07817383 0.0190918 3.88706055 0.02231445 4.72045898 0.02563477 C5.5705957 0.03401367 6.42073242 0.04239258 7.29663086 0.05102539 C8.15063477 0.05553711 9.00463867 0.06004883 9.88452148 0.06469727 C12.00108749 0.07652166 14.11761771 0.0944577 16.23413086 0.11352539 C16.23413086 0.44352539 16.23413086 0.77352539 16.23413086 1.11352539 C15.28151367 1.1509082 14.32889648 1.18829102 13.34741211 1.22680664 C12.0931543 1.29254883 10.83889648 1.35829102 9.54663086 1.42602539 C8.30526367 1.4840332 7.06389648 1.54204102 5.78491211 1.60180664 C2.13782112 2.12740501 0.21498314 3.02424334 -2.76586914 5.11352539 C-3.75586914 5.60852539 -3.75586914 5.60852539 -4.76586914 6.11352539 C-2.47572912 0.15916135 -2.47572912 0.15916135 0 0 Z " fill="#DDF0F6" transform="translate(234.765869140625,266.886474609375)"/>
<path d="M0 0 C0.99 0.66 1.98 1.32 3 2 C2.34 2 1.68 2 1 2 C1.103125 2.763125 1.20625 3.52625 1.3125 4.3125 C1.209375 5.199375 1.10625 6.08625 1 7 C-1.375 8.875 -1.375 8.875 -4 10 C-4.66 9.67 -5.32 9.34 -6 9 C-4.68 6.69 -3.36 4.38 -2 2 C-1.34 2 -0.68 2 0 2 C0 1.34 0 0.68 0 0 Z " fill="#36A4D4" transform="translate(259,271)"/>
<path d="M0 0 C0 0.66 0 1.32 0 2 C-0.59167969 1.97679687 -1.18335938 1.95359375 -1.79296875 1.9296875 C-6.33801959 1.82588536 -9.85940059 1.86291643 -14 4 C-8.90026682 -1.26972429 -7.04819215 -1.02312467 0 0 Z " fill="#585391" transform="translate(513,414)"/>
<path d="M0 0 C2.6875 -0.3125 2.6875 -0.3125 5 0 C4.01 1.98 3.02 3.96 2 6 C-1 6 -1 6 -3 5 C-1.8125 2.5 -1.8125 2.5 0 0 Z " fill="#F0E5E6" transform="translate(143,307)"/>
<path d="M0 0 C0.99 0 1.98 0 3 0 C1.8141763 3.37503669 0.72426311 5.64722731 -2 8 C-2 7.34 -2 6.68 -2 6 C-2.66 5.67 -3.32 5.34 -4 5 C-2.1875 2.5 -2.1875 2.5 0 0 Z " fill="#34A2D3" transform="translate(221,280)"/>
<path d="M0 0 C0.33 1.32 0.66 2.64 1 4 C0.34 4 -0.32 4 -1 4 C-1.144375 4.763125 -1.28875 5.52625 -1.4375 6.3125 C-2 9 -2 9 -3 12 C-3.99 11.67 -4.98 11.34 -6 11 C-4.54955729 6.89041233 -2.48889248 3.56741255 0 0 Z " fill="#DC3B44" transform="translate(67,231)"/>
<path d="M0 0 C0.66 1.32 1.32 2.64 2 4 C1.67 4.66 1.34 5.32 1 6 C0.34 6 -0.32 6 -1 6 C-1 7.32 -1 8.64 -1 10 C-2.32 9.34 -3.64 8.68 -5 8 C-3.35 5.36 -1.7 2.72 0 0 Z " fill="#32A7D9" transform="translate(171,271)"/>
<path d="M0 0 C0.33 0.66 0.66 1.32 1 2 C1.66 2.33 2.32 2.66 3 3 C1 6 1 6 -2 7 C-2.33 7.66 -2.66 8.32 -3 9 C-3.66 8.67 -4.32 8.34 -5 8 C-3.35 5.36 -1.7 2.72 0 0 Z " fill="#34A4D5" transform="translate(126,341)"/>
<path d="M0 0 C0.99 0.33 1.98 0.66 3 1 C3 1.66 3 2.32 3 3 C4.32 3.33 5.64 3.66 7 4 C0.25 6.125 0.25 6.125 -2 5 C-1.34 3.35 -0.68 1.7 0 0 Z " fill="#47428A" transform="translate(560,421)"/>
<path d="M0 0 C0.99 0.33 1.98 0.66 3 1 C1.68 3.31 0.36 5.62 -1 8 C-1.33 7.34 -1.66 6.68 -2 6 C-2.66 6 -3.32 6 -4 6 C-3.67 5.01 -3.34 4.02 -3 3 C-2.01 3 -1.02 3 0 3 C0 2.01 0 1.02 0 0 Z " fill="#32A2D5" transform="translate(178,345)"/>
<path d="M0 0 C1.32 0.99 2.64 1.98 4 3 C3.34 4.65 2.68 6.3 2 8 C1.67 7.34 1.34 6.68 1 6 C0.34 6 -0.32 6 -1 6 C-1.042721 4.33388095 -1.04063832 2.66617115 -1 1 C-0.67 0.67 -0.34 0.34 0 0 Z " fill="#DE2A30" transform="translate(137,307)"/>
<path d="M0 0 C1 2 1 2 0.125 5 C-1 8 -1 8 -2 10 C-2.99 9.67 -3.98 9.34 -5 9 C-3.35 6.03 -1.7 3.06 0 0 Z " fill="#36A4D5" transform="translate(163,284)"/>
<path d="M0 0 C2.0625 0.4375 2.0625 0.4375 4 1 C3.39816251 3.02045442 2.72693904 5.02111039 2 7 C1.01 7.495 1.01 7.495 0 8 C-0.38063221 5.6739143 -0.71269945 3.33944736 -1 1 C-0.67 0.67 -0.34 0.34 0 0 Z " fill="#2EA2D6" transform="translate(304,247)"/>
<path d="M0 0 C0.66 0.33 1.32 0.66 2 1 C0.35 2.65 -1.3 4.3 -3 6 C-3.33 5.34 -3.66 4.68 -4 4 C-4.66 4 -5.32 4 -6 4 C-5.67 3.01 -5.34 2.02 -5 1 C-5 1.66 -5 2.32 -5 3 C-3.824375 2.2265625 -3.824375 2.2265625 -2.625 1.4375 C-1.75875 0.963125 -0.8925 0.48875 0 0 Z " fill="#575196" transform="translate(535,338)"/>
<path d="M0 0 C0.625 1.8125 0.625 1.8125 1 4 C0.01 5.485 0.01 5.485 -1 7 C-1.99 6.67 -2.98 6.34 -4 6 C-3.6875 4.125 -3.6875 4.125 -3 2 C-2.01 1.34 -1.02 0.68 0 0 Z " fill="#EFF7FA" transform="translate(143,311)"/>
<path d="M0 0 C0.33 0 0.66 0 1 0 C1.3125 2.1875 1.3125 2.1875 1 5 C-1.5 7.8125 -1.5 7.8125 -4 10 C-4.66 9.67 -5.32 9.34 -6 9 C-5.02501855 7.4972763 -4.04490611 5.99788037 -3.0625 4.5 C-2.51722656 3.6646875 -1.97195312 2.829375 -1.41015625 1.96875 C-0.94480469 1.3190625 -0.47945312 0.669375 0 0 Z " fill="#D84147" transform="translate(59,243)"/>
<path d="M0 0 C0 3 0 3 -1 5 C-1.66 5 -2.32 5 -3 5 C-3.33 5.99 -3.66 6.98 -4 8 C-4.66 8 -5.32 8 -6 8 C-4.55746343 4.63408134 -2.66735273 2.48952921 0 0 Z " fill="#4C4789" transform="translate(435,416)"/>
<path d="M0 0 C1.32 0.33 2.64 0.66 4 1 C2.02 3.97 2.02 3.97 0 7 C-0.66 6.01 -1.32 5.02 -2 4 C-1.34 2.68 -0.68 1.36 0 0 Z " fill="#2DA1D5" transform="translate(196,317)"/>
<path d="M0 0 C0.75 1.75 0.75 1.75 1 4 C-0.9375 6.25 -0.9375 6.25 -3 8 C-3.33 7.34 -3.66 6.68 -4 6 C-2.68 4.02 -1.36 2.04 0 0 Z " fill="#D74E57" transform="translate(128,276)"/>
</svg>
