<?xml version="1.0" encoding="UTF-8"?>
<svg version="1.1" xmlns="http://www.w3.org/2000/svg" width="754" height="754">
<path d="M0 0 C11.34960326 10.53512315 17.15124253 25.12271576 17.83984375 40.4375 C18.04101036 52.08968881 18.22207461 63.87468778 10.56640625 73.44921875 C5.86698359 78.23150276 1.04345983 80.40309049 -5.62109375 80.63671875 C-11.86498683 80.52356748 -17.67051363 78.90048298 -22.35546875 74.62890625 C-28.18199956 67.5043859 -30.076105 59.12608628 -29.78125 50.0625 C-29.01168866 42.67260278 -27.10539197 36.4457519 -21.49609375 31.32421875 C-17.57067459 29.112715 -14.04440448 27.32421875 -9.49609375 27.32421875 C-13.80796442 20.29746655 -17.94910624 16.86959614 -25.8828125 14.7421875 C-33.28998226 13.55748322 -38.76607651 16.72971052 -44.74609375 20.7890625 C-46.76960582 22.30370553 -46.76960582 22.30370553 -47.49609375 25.32421875 C-46.41004325 27.79902136 -46.41004325 27.79902136 -44.80859375 30.51171875 C-39.37363941 40.95188686 -36.87071368 52.58069826 -36.49609375 64.32421875 C-36.45613281 65.44957031 -36.41617188 66.57492187 -36.375 67.734375 C-35.95449879 91.25770754 -40.00209273 114.21539231 -56.80078125 131.81640625 C-78.11682254 151.64959249 -109.28575715 151.07276755 -136.49609375 150.32421875 C-145.38874346 149.8766183 -153.6628101 148.32815753 -162.04296875 145.2265625 C-164.19519555 144.43489946 -166.24028972 143.73575057 -168.49609375 143.32421875 C-168.82609375 143.65421875 -169.15609375 143.98421875 -169.49609375 144.32421875 C-169.55768795 147.73558351 -169.55768795 147.73558351 -168.49609375 151.32421875 C-149.72578129 166.66843674 -114.05823454 165.84515181 -90.73776245 168.51071167 C-28.50733339 175.62669913 -28.50733339 175.62669913 -12.21484375 193.12109375 C-2.90857554 205.05003755 -1.45062279 220.73442637 -2.76953125 235.35546875 C-4.57474007 249.66089712 -10.06373034 260.92896925 -20.93359375 270.44921875 C-57.83225635 298.51456515 -125.11735551 293.69644187 -168.55322266 287.91748047 C-184.88599112 285.53677184 -203.45011167 282.18022493 -214.2109375 268.33203125 C-220.16736226 259.0262491 -221.08274914 248.08974971 -219.49609375 237.32421875 C-216.40970246 227.0062099 -210.05201752 220.65285839 -200.80859375 215.57421875 C-191.76211516 211.38296032 -179.38163778 207.78779627 -169.49609375 210.32421875 C-166.04679837 213.20728944 -163.63652888 216.3796102 -161.49609375 220.32421875 C-161.49609375 220.98421875 -161.49609375 221.64421875 -161.49609375 222.32421875 C-162.099375 222.62714844 -162.70265625 222.93007813 -163.32421875 223.2421875 C-169.21896164 226.33217369 -172.87575158 228.9292161 -175.80859375 235.07421875 C-177.00840427 240.7460503 -176.68124528 246.00661771 -173.55859375 251.01171875 C-165.02752278 261.54149777 -149.31353352 264.96702043 -136.49609375 266.32421875 C-130.13814396 266.65812236 -123.77352511 266.65404535 -117.40844727 266.63989258 C-114.46397184 266.63675116 -111.52052245 266.66019213 -108.57617188 266.68554688 C-80.40207974 266.84540368 -80.40207974 266.84540368 -55.49609375 255.32421875 C-51.27211508 249.50602878 -50.02226891 244.43159129 -50.49609375 237.32421875 C-51.84919502 231.62414648 -53.62321132 228.75977614 -58.49609375 225.32421875 C-76.23606894 215.86101542 -98.89739736 214.91598435 -118.49609375 212.32421875 C-180.40724665 204.12550792 -180.40724665 204.12550792 -195.8359375 185.66015625 C-201.42011887 177.80288458 -202.38733488 166.96112079 -201.12890625 157.58984375 C-198.49213999 147.36830542 -191.61122467 138.87188043 -184.49609375 131.32421875 C-184.84800781 130.83695313 -185.19992187 130.3496875 -185.5625 129.84765625 C-201.39971579 107.10491818 -204.95350761 79.74875757 -200.24609375 52.6484375 C-196.02457367 33.93742924 -188.34308324 17.40355784 -171.80859375 6.51171875 C-147.58217249 -8.57529648 -115.64597336 -8.48089081 -88.49609375 -2.67578125 C-80.13481137 -0.61551755 -72.54124604 2.29196711 -65.49609375 7.32421875 C-64.58730469 6.32841797 -64.58730469 6.32841797 -63.66015625 5.3125 C-46.61353222 -12.65201917 -19.97866902 -15.73283834 0 0 Z M-142.37109375 28.88671875 C-151.85131713 40.99909827 -151.87554477 58.00543948 -151.80859375 72.69921875 C-151.8044043 73.9634668 -151.80021484 75.22771484 -151.79589844 76.53027344 C-151.61981855 91.11493313 -150.53622865 106.54545763 -140.203125 117.8203125 C-134.10931741 123.18899882 -126.87480956 124.66683465 -118.9609375 124.53515625 C-112.23666509 123.95970346 -106.022658 122.03191132 -101.08984375 117.296875 C-88.2060234 101.34998951 -88.50221176 77.61837924 -90.24609375 58.19921875 C-90.31981201 57.35931396 -90.39353027 56.51940918 -90.46948242 55.65405273 C-91.62598739 44.74136271 -94.56810328 34.58866297 -102.87109375 27.01171875 C-114.2900294 18.0952307 -131.97359535 18.20405689 -142.37109375 28.88671875 Z " fill="#000000" transform="translate(623.49609375,269.67578125)"/>
<path d="M0 0 C25.74 0 51.48 0 78 0 C78.33 27.72 78.66 55.44 79 84 C81.64 81.69 84.28 79.38 87 77 C105.69152757 66.69247976 129.3688256 65.59359606 149.7890625 71.00390625 C157.37258244 73.46408456 163.14119354 76.62354507 169 82 C169.90105469 82.71349609 169.90105469 82.71349609 170.8203125 83.44140625 C182.64561669 93.59631994 187.1752676 112.23608348 189 127 C189.11238353 129.73500639 189.18697889 132.44475778 189.203125 135.1796875 C189.20882507 135.95071808 189.21452515 136.72174866 189.22039795 137.5161438 C189.22979958 139.1448634 189.23636256 140.77360161 189.24023438 142.40234375 C189.24983687 144.83369547 189.28086242 147.26416225 189.3125 149.6953125 C189.46820826 172.46417249 185.1971167 194.29379471 169.0625 211.3125 C156.20279446 223.50958713 138.41119612 226.40342118 121.17504883 225.97851562 C104.77708792 225.24051165 89.43513734 220.35844595 77.03515625 209.3203125 C74.28983441 206.19032944 72.20657763 202.5305242 70 199 C67.36 206.26 64.72 213.52 62 221 C49.46 221 36.92 221 24 221 C23.99589111 215.30081299 23.99178223 209.60162598 23.98754883 203.72973633 C23.97037562 184.93023099 23.92616748 166.13086174 23.86790943 147.33144093 C23.83324042 135.9298418 23.8079014 124.52836382 23.80444336 113.12670898 C23.80140613 103.19026334 23.78094811 93.25403333 23.73947543 83.317671 C23.7181219 78.0552529 23.70555695 72.79314155 23.71384621 67.5306797 C23.72137138 62.57867807 23.70562598 57.62729875 23.67193985 52.67541122 C23.66368807 50.85695289 23.66397837 49.03843288 23.67340279 47.21998024 C23.68499343 44.73806469 23.66595688 42.25819939 23.63923645 39.77644348 C23.64990971 39.05561846 23.66058297 38.33479344 23.67157966 37.59212524 C23.5938008 33.72410396 23.10103048 32.12361625 20.62020397 29.08819103 C14.73330806 24.39658558 7.24071484 24.12633342 0 23 C0 15.41 0 7.82 0 0 Z M83.30859375 104.68359375 C71.83135512 118.51956313 71.89311916 140.09394288 73.3125 157.078125 C74.462733 168.7366766 76.56385165 180.31202632 85 189 C93.70123147 195.88847491 103.39738129 195.98377532 114 195 C121.6411167 193.42744974 126.78502018 188.38459529 131 182 C140.32762366 162.18225952 139.25603235 135.58749286 133.0859375 114.94140625 C130.52072349 107.92356467 127.09348887 102.9430147 120.5 99.1875 C108.06409199 93.44214757 93.14732164 94.89031033 83.30859375 104.68359375 Z " fill="#000000" transform="translate(124,196)"/>
<path d="M0 0 C25.41 0 50.82 0 77 0 C77.01417969 8.82105469 77.02835937 17.64210938 77.04296875 26.73046875 C77.06557126 33.02299156 77.09130559 39.31544032 77.12156963 45.60792446 C77.16037157 53.76249116 77.19174603 61.91686702 77.19555664 70.0715332 C77.19859699 76.52734328 77.21909645 82.98282196 77.26052457 89.43850404 C77.28185052 92.85655441 77.29445769 96.27413372 77.28615379 99.69225121 C77.28127052 103.50913626 77.30724339 107.32464173 77.34057617 111.14135742 C77.32763771 112.83960411 77.32763771 112.83960411 77.31443787 114.57215881 C77.3678155 120.81239663 77.3678155 120.81239663 80.34590149 126.16304016 C86.77919399 130.61566311 93.1475987 130.28614534 101 131 C101 139.91 101 148.82 101 158 C67.67 158 34.34 158 0 158 C0 149.09 0 140.18 0 131 C7.125 130.25 7.125 130.25 9.33251953 130.04394531 C14.16805797 129.46425776 17.22257006 128.02642755 21 125 C23.5189436 121.22158461 23.28846163 118.22093476 23.2746582 113.84423828 C23.27976913 113.0130246 23.28488007 112.18181091 23.29014587 111.32540894 C23.30406228 108.57363716 23.30308339 105.82211531 23.30078125 103.0703125 C23.30466743 101.15843614 23.30900194 99.24656065 23.31376648 97.33468628 C23.32123337 93.324821 23.32093429 89.31504375 23.31567383 85.30517578 C23.30988261 80.16805806 23.32679954 75.03130129 23.3500185 69.89424324 C23.36475625 65.94454849 23.36562741 61.99494061 23.36250877 58.04522324 C23.3630221 56.15140951 23.36826192 54.25759094 23.37832069 52.36380386 C23.39066674 49.71381504 23.38390421 47.06452849 23.37231445 44.41455078 C23.37995819 43.63307678 23.38760193 42.85160278 23.39547729 42.04644775 C23.35180258 37.52503289 22.84351998 34.56991354 20 31 C13.82599957 27.37613018 7.01502174 26.94015755 0 26 C0 17.42 0 8.84 0 0 Z " fill="#000000" transform="translate(318,264)"/>
<path d="M0 0 C0.66 0 1.32 0 2 0 C2 118.8 2 237.6 2 360 C-81.82 360 -165.64 360 -252 360 C-250.09114216 356.18228432 -247.87723872 352.79288557 -245.4375 349.3125 C-244.8197168 348.42208008 -244.8197168 348.42208008 -244.18945312 347.51367188 C-241.14773261 343.14773261 -241.14773261 343.14773261 -240 342 C-237.11743397 341.9020546 -234.25882417 341.87007809 -231.37583923 341.87974548 C-230.002484 341.87846385 -230.002484 341.87846385 -228.60138422 341.87715632 C-225.50889494 341.87549871 -222.41645896 341.88102746 -219.32397461 341.88647461 C-217.11695863 341.88675645 -214.90994256 341.88659882 -212.70292664 341.8860321 C-206.69077275 341.88574399 -200.67863863 341.89164289 -194.66648936 341.89860606 C-188.39106899 341.90483737 -182.11564821 341.90544322 -175.84022522 341.90663147 C-165.30062523 341.90939116 -154.76103175 341.91564667 -144.22143555 341.92456055 C-133.36368852 341.93373398 -122.50594347 341.94081515 -111.64819336 341.94506836 C-110.64495693 341.94546244 -110.64495693 341.94546244 -109.6214531 341.94586449 C-106.26629178 341.94716949 -102.91113046 341.94843321 -99.55596912 341.94967639 C-71.70397434 341.96014228 -43.85198768 341.977743 -16 342 C-16.00455664 341.33146092 -16.00911329 340.66292185 -16.01380801 339.97412401 C-16.28268169 300.30027462 -16.48840773 260.62654331 -16.61278395 220.95196638 C-16.6277914 216.18208738 -16.64332337 211.41221023 -16.65917969 206.64233398 C-16.66232741 205.69278715 -16.66547514 204.74324031 -16.66871825 203.76491933 C-16.72085245 188.41488246 -16.81542118 173.06538806 -16.92583355 157.71567238 C-17.0382814 141.95082115 -17.10475344 126.18625289 -17.12906194 110.42101711 C-17.14548078 100.70238753 -17.1972229 90.98529148 -17.2949976 81.2671343 C-17.35871447 74.59170807 -17.37753811 67.91706784 -17.36201653 61.24136002 C-17.3543726 57.39627336 -17.36559656 53.55385441 -17.4304657 49.7092495 C-17.69604545 33.16140119 -17.38635735 20.15968558 -5.42531443 7.58592117 C-3.99529046 5.99475979 -2.87639872 4.37617973 -1.7396965 2.56723881 C-1.16559666 1.72005 -0.59149681 0.87286119 0 0 Z " fill="#BD9A37" transform="translate(674,248)"/>
<path d="M0 0 C58.74 0 117.48 0 178 0 C177 12 177 12 176 16 C123.2 16 70.4 16 16 16 C16.39549014 68.02615587 16.39549014 68.02615587 16.90087891 120.05126953 C16.94604492 130.14428711 16.94604492 130.14428711 16.95443726 134.87863159 C16.96370494 138.16537847 17.00097069 141.45048844 17.05575562 144.73678589 C17.12495594 148.94430137 17.14480534 153.14947768 17.13072276 157.35750937 C17.1336619 158.89198515 17.15314175 160.42655262 17.19215131 161.96053529 C17.49098965 174.29667892 13.58018693 180.81314416 6 190 C5.25481123 191.12440161 4.52119959 192.25659152 3.80130959 193.39735603 C2.90966134 194.6856648 2.90966134 194.6856648 2 196 C1.34 196 0.68 196 0 196 C0 131.32 0 66.64 0 0 Z " fill="#BD9A37" transform="translate(78,146)"/>
<path d="M0 0 C6.84972636 3.70812254 11.84735812 8.15307667 15.11328125 15.3359375 C17.4532589 23.3557728 17.39808443 32.44740165 13.8125 40.0625 C9.46479648 47.32486509 3.06396286 52.68701238 -5 55.375 C-15.60017578 56.27440885 -23.45184373 55.46941502 -32.0234375 48.80078125 C-37.63637952 43.72071347 -40.58361378 38.32423014 -41.37890625 30.78125 C-41.61695007 23.10241697 -41.11322366 16.94752871 -37 10.375 C-36.46375 9.488125 -35.9275 8.60125 -35.375 7.6875 C-26.12452161 -1.31954475 -12.24610601 -5.10607534 0 0 Z " fill="#000000" transform="translate(375,197.625)"/>
<path d="M0 0 C1.59957909 0.20609511 3.20396241 0.38280236 4.8125 0.5 C5.1425 0.17 5.4725 -0.16 5.8125 -0.5 C8.12781639 -0.40926067 10.4407012 -0.25240173 12.75 -0.0625 C18.53017618 0.59042283 18.53017618 0.59042283 24.1875 -0.1875 C26.8125 -0.5 26.8125 -0.5 29.125 0.9375 C29.681875 1.453125 30.23875 1.96875 30.8125 2.5 C31.8025 1.84 32.7925 1.18 33.8125 0.5 C36.625 0.19921875 36.625 0.19921875 39.8125 0.1875 C40.864375 0.17074219 41.91625 0.15398437 43 0.13671875 C45.8125 0.5 45.8125 0.5 47.64453125 1.7265625 C49.1033952 3.94169372 49.30911074 5.55322817 49.5 8.1875 C49.56574219 8.99574219 49.63148438 9.80398438 49.69921875 10.63671875 C49.75529297 11.55904297 49.75529297 11.55904297 49.8125 12.5 C51.1325 12.5 52.4525 12.5 53.8125 12.5 C54.0625 18.125 54.0625 18.125 51.8125 21.5 C45.6875 21.9375 45.6875 21.9375 42.8125 20.5 C41.8225 20.995 41.8225 20.995 40.8125 21.5 C38.75390625 21.703125 38.75390625 21.703125 36.375 21.75 C35.59253906 21.77578125 34.81007813 21.8015625 34.00390625 21.828125 C31.29079941 21.4218844 30.44962014 20.66223415 28.8125 18.5 C28.375 16 28.375 16 28.8125 13.5 C31.70476837 10.80719841 34.20962661 9.97154413 38.0625 9.3125 C38.95453125 9.15394531 39.8465625 8.99539063 40.765625 8.83203125 C41.44109375 8.72246094 42.1165625 8.61289062 42.8125 8.5 C42.3175 6.52 42.3175 6.52 41.8125 4.5 C39.8325 4.17 37.8525 3.84 35.8125 3.5 C35.8125 5.15 35.8125 6.8 35.8125 8.5 C34 9.125 34 9.125 31.8125 9.5 C30.8225 8.84 29.8325 8.18 28.8125 7.5 C27.94625 7.335 27.08 7.17 26.1875 7 C25.40375 6.835 24.62 6.67 23.8125 6.5 C23.3175 5.51 23.3175 5.51 22.8125 4.5 C20.21231184 8.40028225 20.66164486 11.97434569 20.8125 16.5 C22.1325 16.83 23.4525 17.16 24.8125 17.5 C24.8125 18.82 24.8125 20.14 24.8125 21.5 C19.8625 21.5 14.9125 21.5 9.8125 21.5 C9.8125 23.15 9.8125 24.8 9.8125 26.5 C5.601126 30.711374 2.71326155 31.40802767 -3.0625 31.6875 C-7.7715127 31.6260017 -11.76933479 30.91816521 -15.1875 27.5 C-14.92236085 25.15793749 -14.58137788 22.82387947 -14.1875 20.5 C-14.1875 19.613125 -14.1875 18.72625 -14.1875 17.8125 C-14.1875 15.5 -14.1875 15.5 -13.6875 13.625 C-13.0342387 11.29467666 -13.0342387 11.29467666 -13.375 8 C-13.1875 4.5 -13.1875 4.5 -11.4375 2.125 C-7.58896096 -0.65450042 -4.61969546 -0.60049217 0 0 Z M-7.125 4.625 C-8.45130275 6.53554076 -8.45130275 6.53554076 -7.875 9.1875 C-7.648125 9.950625 -7.42125 10.71375 -7.1875 11.5 C-3.09207219 12.64203952 -3.09207219 12.64203952 0.75 11.375 C2.07630275 9.46445924 2.07630275 9.46445924 1.5 6.8125 C1.1596875 5.6678125 1.1596875 5.6678125 0.8125 4.5 C-3.28292781 3.35796048 -3.28292781 3.35796048 -7.125 4.625 Z M11.8125 4.5 C11.8125 5.16 11.8125 5.82 11.8125 6.5 C9.3375 6.005 9.3375 6.005 6.8125 5.5 C6.69132812 6.06589844 6.57015625 6.63179688 6.4453125 7.21484375 C6.19394531 8.31505859 6.19394531 8.31505859 5.9375 9.4375 C5.77507812 10.16839844 5.61265625 10.89929688 5.4453125 11.65234375 C4.8125 13.5 4.8125 13.5 2.8125 14.5 C0.7750237 14.72858114 -1.26790303 14.91024278 -3.3125 15.0625 C-4.40820312 15.14628906 -5.50390625 15.23007812 -6.6328125 15.31640625 C-7.47585938 15.37699219 -8.31890625 15.43757813 -9.1875 15.5 C-9.1875 16.16 -9.1875 16.82 -9.1875 17.5 C-7.88425781 17.55607422 -7.88425781 17.55607422 -6.5546875 17.61328125 C4.89158612 18.26625659 4.89158612 18.26625659 9.8125 21.5 C9.8125 20.18 9.8125 18.86 9.8125 17.5 C11.1325 17.5 12.4525 17.5 13.8125 17.5 C13.8125 13.21 13.8125 8.92 13.8125 4.5 C13.1525 4.5 12.4925 4.5 11.8125 4.5 Z M34.8125 14.5 C35.4725 15.82 36.1325 17.14 36.8125 18.5 C39.33613988 17.87466625 39.33613988 17.87466625 41.8125 16.5 C42.70636164 13.95224694 42.70636164 13.95224694 42.8125 11.5 C40.20310143 11.5 37.1723011 13.47026861 34.8125 14.5 Z M-9.1875 22.5 C-9.1875 23.82 -9.1875 25.14 -9.1875 26.5 C-6.86063547 27.66343227 -5.34028587 27.69895988 -2.75 27.75 C-1.57630859 27.78867187 -1.57630859 27.78867187 -0.37890625 27.828125 C2.29181509 27.42823089 3.13227439 26.55300878 4.8125 24.5 C1.60067851 22.59391902 -0.72632603 22.27733753 -4.4375 22.375 C-5.77554687 22.40207031 -5.77554687 22.40207031 -7.140625 22.4296875 C-7.81609375 22.45289063 -8.4915625 22.47609375 -9.1875 22.5 Z " fill="#000000" transform="translate(282.1875,440.5)"/>
<path d="M0 0 C3.72910066 -0.0582462 7.45808364 -0.09367917 11.1875 -0.125 C12.24259766 -0.14175781 13.29769531 -0.15851563 14.38476562 -0.17578125 C15.40634766 -0.18222656 16.42792969 -0.18867188 17.48046875 -0.1953125 C18.41785889 -0.20578613 19.35524902 -0.21625977 20.32104492 -0.22705078 C23.21630812 0.01833287 25.37062697 0.79478381 28 2 C28.33 1.34 28.66 0.68 29 0 C32.3 0 35.6 0 39 0 C39.495 4.95 39.495 4.95 40 10 C40.33 9.67 40.66 9.34 41 9 C42.9609375 8.83203125 42.9609375 8.83203125 45.375 8.8125 C46.16648438 8.79832031 46.95796875 8.78414063 47.7734375 8.76953125 C50 9 50 9 53 11 C54.09506492 14.28519475 54.09960608 16.73663415 54.0625 20.1875 C54.05347656 21.27417969 54.04445312 22.36085938 54.03515625 23.48046875 C54.02355469 24.31191406 54.01195312 25.14335937 54 26 C54.99 26 55.98 26 57 26 C57 27.32 57 28.64 57 30 C52.71 30 48.42 30 44 30 C44 28.68 44 27.36 44 26 C45.32 26 46.64 26 48 26 C47.67 21.71 47.34 17.42 47 13 C44.69 13.33 42.38 13.66 40 14 C39.67 17.96 39.34 21.92 39 26 C39.99 26 40.98 26 42 26 C42 27.32 42 28.64 42 30 C37.71 30 33.42 30 29 30 C29 28.68 29 27.36 29 26 C30.32 26 31.64 26 33 26 C33 18.74 33 11.48 33 4 C31.68 4 30.36 4 29 4 C29.268125 5.051875 29.53625 6.10375 29.8125 7.1875 C30 11 30 11 27.75 13.875 C23.82662651 16.9066977 21.1314931 17.11919404 16.3125 17.0625 C15.31863281 17.05347656 14.32476562 17.04445313 13.30078125 17.03515625 C12.16189453 17.01775391 12.16189453 17.01775391 11 17 C11.33 19.64 11.66 22.28 12 25 C13.65 25.33 15.3 25.66 17 26 C17 27.32 17 28.64 17 30 C11.06 30 5.12 30 -1 30 C-1 28.68 -1 27.36 -1 26 C0.65 25.67 2.3 25.34 4 25 C4.33 18.07 4.66 11.14 5 4 C3.35 4 1.7 4 0 4 C0 2.68 0 1.36 0 0 Z M11 4 C11 6.97 11 9.94 11 13 C12.423125 13.061875 13.84625 13.12375 15.3125 13.1875 C16.11300781 13.22230469 16.91351563 13.25710938 17.73828125 13.29296875 C20.06772528 13.17920516 20.06772528 13.17920516 21.8046875 11.65234375 C23.28129719 9.98365419 23.28129719 9.98365419 22.8125 7.375 C22.25355766 4.83447997 22.25355766 4.83447997 20 4 C16.99525503 3.86440682 14.00931153 3.95700984 11 4 Z " fill="#000000" transform="translate(145,432)"/>
<path d="M0 0 C3.3 0 6.6 0 10 0 C10 3.3 10 6.6 10 10 C10.66 9.67 11.32 9.34 12 9 C14.05859375 8.796875 14.05859375 8.796875 16.4375 8.75 C17.21996094 8.72421875 18.00242187 8.6984375 18.80859375 8.671875 C21 9 21 9 22.7734375 10.06640625 C24.66999813 13.05620725 24.28351991 15.69877674 24.1875 19.1875 C24.16042969 20.45980469 24.13335937 21.73210937 24.10546875 23.04296875 C24.07066406 24.01878906 24.03585937 24.99460937 24 26 C25.32 26 26.64 26 28 26 C28.33 26.99 28.66 27.98 29 29 C31.01508358 29.73323796 31.01508358 29.73323796 33 30 C33.495 31.98 33.495 31.98 34 34 C36.26342655 31.27467639 36.26342655 31.27467639 35.81640625 28.66796875 C34.87748808 25.59963809 33.54048311 23.09024614 31.9375 20.3125 C29 15.20470588 29 15.20470588 29 13 C28.01 13 27.02 13 26 13 C26 11.68 26 10.36 26 9 C30.62 9 35.24 9 40 9 C40 10.32 40 11.64 40 13 C39.01 13.33 38.02 13.66 37 14 C38.32 16.31 39.64 18.62 41 21 C42.32 18.36 43.64 15.72 45 13 C44.01 13 43.02 13 42 13 C42 11.68 42 10.36 42 9 C45.63 9 49.26 9 53 9 C53 10.32 53 11.64 53 13 C52.01 13 51.02 13 50 13 C49.71697021 13.73065674 49.43394043 14.46131348 49.14233398 15.21411133 C47.3807405 19.51023085 45.21050209 23.57437046 43.0625 27.6875 C42.61970703 28.55439453 42.17691406 29.42128906 41.72070312 30.31445312 C41.28822266 31.14267578 40.85574219 31.97089844 40.41015625 32.82421875 C40.01965088 33.57791748 39.62914551 34.33161621 39.22680664 35.1081543 C38 37 38 37 35 39 C31.84586249 39.32855599 29.84476654 39.53501881 27.125 37.8125 C26 36 26 36 26 31 C22.37 30.67 18.74 30.34 15 30 C15 28.68 15 27.36 15 26 C15.99 26 16.98 26 18 26 C17.67 22.04 17.34 18.08 17 14 C15.35 14 13.7 14 12 14 C10.26043342 15.73956658 10.62809614 18.1936622 10.4375 20.5625 C10.35371094 21.57441406 10.26992188 22.58632813 10.18359375 23.62890625 C10.12300781 24.41136719 10.06242187 25.19382812 10 26 C10.99 26 11.98 26 13 26 C13 27.32 13 28.64 13 30 C8.71 30 4.42 30 0 30 C0 28.68 0 27.36 0 26 C1.32 26 2.64 26 4 26 C4 18.74 4 11.48 4 4 C2.68 4 1.36 4 0 4 C0 2.68 0 1.36 0 0 Z " fill="#000000" transform="translate(362,432)"/>
<path d="M0 0 C2.95098093 3.0397836 3.43175703 5.31912073 3.4375 9.5 C3.34402405 13.18984018 3.30522455 14.57268563 1.125 17.625 C-3.16324991 20.39974994 -5.93066639 20.16093123 -11 20 C-11.33 19.67 -11.66 19.34 -12 19 C-12 20.65 -12 22.3 -12 24 C-10.68 24.33 -9.36 24.66 -8 25 C-8 26.32 -8 27.64 -8 29 C-12.62 29 -17.24 29 -22 29 C-22 27.68 -22 26.36 -22 25 C-21.01 25 -20.02 25 -19 25 C-19 17.74 -19 10.48 -19 3 C-19.99 3 -20.98 3 -22 3 C-22 1.68 -22 0.36 -22 -1 C-20.87851562 -0.98259766 -20.87851562 -0.98259766 -19.734375 -0.96484375 C-18.74953125 -0.95582031 -17.7646875 -0.94679688 -16.75 -0.9375 C-15.77546875 -0.92589844 -14.8009375 -0.91429687 -13.796875 -0.90234375 C-11.08448979 -0.89717641 -11.08448979 -0.89717641 -8.86328125 -1.546875 C-5.58909419 -2.34311336 -3.06444546 -1.17006099 0 0 Z M-12 4 C-12.65602521 6.08702127 -12.65602521 6.08702127 -12.8125 8.4375 C-12.90144531 9.21996094 -12.99039062 10.00242187 -13.08203125 10.80859375 C-13.18025869 13.29639843 -13.18025869 13.29639843 -11 16 C-8 16.5 -8 16.5 -5 16 C-2.47116858 12.20675288 -2.38799842 9.45092058 -3 5 C-4.1488697 2.92993467 -4.1488697 2.92993467 -6 2 C-9.18490007 1.7226499 -9.18490007 1.7226499 -12 4 Z " fill="#000000" transform="translate(358,442)"/>
<path d="M0 0 C3.00197464 1.80118478 4.45166366 2.90332732 6 6 C6.55512815 10.63213493 6.6364242 13.98172127 4.125 18 C0.23766165 21.65867139 -3.13332706 21.32678029 -8.29296875 21.29296875 C-11.88443175 20.90428228 -13.63040824 19.68553733 -16 17 C-17.72869779 13.54260443 -17.48966895 9.78024432 -17 6 C-12.69488946 -0.88817686 -7.62425249 -0.82513555 0 0 Z M-8.625 4.0625 C-10.68044051 6.95880253 -10.81563571 9.49707855 -11 13 C-10.54910181 15.40563594 -10.54910181 15.40563594 -9 17 C-6.65127469 18.16977494 -6.65127469 18.16977494 -4 18 C-1.52277007 16.60720318 -1.52277007 16.60720318 0 14 C0.58328427 9.91701013 0.67821701 7.91208495 -1.8125 4.5625 C-4.39404231 2.71854121 -5.87077153 2.26165831 -8.625 4.0625 Z " fill="#000000" transform="translate(260,441)"/>
<path d="M0 0 C2.98990788 1.24579495 4.39265669 2.19020892 6.3125 4.75 C7.63780889 9.08737455 7.60880922 12.69540881 5.6875 16.8125 C3.58879717 19.53304071 1.94913247 20.85844963 -1.48828125 21.37109375 C-10.05995083 21.57264061 -10.05995083 21.57264061 -13.625 18.875 C-16.28941292 15.64965804 -17 14.15554965 -17 10 C-16.28170845 6.40854225 -15.35872183 4.42598217 -13 1.625 C-8.66427446 -0.723518 -4.83016597 -0.65938121 0 0 Z M-8.1875 4.5625 C-10.67821701 7.91208495 -10.58328427 9.91701013 -10 14 C-8.41473019 16.58709872 -8.41473019 16.58709872 -6 18 C-3.87092681 18.23901711 -3.87092681 18.23901711 -2 17 C0.38600668 14.12033676 1.02548774 12.63719347 0.875 8.875 C-0.00847483 5.97215412 -0.52737836 4.71181498 -3 3 C-6.04117104 2.7093809 -6.04117104 2.7093809 -8.1875 4.5625 Z " fill="#000000" transform="translate(219,441)"/>
<path d="M0 0 C0.99 0 1.98 0 3 0 C3 2.31 3 4.62 3 7 C4.98 7 6.96 7 9 7 C9 8.32 9 9.64 9 11 C7.02 11 5.04 11 3 11 C3.33 15.29 3.66 19.58 4 24 C4.66 23.67 5.32 23.34 6 23 C6.65213292 20.97536745 6.65213292 20.97536745 7 19 C7.99 19 8.98 19 10 19 C10.125 22.375 10.125 22.375 10 26 C8 28 8 28 6.125 28.265625 C5.42375 28.26046875 4.7225 28.2553125 4 28.25 C2.948125 28.25773437 2.948125 28.25773437 1.875 28.265625 C0 28 0 28 -2 26 C-2.14497985 23.41935871 -2.18677545 20.95056116 -2.125 18.375 C-2.11597656 17.66859375 -2.10695312 16.9621875 -2.09765625 16.234375 C-2.07407603 14.48943902 -2.03820461 12.74467705 -2 11 C-3.32 11 -4.64 11 -6 11 C-6 9.68 -6 8.36 -6 7 C-5.071875 6.6596875 -5.071875 6.6596875 -4.125 6.3125 C-1.38589791 4.62070165 -0.94975528 3.00755839 0 0 Z " fill="#000000" transform="translate(232,434)"/>
</svg>
